<svg width="1393" height="193" viewBox="0 0 1393 193" fill="none" xmlns="http://www.w3.org/2000/svg">
<path d="M134.85 186.824L122 184.106" stroke="white" stroke-opacity="0.12" stroke-width="2" stroke-linecap="round"/>
<path d="M129.85 179L127.13 191.847" stroke="white" stroke-opacity="0.12" stroke-width="2" stroke-linecap="round"/>
<path d="M79.1665 3.10494C76.3852 2.51665 73.6536 4.29444 73.0653 7.07576C72.477 9.85708 74.2548 12.5887 77.0361 13.177C79.8174 13.7653 82.5489 11.9875 83.1372 9.20615C83.7255 6.42483 81.9478 3.69324 79.1665 3.10494Z" stroke="white" stroke-opacity="0.12" stroke-width="2"/>
<path d="M1310.23 14.1074C1311.12 15.1644 1312.7 15.3024 1313.76 14.4144C1314.81 13.5264 1314.95 11.9504 1314.06 10.8924C1313.17 9.8354 1311.6 9.6974 1310.54 10.5854C1309.48 11.4724 1309.35 13.0494 1310.23 14.1074Z" fill="white" fill-opacity="0.12"/>
<path d="M1317.31 22.5335C1318.19 23.5905 1319.77 23.7284 1320.83 22.8404C1321.89 21.9534 1322.02 20.3764 1321.14 19.3184C1320.25 18.2614 1318.67 18.1234 1317.61 19.0114C1316.56 19.8984 1316.42 21.4755 1317.31 22.5335Z" fill="white" fill-opacity="0.12"/>
<path d="M1324.38 30.9594C1325.27 32.0164 1326.84 32.1544 1327.9 31.2664C1328.96 30.3794 1329.1 28.8025 1328.21 27.7445C1327.32 26.6875 1325.74 26.5494 1324.69 27.4374C1323.63 28.3244 1323.49 29.9014 1324.38 30.9594Z" fill="white" fill-opacity="0.12"/>
<path d="M1331.45 39.3855C1332.34 40.4425 1333.92 40.5805 1334.97 39.6925C1336.03 38.8055 1336.17 37.2285 1335.28 36.1705C1334.39 35.1135 1332.82 34.9755 1331.76 35.8635C1330.7 36.7505 1330.56 38.3275 1331.45 39.3855Z" fill="white" fill-opacity="0.12"/>
<path d="M1338.52 47.8115C1339.41 48.8685 1340.99 49.0065 1342.05 48.1185C1343.1 47.2315 1343.24 45.6545 1342.35 44.5965C1341.47 43.5395 1339.89 43.4015 1338.83 44.2895C1337.77 45.1765 1337.64 46.7535 1338.52 47.8115Z" fill="white" fill-opacity="0.12"/>
<path d="M1345.6 56.2374C1346.48 57.2944 1348.06 57.4324 1349.12 56.5444C1350.18 55.6574 1350.31 54.0804 1349.43 53.0224C1348.54 51.9654 1346.96 51.8274 1345.9 52.7154C1344.85 53.6024 1344.71 55.1794 1345.6 56.2374Z" fill="white" fill-opacity="0.12"/>
<path d="M1352.67 64.6634C1353.56 65.7204 1355.14 65.8584 1356.19 64.9704C1357.25 64.0824 1357.39 62.5054 1356.5 61.4484C1355.61 60.3904 1354.04 60.2534 1352.98 61.1404C1351.92 62.0284 1351.78 63.6054 1352.67 64.6634Z" fill="white" fill-opacity="0.12"/>
<path d="M1359.74 73.0894C1360.63 74.1464 1362.21 74.2844 1363.27 73.3964C1364.32 72.5084 1364.46 70.9314 1363.57 69.8744C1362.69 68.8164 1361.11 68.6794 1360.05 69.5674C1358.99 70.4544 1358.86 72.0314 1359.74 73.0894Z" fill="white" fill-opacity="0.12"/>
<path d="M1366.82 81.5155C1367.7 82.5725 1369.28 82.7104 1370.34 81.8224C1371.4 80.9344 1371.53 79.3584 1370.65 78.3004C1369.76 77.2424 1368.18 77.1054 1367.12 77.9934C1366.07 78.8804 1365.93 80.4575 1366.82 81.5155Z" fill="white" fill-opacity="0.12"/>
<path d="M1373.89 89.9414C1374.78 90.9984 1376.35 91.1364 1377.41 90.2484C1378.47 89.3604 1378.61 87.7844 1377.72 86.7264C1376.83 85.6694 1375.26 85.5314 1374.2 86.4194C1373.14 87.3064 1373 88.8834 1373.89 89.9414Z" fill="white" fill-opacity="0.12"/>
<path d="M1380.96 98.3674C1381.85 99.4244 1383.43 99.5624 1384.49 98.6744C1385.54 97.7864 1385.68 96.2104 1384.79 95.1524C1383.91 94.0954 1382.33 93.9574 1381.27 94.8454C1380.21 95.7324 1380.08 97.3094 1380.96 98.3674Z" fill="white" fill-opacity="0.12"/>
<path d="M1388.04 106.793C1388.92 107.85 1390.5 107.988 1391.56 107.1C1392.62 106.213 1392.75 104.636 1391.87 103.578C1390.98 102.521 1389.4 102.383 1388.34 103.271C1387.29 104.158 1387.15 105.735 1388.04 106.793Z" fill="white" fill-opacity="0.12"/>
<path d="M1301.81 21.1804C1302.69 22.2374 1304.27 22.3754 1305.33 21.4874C1306.39 20.5994 1306.52 19.0234 1305.64 17.9654C1304.75 16.9084 1303.17 16.7704 1302.11 17.6584C1301.06 18.5454 1300.92 20.1224 1301.81 21.1804Z" fill="white" fill-opacity="0.12"/>
<path d="M1308.88 29.6065C1309.77 30.6635 1311.35 30.8014 1312.4 29.9134C1313.46 29.0264 1313.6 27.4494 1312.71 26.3914C1311.82 25.3344 1310.25 25.1964 1309.19 26.0844C1308.13 26.9714 1307.99 28.5485 1308.88 29.6065Z" fill="white" fill-opacity="0.12"/>
<path d="M1315.95 38.0324C1316.84 39.0894 1318.42 39.2274 1319.48 38.3394C1320.53 37.4524 1320.67 35.8755 1319.78 34.8175C1318.9 33.7605 1317.32 33.6224 1316.26 34.5104C1315.2 35.3974 1315.07 36.9744 1315.95 38.0324Z" fill="white" fill-opacity="0.12"/>
<path d="M1323.03 46.4585C1323.91 47.5155 1325.49 47.6535 1326.55 46.7655C1327.61 45.8785 1327.74 44.3015 1326.86 43.2435C1325.97 42.1865 1324.39 42.0485 1323.33 42.9365C1322.28 43.8235 1322.14 45.4005 1323.03 46.4585Z" fill="white" fill-opacity="0.12"/>
<path d="M1330.1 54.8845C1330.99 55.9415 1332.56 56.0795 1333.62 55.1915C1334.68 54.3045 1334.82 52.7275 1333.93 51.6695C1333.04 50.6125 1331.46 50.4745 1330.41 51.3625C1329.35 52.2495 1329.21 53.8265 1330.1 54.8845Z" fill="white" fill-opacity="0.12"/>
<path d="M1337.17 63.3104C1338.06 64.3674 1339.64 64.5054 1340.69 63.6174C1341.75 62.7304 1341.89 61.1534 1341 60.0954C1340.11 59.0384 1338.54 58.9004 1337.48 59.7884C1336.42 60.6754 1336.28 62.2524 1337.17 63.3104Z" fill="white" fill-opacity="0.12"/>
<path d="M1344.24 71.7364C1345.13 72.7934 1346.71 72.9314 1347.77 72.0434C1348.82 71.1554 1348.96 69.5784 1348.07 68.5214C1347.19 67.4634 1345.61 67.3264 1344.55 68.2134C1343.49 69.1014 1343.36 70.6784 1344.24 71.7364Z" fill="white" fill-opacity="0.12"/>
<path d="M1351.32 80.1624C1352.21 81.2194 1353.78 81.3574 1354.84 80.4694C1355.9 79.5814 1356.04 78.0044 1355.15 76.9474C1354.26 75.8894 1352.68 75.7524 1351.63 76.6404C1350.57 77.5274 1350.43 79.1044 1351.32 80.1624Z" fill="white" fill-opacity="0.12"/>
<path d="M1358.39 88.5885C1359.28 89.6455 1360.86 89.7835 1361.91 88.8955C1362.97 88.0075 1363.11 86.4314 1362.22 85.3734C1361.33 84.3154 1359.76 84.1784 1358.7 85.0664C1357.64 85.9534 1357.5 87.5305 1358.39 88.5885Z" fill="white" fill-opacity="0.12"/>
<path d="M1365.46 97.0144C1366.35 98.0714 1367.93 98.2094 1368.99 97.3214C1370.04 96.4334 1370.18 94.8574 1369.29 93.7994C1368.41 92.7424 1366.83 92.6044 1365.77 93.4924C1364.71 94.3794 1364.58 95.9564 1365.46 97.0144Z" fill="white" fill-opacity="0.12"/>
<path d="M1372.54 105.44C1373.43 106.497 1375 106.635 1376.06 105.747C1377.12 104.859 1377.25 103.283 1376.37 102.225C1375.48 101.168 1373.9 101.03 1372.85 101.918C1371.79 102.805 1371.65 104.382 1372.54 105.44Z" fill="white" fill-opacity="0.12"/>
<path d="M1379.61 113.866C1380.5 114.923 1382.08 115.061 1383.13 114.173C1384.19 113.286 1384.33 111.709 1383.44 110.651C1382.55 109.594 1380.98 109.456 1379.92 110.344C1378.86 111.231 1378.72 112.808 1379.61 113.866Z" fill="white" fill-opacity="0.12"/>
<path d="M1293.38 28.2534C1294.27 29.3104 1295.85 29.4484 1296.9 28.5604C1297.96 27.6724 1298.1 26.0964 1297.21 25.0384C1296.32 23.9814 1294.75 23.8434 1293.69 24.7314C1292.63 25.6184 1292.49 27.1954 1293.38 28.2534Z" fill="white" fill-opacity="0.12"/>
<path d="M1300.45 36.6795C1301.34 37.7365 1302.92 37.8744 1303.98 36.9864C1305.03 36.0994 1305.17 34.5224 1304.28 33.4644C1303.4 32.4074 1301.82 32.2694 1300.76 33.1574C1299.7 34.0444 1299.57 35.6215 1300.45 36.6795Z" fill="white" fill-opacity="0.12"/>
<path d="M1307.53 45.1054C1308.42 46.1624 1309.99 46.3004 1311.05 45.4124C1312.11 44.5254 1312.25 42.9485 1311.36 41.8905C1310.47 40.8335 1308.89 40.6954 1307.84 41.5834C1306.78 42.4704 1306.64 44.0474 1307.53 45.1054Z" fill="white" fill-opacity="0.12"/>
<path d="M1314.6 53.5315C1315.49 54.5885 1317.06 54.7265 1318.12 53.8385C1319.18 52.9515 1319.32 51.3745 1318.43 50.3165C1317.54 49.2595 1315.97 49.1215 1314.91 50.0095C1313.85 50.8965 1313.71 52.4735 1314.6 53.5315Z" fill="white" fill-opacity="0.12"/>
<path d="M1321.67 61.9575C1322.56 63.0145 1324.14 63.1525 1325.2 62.2645C1326.25 61.3775 1326.39 59.8005 1325.5 58.7425C1324.62 57.6855 1323.04 57.5475 1321.98 58.4355C1320.92 59.3225 1320.79 60.8995 1321.67 61.9575Z" fill="white" fill-opacity="0.12"/>
<path d="M1328.75 70.3834C1329.63 71.4404 1331.21 71.5784 1332.27 70.6904C1333.33 69.8034 1333.46 68.2264 1332.58 67.1684C1331.69 66.1114 1330.11 65.9734 1329.05 66.8614C1328 67.7484 1327.86 69.3254 1328.75 70.3834Z" fill="white" fill-opacity="0.12"/>
<path d="M1335.82 78.8094C1336.71 79.8664 1338.28 80.0044 1339.34 79.1164C1340.4 78.2284 1340.54 76.6514 1339.65 75.5944C1338.76 74.5364 1337.18 74.3994 1336.13 75.2864C1335.07 76.1744 1334.93 77.7514 1335.82 78.8094Z" fill="white" fill-opacity="0.12"/>
<path d="M1342.89 87.2354C1343.78 88.2924 1345.36 88.4304 1346.41 87.5424C1347.47 86.6544 1347.61 85.0774 1346.72 84.0204C1345.83 82.9624 1344.26 82.8254 1343.2 83.7134C1342.14 84.6004 1342 86.1774 1342.89 87.2354Z" fill="white" fill-opacity="0.12"/>
<path d="M1349.97 95.6615C1350.85 96.7185 1352.43 96.8565 1353.49 95.9685C1354.55 95.0805 1354.68 93.5044 1353.79 92.4464C1352.91 91.3884 1351.33 91.2514 1350.27 92.1394C1349.22 93.0264 1349.08 94.6035 1349.97 95.6615Z" fill="white" fill-opacity="0.12"/>
<path d="M1357.04 104.087C1357.93 105.144 1359.5 105.282 1360.56 104.394C1361.62 103.506 1361.75 101.93 1360.87 100.872C1359.98 99.8154 1358.4 99.6774 1357.35 100.565C1356.29 101.452 1356.15 103.029 1357.04 104.087Z" fill="white" fill-opacity="0.12"/>
<path d="M1364.11 112.513C1365 113.57 1366.58 113.708 1367.63 112.82C1368.69 111.932 1368.83 110.356 1367.94 109.298C1367.05 108.241 1365.48 108.103 1364.42 108.991C1363.36 109.878 1363.22 111.455 1364.11 112.513Z" fill="white" fill-opacity="0.12"/>
<path d="M1371.18 120.939C1372.07 121.996 1373.65 122.134 1374.71 121.246C1375.76 120.359 1375.9 118.782 1375.01 117.724C1374.13 116.667 1372.55 116.529 1371.49 117.417C1370.43 118.304 1370.3 119.881 1371.18 120.939Z" fill="white" fill-opacity="0.12"/>
<path d="M1284.95 35.3264C1285.84 36.3834 1287.42 36.5214 1288.48 35.6334C1289.53 34.7454 1289.67 33.1694 1288.78 32.1114C1287.9 31.0544 1286.32 30.9164 1285.26 31.8044C1284.2 32.6914 1284.07 34.2684 1284.95 35.3264Z" fill="white" fill-opacity="0.12"/>
<path d="M1292.03 43.7525C1292.92 44.8095 1294.49 44.9474 1295.55 44.0594C1296.61 43.1714 1296.75 41.5954 1295.86 40.5374C1294.97 39.4804 1293.39 39.3424 1292.34 40.2304C1291.28 41.1174 1291.14 42.6945 1292.03 43.7525Z" fill="white" fill-opacity="0.12"/>
<path d="M1299.1 52.1784C1299.99 53.2354 1301.56 53.3734 1302.62 52.4854C1303.68 51.5984 1303.82 50.0214 1302.93 48.9634C1302.04 47.9064 1300.47 47.7684 1299.41 48.6564C1298.35 49.5434 1298.21 51.1204 1299.1 52.1784Z" fill="white" fill-opacity="0.12"/>
<path d="M1306.17 60.6045C1307.06 61.6615 1308.64 61.7995 1309.7 60.9115C1310.75 60.0245 1310.89 58.4475 1310 57.3895C1309.12 56.3325 1307.54 56.1945 1306.48 57.0825C1305.42 57.9695 1305.29 59.5465 1306.17 60.6045Z" fill="white" fill-opacity="0.12"/>
<path d="M1313.25 69.0305C1314.14 70.0875 1315.71 70.2255 1316.77 69.3375C1317.83 68.4505 1317.96 66.8735 1317.08 65.8155C1316.19 64.7585 1314.61 64.6205 1313.56 65.5085C1312.5 66.3955 1312.36 67.9725 1313.25 69.0305Z" fill="white" fill-opacity="0.12"/>
<path d="M1320.32 77.4564C1321.21 78.5134 1322.78 78.6514 1323.84 77.7634C1324.9 76.8764 1325.04 75.2994 1324.15 74.2414C1323.26 73.1844 1321.68 73.0464 1320.63 73.9344C1319.57 74.8214 1319.43 76.3984 1320.32 77.4564Z" fill="white" fill-opacity="0.12"/>
<path d="M1327.39 85.8825C1328.28 86.9395 1329.86 87.0774 1330.92 86.1894C1331.97 85.3014 1332.11 83.7244 1331.22 82.6674C1330.34 81.6094 1328.76 81.4724 1327.7 82.3594C1326.64 83.2474 1326.51 84.8245 1327.39 85.8825Z" fill="white" fill-opacity="0.12"/>
<path d="M1334.47 94.3084C1335.35 95.3654 1336.93 95.5034 1337.99 94.6154C1339.05 93.7274 1339.18 92.1504 1338.3 91.0934C1337.41 90.0354 1335.83 89.8984 1334.77 90.7864C1333.72 91.6734 1333.58 93.2504 1334.47 94.3084Z" fill="white" fill-opacity="0.12"/>
<path d="M1341.54 102.734C1342.43 103.791 1344 103.929 1345.06 103.041C1346.12 102.153 1346.26 100.577 1345.37 99.5194C1344.48 98.4614 1342.9 98.3244 1341.85 99.2124C1340.79 100.099 1340.65 101.676 1341.54 102.734Z" fill="white" fill-opacity="0.12"/>
<path d="M1348.61 111.16C1349.5 112.217 1351.08 112.355 1352.13 111.467C1353.19 110.579 1353.33 109.003 1352.44 107.945C1351.55 106.888 1349.98 106.75 1348.92 107.638C1347.86 108.525 1347.72 110.102 1348.61 111.16Z" fill="white" fill-opacity="0.12"/>
<path d="M1355.69 119.586C1356.57 120.643 1358.15 120.781 1359.21 119.893C1360.26 119.005 1360.4 117.429 1359.51 116.371C1358.63 115.314 1357.05 115.176 1355.99 116.064C1354.94 116.951 1354.8 118.528 1355.69 119.586Z" fill="white" fill-opacity="0.12"/>
<path d="M1362.76 128.012C1363.65 129.069 1365.22 129.207 1366.28 128.319C1367.34 127.432 1367.48 125.855 1366.59 124.797C1365.7 123.74 1364.12 123.602 1363.07 124.49C1362.01 125.377 1361.87 126.954 1362.76 128.012Z" fill="white" fill-opacity="0.12"/>
<path d="M1276.53 42.3994C1277.42 43.4564 1278.99 43.5944 1280.05 42.7064C1281.11 41.8184 1281.25 40.2424 1280.36 39.1844C1279.47 38.1274 1277.89 37.9894 1276.84 38.8774C1275.78 39.7644 1275.64 41.3414 1276.53 42.3994Z" fill="white" fill-opacity="0.12"/>
<path d="M1283.6 50.8254C1284.49 51.8824 1286.07 52.0205 1287.12 51.1325C1288.18 50.2445 1288.32 48.6684 1287.43 47.6104C1286.54 46.5534 1284.97 46.4154 1283.91 47.3034C1282.85 48.1904 1282.71 49.7674 1283.6 50.8254Z" fill="white" fill-opacity="0.12"/>
<path d="M1290.68 59.2514C1291.56 60.3084 1293.14 60.4464 1294.2 59.5584C1295.26 58.6714 1295.39 57.0944 1294.5 56.0364C1293.62 54.9794 1292.04 54.8414 1290.98 55.7294C1289.93 56.6164 1289.79 58.1934 1290.68 59.2514Z" fill="white" fill-opacity="0.12"/>
<path d="M1297.75 67.6775C1298.64 68.7345 1300.21 68.8725 1301.27 67.9845C1302.33 67.0975 1302.46 65.5205 1301.58 64.4625C1300.69 63.4055 1299.11 63.2675 1298.06 64.1555C1297 65.0425 1296.86 66.6195 1297.75 67.6775Z" fill="white" fill-opacity="0.12"/>
<path d="M1304.82 76.1035C1305.71 77.1605 1307.29 77.2985 1308.34 76.4105C1309.4 75.5235 1309.54 73.9465 1308.65 72.8885C1307.76 71.8315 1306.19 71.6935 1305.13 72.5815C1304.07 73.4685 1303.93 75.0455 1304.82 76.1035Z" fill="white" fill-opacity="0.12"/>
<path d="M1311.89 84.5294C1312.78 85.5864 1314.36 85.7244 1315.42 84.8364C1316.47 83.9494 1316.61 82.3724 1315.72 81.3144C1314.84 80.2574 1313.26 80.1194 1312.2 81.0074C1311.14 81.8944 1311.01 83.4714 1311.89 84.5294Z" fill="white" fill-opacity="0.12"/>
<path d="M1318.97 92.9555C1319.86 94.0125 1321.43 94.1504 1322.49 93.2624C1323.55 92.3744 1323.68 90.7974 1322.8 89.7404C1321.91 88.6824 1320.33 88.5454 1319.27 89.4324C1318.22 90.3204 1318.08 91.8975 1318.97 92.9555Z" fill="white" fill-opacity="0.12"/>
<path d="M1326.04 101.381C1326.93 102.438 1328.51 102.576 1329.56 101.688C1330.62 100.8 1330.76 99.2234 1329.87 98.1664C1328.98 97.1084 1327.41 96.9714 1326.35 97.8594C1325.29 98.7464 1325.15 100.323 1326.04 101.381Z" fill="white" fill-opacity="0.12"/>
<path d="M1333.11 109.807C1334 110.864 1335.58 111.002 1336.63 110.114C1337.69 109.226 1337.83 107.65 1336.94 106.592C1336.05 105.534 1334.48 105.397 1333.42 106.285C1332.36 107.172 1332.23 108.749 1333.11 109.807Z" fill="white" fill-opacity="0.12"/>
<path d="M1340.19 118.233C1341.07 119.29 1342.65 119.428 1343.71 118.54C1344.77 117.652 1344.9 116.076 1344.02 115.018C1343.13 113.961 1341.55 113.823 1340.49 114.711C1339.44 115.598 1339.3 117.175 1340.19 118.233Z" fill="white" fill-opacity="0.12"/>
<path d="M1347.26 126.659C1348.15 127.716 1349.72 127.854 1350.78 126.966C1351.84 126.078 1351.98 124.502 1351.09 123.444C1350.2 122.387 1348.62 122.249 1347.57 123.137C1346.51 124.024 1346.37 125.601 1347.26 126.659Z" fill="white" fill-opacity="0.12"/>
<path d="M1354.33 135.085C1355.22 136.142 1356.8 136.28 1357.85 135.392C1358.91 134.505 1359.05 132.928 1358.16 131.87C1357.27 130.813 1355.7 130.675 1354.64 131.563C1353.58 132.45 1353.44 134.027 1354.33 135.085Z" fill="white" fill-opacity="0.12"/>
<path d="M1268.1 49.4724C1268.99 50.5294 1270.57 50.6674 1271.63 49.7794C1272.68 48.8914 1272.82 47.3154 1271.93 46.2574C1271.04 45.2004 1269.47 45.0624 1268.41 45.9504C1267.35 46.8374 1267.22 48.4144 1268.1 49.4724Z" fill="white" fill-opacity="0.12"/>
<path d="M1275.18 57.8984C1276.06 58.9554 1277.64 59.0935 1278.7 58.2055C1279.76 57.3175 1279.89 55.7414 1279.01 54.6834C1278.12 53.6264 1276.54 53.4884 1275.48 54.3764C1274.43 55.2634 1274.29 56.8404 1275.18 57.8984Z" fill="white" fill-opacity="0.12"/>
<path d="M1282.25 66.3244C1283.14 67.3814 1284.71 67.5194 1285.77 66.6314C1286.83 65.7444 1286.97 64.1674 1286.08 63.1094C1285.19 62.0524 1283.61 61.9144 1282.56 62.8024C1281.5 63.6894 1281.36 65.2664 1282.25 66.3244Z" fill="white" fill-opacity="0.12"/>
<path d="M1289.32 74.7505C1290.21 75.8075 1291.79 75.9455 1292.84 75.0575C1293.9 74.1705 1294.04 72.5935 1293.15 71.5355C1292.26 70.4785 1290.69 70.3405 1289.63 71.2285C1288.57 72.1155 1288.43 73.6925 1289.32 74.7505Z" fill="white" fill-opacity="0.12"/>
<path d="M1296.4 83.1765C1297.28 84.2335 1298.86 84.3715 1299.92 83.4835C1300.97 82.5965 1301.11 81.0195 1300.22 79.9615C1299.34 78.9045 1297.76 78.7665 1296.7 79.6545C1295.65 80.5415 1295.51 82.1185 1296.4 83.1765Z" fill="white" fill-opacity="0.12"/>
<path d="M1303.47 91.6024C1304.36 92.6594 1305.93 92.7974 1306.99 91.9094C1308.05 91.0224 1308.18 89.4454 1307.3 88.3874C1306.41 87.3304 1304.83 87.1924 1303.77 88.0804C1302.72 88.9674 1302.58 90.5444 1303.47 91.6024Z" fill="white" fill-opacity="0.12"/>
<path d="M1310.54 100.028C1311.43 101.085 1313.01 101.223 1314.06 100.335C1315.12 99.4474 1315.26 97.8704 1314.37 96.8134C1313.48 95.7554 1311.91 95.6184 1310.85 96.5054C1309.79 97.3934 1309.65 98.9705 1310.54 100.028Z" fill="white" fill-opacity="0.12"/>
<path d="M1317.61 108.454C1318.5 109.511 1320.08 109.649 1321.14 108.761C1322.19 107.873 1322.33 106.296 1321.44 105.239C1320.56 104.181 1318.98 104.044 1317.92 104.932C1316.86 105.819 1316.73 107.396 1317.61 108.454Z" fill="white" fill-opacity="0.12"/>
<path d="M1324.69 116.88C1325.57 117.937 1327.15 118.075 1328.21 117.187C1329.27 116.299 1329.4 114.723 1328.52 113.665C1327.63 112.607 1326.05 112.47 1324.99 113.358C1323.94 114.245 1323.8 115.822 1324.69 116.88Z" fill="white" fill-opacity="0.12"/>
<path d="M1331.76 125.306C1332.65 126.363 1334.22 126.501 1335.28 125.613C1336.34 124.725 1336.48 123.149 1335.59 122.091C1334.7 121.034 1333.13 120.896 1332.07 121.784C1331.01 122.671 1330.87 124.248 1331.76 125.306Z" fill="white" fill-opacity="0.12"/>
<path d="M1338.83 133.732C1339.72 134.789 1341.3 134.927 1342.36 134.039C1343.41 133.151 1343.55 131.575 1342.66 130.517C1341.78 129.46 1340.2 129.322 1339.14 130.21C1338.08 131.097 1337.95 132.674 1338.83 133.732Z" fill="white" fill-opacity="0.12"/>
<path d="M1345.91 142.158C1346.79 143.215 1348.37 143.353 1349.43 142.465C1350.49 141.578 1350.62 140.001 1349.74 138.943C1348.85 137.886 1347.27 137.748 1346.21 138.636C1345.16 139.523 1345.02 141.1 1345.91 142.158Z" fill="white" fill-opacity="0.12"/>
<path d="M1259.68 56.5454C1260.57 57.6024 1262.14 57.7404 1263.2 56.8524C1264.26 55.9644 1264.39 54.3884 1263.51 53.3304C1262.62 52.2734 1261.04 52.1354 1259.98 53.0234C1258.93 53.9104 1258.79 55.4874 1259.68 56.5454Z" fill="white" fill-opacity="0.12"/>
<path d="M1266.75 64.9714C1267.64 66.0284 1269.22 66.1665 1270.27 65.2785C1271.33 64.3905 1271.47 62.8144 1270.58 61.7564C1269.69 60.6994 1268.12 60.5614 1267.06 61.4494C1266 62.3364 1265.86 63.9134 1266.75 64.9714Z" fill="white" fill-opacity="0.12"/>
<path d="M1273.82 73.3974C1274.71 74.4544 1276.29 74.5924 1277.35 73.7044C1278.4 72.8174 1278.54 71.2404 1277.65 70.1824C1276.77 69.1254 1275.19 68.9874 1274.13 69.8754C1273.07 70.7624 1272.94 72.3394 1273.82 73.3974Z" fill="white" fill-opacity="0.12"/>
<path d="M1280.9 81.8235C1281.78 82.8805 1283.36 83.0185 1284.42 82.1305C1285.48 81.2435 1285.61 79.6665 1284.73 78.6085C1283.84 77.5515 1282.26 77.4135 1281.2 78.3015C1280.15 79.1885 1280.01 80.7655 1280.9 81.8235Z" fill="white" fill-opacity="0.12"/>
<path d="M1287.97 90.2495C1288.86 91.3065 1290.43 91.4445 1291.49 90.5565C1292.55 89.6695 1292.69 88.0925 1291.8 87.0345C1290.91 85.9775 1289.33 85.8395 1288.28 86.7275C1287.22 87.6145 1287.08 89.1915 1287.97 90.2495Z" fill="white" fill-opacity="0.12"/>
<path d="M1295.04 98.6754C1295.93 99.7324 1297.51 99.8704 1298.56 98.9824C1299.62 98.0954 1299.76 96.5184 1298.87 95.4604C1297.98 94.4034 1296.41 94.2654 1295.35 95.1534C1294.29 96.0404 1294.15 97.6174 1295.04 98.6754Z" fill="white" fill-opacity="0.12"/>
<path d="M1302.11 107.101C1303 108.158 1304.58 108.296 1305.64 107.408C1306.69 106.52 1306.83 104.943 1305.94 103.886C1305.06 102.828 1303.48 102.691 1302.42 103.578C1301.36 104.466 1301.23 106.043 1302.11 107.101Z" fill="white" fill-opacity="0.12"/>
<path d="M1309.19 115.527C1310.08 116.584 1311.65 116.722 1312.71 115.834C1313.77 114.946 1313.91 113.369 1313.02 112.312C1312.13 111.254 1310.55 111.117 1309.5 112.005C1308.44 112.892 1308.3 114.469 1309.19 115.527Z" fill="white" fill-opacity="0.12"/>
<path d="M1316.26 123.953C1317.15 125.01 1318.73 125.148 1319.78 124.26C1320.84 123.372 1320.98 121.796 1320.09 120.738C1319.2 119.68 1317.63 119.543 1316.57 120.431C1315.51 121.318 1315.37 122.895 1316.26 123.953Z" fill="white" fill-opacity="0.12"/>
<path d="M1323.33 132.379C1324.22 133.436 1325.8 133.574 1326.86 132.686C1327.91 131.798 1328.05 130.222 1327.16 129.164C1326.28 128.107 1324.7 127.969 1323.64 128.857C1322.58 129.744 1322.45 131.321 1323.33 132.379Z" fill="white" fill-opacity="0.12"/>
<path d="M1330.41 140.805C1331.29 141.862 1332.87 142 1333.93 141.112C1334.99 140.224 1335.12 138.648 1334.24 137.59C1333.35 136.533 1331.77 136.395 1330.71 137.283C1329.66 138.17 1329.52 139.747 1330.41 140.805Z" fill="white" fill-opacity="0.12"/>
<path d="M1337.48 149.231C1338.37 150.288 1339.94 150.426 1341 149.538C1342.06 148.651 1342.2 147.074 1341.31 146.016C1340.42 144.959 1338.85 144.821 1337.79 145.709C1336.73 146.596 1336.59 148.173 1337.48 149.231Z" fill="white" fill-opacity="0.12"/>
<path d="M1251.25 63.6184C1252.14 64.6754 1253.72 64.8134 1254.77 63.9254C1255.83 63.0374 1255.97 61.4614 1255.08 60.4034C1254.19 59.3464 1252.62 59.2084 1251.56 60.0964C1250.5 60.9834 1250.36 62.5604 1251.25 63.6184Z" fill="white" fill-opacity="0.12"/>
<path d="M1258.32 72.0444C1259.21 73.1014 1260.79 73.2394 1261.85 72.3514C1262.9 71.4634 1263.04 69.8874 1262.15 68.8294C1261.27 67.7724 1259.69 67.6344 1258.63 68.5224C1257.57 69.4094 1257.44 70.9864 1258.32 72.0444Z" fill="white" fill-opacity="0.12"/>
<path d="M1265.4 80.4704C1266.28 81.5274 1267.86 81.6654 1268.92 80.7774C1269.98 79.8904 1270.11 78.3134 1269.23 77.2554C1268.34 76.1984 1266.76 76.0604 1265.7 76.9484C1264.65 77.8354 1264.51 79.4124 1265.4 80.4704Z" fill="white" fill-opacity="0.12"/>
<path d="M1272.47 88.8965C1273.36 89.9535 1274.93 90.0915 1275.99 89.2035C1277.05 88.3165 1277.19 86.7395 1276.3 85.6815C1275.41 84.6245 1273.84 84.4865 1272.78 85.3745C1271.72 86.2615 1271.58 87.8385 1272.47 88.8965Z" fill="white" fill-opacity="0.12"/>
<path d="M1279.54 97.3225C1280.43 98.3795 1282.01 98.5175 1283.07 97.6295C1284.12 96.7425 1284.26 95.1655 1283.37 94.1075C1282.49 93.0505 1280.91 92.9125 1279.85 93.8005C1278.79 94.6875 1278.66 96.2645 1279.54 97.3225Z" fill="white" fill-opacity="0.12"/>
<path d="M1286.62 105.748C1287.5 106.805 1289.08 106.943 1290.14 106.055C1291.2 105.168 1291.33 103.592 1290.45 102.534C1289.56 101.477 1287.98 101.339 1286.92 102.227C1285.87 103.114 1285.73 104.69 1286.62 105.748Z" fill="white" fill-opacity="0.12"/>
<path d="M1293.69 114.174C1294.58 115.231 1296.15 115.369 1297.21 114.481C1298.27 113.593 1298.41 112.016 1297.52 110.959C1296.63 109.901 1295.05 109.764 1294 110.651C1292.94 111.539 1292.8 113.116 1293.69 114.174Z" fill="white" fill-opacity="0.12"/>
<path d="M1300.76 122.6C1301.65 123.657 1303.23 123.795 1304.28 122.907C1305.34 122.019 1305.48 120.442 1304.59 119.385C1303.7 118.327 1302.13 118.19 1301.07 119.077C1300.01 119.965 1299.87 121.542 1300.76 122.6Z" fill="white" fill-opacity="0.12"/>
<path d="M1307.83 131.026C1308.72 132.083 1310.3 132.221 1311.36 131.333C1312.41 130.445 1312.55 128.869 1311.66 127.811C1310.78 126.753 1309.2 126.616 1308.14 127.504C1307.08 128.391 1306.95 129.968 1307.83 131.026Z" fill="white" fill-opacity="0.12"/>
<path d="M1314.91 139.452C1315.8 140.509 1317.37 140.647 1318.43 139.759C1319.49 138.871 1319.63 137.295 1318.74 136.237C1317.85 135.18 1316.27 135.042 1315.22 135.93C1314.16 136.817 1314.02 138.394 1314.91 139.452Z" fill="white" fill-opacity="0.12"/>
<path d="M1321.98 147.878C1322.87 148.935 1324.45 149.073 1325.5 148.185C1326.56 147.297 1326.7 145.721 1325.81 144.663C1324.92 143.606 1323.35 143.468 1322.29 144.356C1321.23 145.243 1321.09 146.82 1321.98 147.878Z" fill="white" fill-opacity="0.12"/>
<path d="M1329.05 156.304C1329.94 157.361 1331.52 157.499 1332.58 156.611C1333.63 155.724 1333.77 154.147 1332.88 153.089C1332 152.032 1330.42 151.894 1329.36 152.782C1328.3 153.669 1328.17 155.246 1329.05 156.304Z" fill="white" fill-opacity="0.12"/>
<path d="M1242.82 70.6914C1243.71 71.7484 1245.29 71.8864 1246.35 70.9984C1247.4 70.1104 1247.54 68.5344 1246.65 67.4764C1245.77 66.4194 1244.19 66.2814 1243.13 67.1694C1242.07 68.0564 1241.94 69.6334 1242.82 70.6914Z" fill="white" fill-opacity="0.12"/>
<path d="M1249.9 79.1174C1250.79 80.1744 1252.36 80.3124 1253.42 79.4244C1254.48 78.5364 1254.62 76.9604 1253.73 75.9024C1252.84 74.8454 1251.26 74.7074 1250.21 75.5954C1249.15 76.4824 1249.01 78.0594 1249.9 79.1174Z" fill="white" fill-opacity="0.12"/>
<path d="M1256.97 87.5434C1257.86 88.6004 1259.43 88.7384 1260.49 87.8504C1261.55 86.9634 1261.69 85.3864 1260.8 84.3284C1259.91 83.2714 1258.34 83.1334 1257.28 84.0214C1256.22 84.9084 1256.08 86.4854 1256.97 87.5434Z" fill="white" fill-opacity="0.12"/>
<path d="M1264.04 95.9695C1264.93 97.0265 1266.51 97.1645 1267.57 96.2765C1268.62 95.3895 1268.76 93.8125 1267.87 92.7545C1266.99 91.6975 1265.41 91.5595 1264.35 92.4475C1263.29 93.3345 1263.16 94.9115 1264.04 95.9695Z" fill="white" fill-opacity="0.12"/>
<path d="M1271.12 104.396C1272 105.453 1273.58 105.59 1274.64 104.702C1275.7 103.815 1275.83 102.238 1274.95 101.18C1274.06 100.123 1272.48 99.9855 1271.42 100.873C1270.37 101.76 1270.23 103.338 1271.12 104.396Z" fill="white" fill-opacity="0.12"/>
<path d="M1278.19 112.821C1279.08 113.878 1280.65 114.016 1281.71 113.128C1282.77 112.241 1282.91 110.665 1282.02 109.607C1281.13 108.55 1279.55 108.412 1278.5 109.3C1277.44 110.187 1277.3 111.763 1278.19 112.821Z" fill="white" fill-opacity="0.12"/>
<path d="M1285.26 121.247C1286.15 122.304 1287.73 122.442 1288.79 121.554C1289.84 120.666 1289.98 119.089 1289.09 118.032C1288.21 116.974 1286.63 116.837 1285.57 117.724C1284.51 118.612 1284.38 120.189 1285.26 121.247Z" fill="white" fill-opacity="0.12"/>
<path d="M1292.34 129.673C1293.22 130.73 1294.8 130.868 1295.86 129.98C1296.92 129.092 1297.05 127.515 1296.17 126.458C1295.28 125.4 1293.7 125.263 1292.64 126.15C1291.59 127.038 1291.45 128.615 1292.34 129.673Z" fill="white" fill-opacity="0.12"/>
<path d="M1299.41 138.099C1300.3 139.156 1301.87 139.294 1302.93 138.406C1303.99 137.518 1304.13 135.942 1303.24 134.884C1302.35 133.826 1300.77 133.689 1299.72 134.577C1298.66 135.464 1298.52 137.041 1299.41 138.099Z" fill="white" fill-opacity="0.12"/>
<path d="M1306.48 146.525C1307.37 147.582 1308.95 147.72 1310 146.832C1311.06 145.944 1311.2 144.368 1310.31 143.31C1309.42 142.252 1307.85 142.115 1306.79 143.003C1305.73 143.89 1305.59 145.467 1306.48 146.525Z" fill="white" fill-opacity="0.12"/>
<path d="M1313.56 154.951C1314.44 156.008 1316.02 156.146 1317.08 155.258C1318.13 154.37 1318.27 152.794 1317.38 151.736C1316.5 150.679 1314.92 150.541 1313.86 151.429C1312.81 152.316 1312.67 153.893 1313.56 154.951Z" fill="white" fill-opacity="0.12"/>
<path d="M1234.4 77.7644C1235.29 78.8214 1236.86 78.9594 1237.92 78.0714C1238.98 77.1834 1239.12 75.6074 1238.23 74.5494C1237.34 73.4924 1235.76 73.3544 1234.71 74.2424C1233.65 75.1294 1233.51 76.7064 1234.4 77.7644Z" fill="white" fill-opacity="0.12"/>
<path d="M1241.47 86.1904C1242.36 87.2474 1243.94 87.3854 1244.99 86.4974C1246.05 85.6094 1246.19 84.0334 1245.3 82.9754C1244.41 81.9184 1242.84 81.7804 1241.78 82.6684C1240.72 83.5554 1240.58 85.1324 1241.47 86.1904Z" fill="white" fill-opacity="0.12"/>
<path d="M1248.55 94.6164C1249.43 95.6734 1251.01 95.8114 1252.07 94.9234C1253.13 94.0364 1253.26 92.4594 1252.38 91.4014C1251.49 90.3444 1249.91 90.2064 1248.85 91.0944C1247.8 91.9814 1247.66 93.5584 1248.55 94.6164Z" fill="white" fill-opacity="0.12"/>
<path d="M1255.62 103.042C1256.51 104.099 1258.08 104.237 1259.14 103.349C1260.2 102.462 1260.34 100.885 1259.45 99.8274C1258.56 98.7704 1256.98 98.6325 1255.93 99.5205C1254.87 100.407 1254.73 101.984 1255.62 103.042Z" fill="white" fill-opacity="0.12"/>
<path d="M1262.69 111.469C1263.58 112.526 1265.16 112.663 1266.21 111.775C1267.27 110.888 1267.41 109.311 1266.52 108.253C1265.63 107.196 1264.06 107.058 1263 107.946C1261.94 108.833 1261.8 110.411 1262.69 111.469Z" fill="white" fill-opacity="0.12"/>
<path d="M1269.76 119.894C1270.65 120.951 1272.23 121.089 1273.29 120.201C1274.34 119.314 1274.48 117.738 1273.59 116.68C1272.71 115.623 1271.13 115.485 1270.07 116.373C1269.01 117.26 1268.88 118.836 1269.76 119.894Z" fill="white" fill-opacity="0.12"/>
<path d="M1276.84 128.32C1277.72 129.377 1279.3 129.515 1280.36 128.627C1281.42 127.739 1281.55 126.162 1280.67 125.105C1279.78 124.047 1278.2 123.91 1277.14 124.797C1276.09 125.685 1275.95 127.262 1276.84 128.32Z" fill="white" fill-opacity="0.12"/>
<path d="M1283.91 136.746C1284.8 137.803 1286.37 137.941 1287.43 137.053C1288.49 136.165 1288.63 134.588 1287.74 133.531C1286.85 132.473 1285.27 132.336 1284.22 133.223C1283.16 134.111 1283.02 135.688 1283.91 136.746Z" fill="white" fill-opacity="0.12"/>
<path d="M1290.98 145.172C1291.87 146.229 1293.45 146.367 1294.5 145.479C1295.56 144.591 1295.7 143.015 1294.81 141.957C1293.92 140.899 1292.35 140.762 1291.29 141.65C1290.23 142.537 1290.09 144.114 1290.98 145.172Z" fill="white" fill-opacity="0.12"/>
<path d="M1298.06 153.598C1298.94 154.655 1300.52 154.793 1301.58 153.905C1302.64 153.017 1302.77 151.441 1301.89 150.383C1301 149.325 1299.42 149.188 1298.36 150.076C1297.31 150.963 1297.17 152.54 1298.06 153.598Z" fill="white" fill-opacity="0.12"/>
<path d="M1305.13 162.024C1306.02 163.081 1307.59 163.219 1308.65 162.331C1309.71 161.443 1309.85 159.867 1308.96 158.809C1308.07 157.752 1306.49 157.614 1305.44 158.502C1304.38 159.389 1304.24 160.966 1305.13 162.024Z" fill="white" fill-opacity="0.12"/>
<path d="M1225.97 84.8374C1226.86 85.8944 1228.44 86.0324 1229.5 85.1444C1230.55 84.2564 1230.69 82.6804 1229.8 81.6224C1228.92 80.5654 1227.34 80.4274 1226.28 81.3154C1225.22 82.2024 1225.09 83.7794 1225.97 84.8374Z" fill="white" fill-opacity="0.12"/>
<path d="M1233.05 93.2634C1233.93 94.3204 1235.51 94.4584 1236.57 93.5704C1237.63 92.6824 1237.76 91.1064 1236.88 90.0484C1235.99 88.9914 1234.41 88.8534 1233.35 89.7414C1232.3 90.6284 1232.16 92.2054 1233.05 93.2634Z" fill="white" fill-opacity="0.12"/>
<path d="M1240.12 101.689C1241.01 102.746 1242.58 102.884 1243.64 101.996C1244.7 101.109 1244.84 99.5324 1243.95 98.4744C1243.06 97.4174 1241.48 97.2794 1240.43 98.1674C1239.37 99.0544 1239.23 100.631 1240.12 101.689Z" fill="white" fill-opacity="0.12"/>
<path d="M1247.19 110.115C1248.08 111.172 1249.66 111.31 1250.71 110.422C1251.77 109.535 1251.91 107.958 1251.02 106.9C1250.13 105.843 1248.56 105.705 1247.5 106.593C1246.44 107.48 1246.3 109.057 1247.19 110.115Z" fill="white" fill-opacity="0.12"/>
<path d="M1254.27 118.542C1255.15 119.599 1256.73 119.736 1257.79 118.848C1258.84 117.961 1258.98 116.384 1258.09 115.326C1257.21 114.269 1255.63 114.131 1254.57 115.019C1253.52 115.906 1253.38 117.484 1254.27 118.542Z" fill="white" fill-opacity="0.12"/>
<path d="M1261.34 126.967C1262.23 128.024 1263.8 128.162 1264.86 127.274C1265.92 126.387 1266.05 124.811 1265.17 123.753C1264.28 122.696 1262.7 122.558 1261.64 123.446C1260.59 124.333 1260.45 125.909 1261.34 126.967Z" fill="white" fill-opacity="0.12"/>
<path d="M1268.41 135.393C1269.3 136.45 1270.88 136.588 1271.93 135.7C1272.99 134.812 1273.13 133.235 1272.24 132.178C1271.35 131.12 1269.78 130.983 1268.72 131.87C1267.66 132.758 1267.52 134.335 1268.41 135.393Z" fill="white" fill-opacity="0.12"/>
<path d="M1275.48 143.819C1276.37 144.876 1277.95 145.014 1279.01 144.126C1280.06 143.238 1280.2 141.661 1279.31 140.604C1278.43 139.546 1276.85 139.409 1275.79 140.296C1274.73 141.184 1274.6 142.761 1275.48 143.819Z" fill="white" fill-opacity="0.12"/>
<path d="M1282.56 152.245C1283.44 153.302 1285.02 153.44 1286.08 152.552C1287.14 151.664 1287.27 150.088 1286.39 149.03C1285.5 147.972 1283.92 147.835 1282.86 148.723C1281.81 149.61 1281.67 151.187 1282.56 152.245Z" fill="white" fill-opacity="0.12"/>
<path d="M1289.63 160.671C1290.52 161.728 1292.1 161.866 1293.15 160.978C1294.21 160.09 1294.35 158.514 1293.46 157.456C1292.57 156.398 1291 156.261 1289.94 157.149C1288.88 158.036 1288.74 159.613 1289.63 160.671Z" fill="white" fill-opacity="0.12"/>
<path d="M1217.55 91.9103C1218.44 92.9673 1220.01 93.1054 1221.07 92.2174C1222.13 91.3294 1222.26 89.7534 1221.38 88.6954C1220.49 87.6384 1218.91 87.5004 1217.85 88.3884C1216.8 89.2754 1216.66 90.8523 1217.55 91.9103Z" fill="white" fill-opacity="0.12"/>
<path d="M1224.62 100.336C1225.51 101.393 1227.09 101.531 1228.14 100.643C1229.2 99.7554 1229.34 98.1794 1228.45 97.1214C1227.56 96.0644 1225.99 95.9264 1224.93 96.8144C1223.87 97.7014 1223.73 99.2784 1224.62 100.336Z" fill="white" fill-opacity="0.12"/>
<path d="M1231.69 108.762C1232.58 109.819 1234.16 109.957 1235.22 109.069C1236.27 108.182 1236.41 106.605 1235.52 105.547C1234.64 104.49 1233.06 104.352 1232 105.24C1230.94 106.127 1230.81 107.704 1231.69 108.762Z" fill="white" fill-opacity="0.12"/>
<path d="M1238.77 117.188C1239.65 118.245 1241.23 118.383 1242.29 117.495C1243.35 116.608 1243.48 115.031 1242.6 113.973C1241.71 112.916 1240.13 112.778 1239.07 113.666C1238.02 114.553 1237.88 116.13 1238.77 117.188Z" fill="white" fill-opacity="0.12"/>
<path d="M1245.84 125.615C1246.73 126.672 1248.3 126.809 1249.36 125.921C1250.42 125.034 1250.56 123.457 1249.67 122.399C1248.78 121.342 1247.2 121.204 1246.15 122.092C1245.09 122.979 1244.95 124.557 1245.84 125.615Z" fill="white" fill-opacity="0.12"/>
<path d="M1252.91 134.04C1253.8 135.097 1255.38 135.235 1256.43 134.347C1257.49 133.46 1257.63 131.884 1256.74 130.826C1255.85 129.769 1254.28 129.631 1253.22 130.519C1252.16 131.406 1252.02 132.982 1252.91 134.04Z" fill="white" fill-opacity="0.12"/>
<path d="M1259.98 142.466C1260.87 143.523 1262.45 143.661 1263.51 142.773C1264.56 141.885 1264.7 140.308 1263.81 139.251C1262.93 138.193 1261.35 138.056 1260.29 138.943C1259.23 139.831 1259.1 141.408 1259.98 142.466Z" fill="white" fill-opacity="0.12"/>
<path d="M1267.06 150.892C1267.95 151.949 1269.52 152.087 1270.58 151.199C1271.64 150.311 1271.78 148.734 1270.89 147.677C1270 146.619 1268.42 146.482 1267.37 147.369C1266.31 148.257 1266.17 149.834 1267.06 150.892Z" fill="white" fill-opacity="0.12"/>
<path d="M1274.13 159.318C1275.02 160.375 1276.6 160.513 1277.65 159.625C1278.71 158.737 1278.85 157.161 1277.96 156.103C1277.07 155.045 1275.5 154.908 1274.44 155.796C1273.38 156.683 1273.24 158.26 1274.13 159.318Z" fill="white" fill-opacity="0.12"/>
<path d="M1221.85 147.824L1209 145.107" stroke="white" stroke-opacity="0.12" stroke-width="2" stroke-linecap="round"/>
<path d="M1216.85 140L1214.13 152.848" stroke="white" stroke-opacity="0.12" stroke-width="2" stroke-linecap="round"/>
<path d="M104.5 41C103.119 41 102 39.881 102 38.5C102 37.12 103.119 36 104.5 36C105.881 36 107 37.12 107 38.5C107 39.881 105.881 41 104.5 41Z" fill="white" fill-opacity="0.12"/>
<path d="M93.5 41C92.1193 41 91 39.881 91 38.5C91 37.12 92.1193 36 93.5 36C94.8807 36 96 37.12 96 38.5C96 39.881 94.8807 41 93.5 41Z" fill="white" fill-opacity="0.12"/>
<path d="M82.5 41C81.1193 41 80 39.881 80 38.5C80 37.12 81.1193 36 82.5 36C83.8807 36 85 37.12 85 38.5C85 39.881 83.8807 41 82.5 41Z" fill="white" fill-opacity="0.12"/>
<path d="M70.5 41C69.1193 41 68 39.881 68 38.5C68 37.12 69.1193 36 70.5 36C71.8807 36 73 37.12 73 38.5C73 39.881 71.8807 41 70.5 41Z" fill="white" fill-opacity="0.12"/>
<path d="M59.5 41C58.1193 41 57 39.881 57 38.5C57 37.12 58.1193 36 59.5 36C60.8807 36 62 37.12 62 38.5C62 39.881 60.8807 41 59.5 41Z" fill="white" fill-opacity="0.12"/>
<path d="M48.5 41C47.1193 41 46 39.881 46 38.5C46 37.12 47.1193 36 48.5 36C49.8807 36 51 37.12 51 38.5C51 39.881 49.8807 41 48.5 41Z" fill="white" fill-opacity="0.12"/>
<path d="M36.5 41C35.1193 41 34 39.881 34 38.5C34 37.12 35.1193 36 36.5 36C37.8807 36 39 37.12 39 38.5C39 39.881 37.8807 41 36.5 41Z" fill="white" fill-opacity="0.12"/>
<path d="M25.5 41C24.1193 41 23 39.881 23 38.5C23 37.12 24.1193 36 25.5 36C26.8807 36 28 37.12 28 38.5C28 39.881 26.8807 41 25.5 41Z" fill="white" fill-opacity="0.12"/>
<path d="M14.5 41C13.1193 41 12 39.881 12 38.5C12 37.12 13.1193 36 14.5 36C15.8807 36 17 37.12 17 38.5C17 39.881 15.8807 41 14.5 41Z" fill="white" fill-opacity="0.12"/>
<path d="M2.5 41C1.11929 41 0 39.881 0 38.5C0 37.12 1.11929 36 2.5 36C3.88071 36 5 37.12 5 38.5C5 39.881 3.88071 41 2.5 41Z" fill="white" fill-opacity="0.12"/>
<path d="M104.5 52C103.119 52 102 50.881 102 49.5C102 48.12 103.119 47 104.5 47C105.881 47 107 48.12 107 49.5C107 50.881 105.881 52 104.5 52Z" fill="white" fill-opacity="0.12"/>
<path d="M93.5 52C92.1193 52 91 50.881 91 49.5C91 48.12 92.1193 47 93.5 47C94.8807 47 96 48.12 96 49.5C96 50.881 94.8807 52 93.5 52Z" fill="white" fill-opacity="0.12"/>
<path d="M82.5 52C81.1193 52 80 50.881 80 49.5C80 48.12 81.1193 47 82.5 47C83.8807 47 85 48.12 85 49.5C85 50.881 83.8807 52 82.5 52Z" fill="white" fill-opacity="0.12"/>
<path d="M70.5 52C69.1193 52 68 50.881 68 49.5C68 48.12 69.1193 47 70.5 47C71.8807 47 73 48.12 73 49.5C73 50.881 71.8807 52 70.5 52Z" fill="white" fill-opacity="0.12"/>
<path d="M59.5 52C58.1193 52 57 50.881 57 49.5C57 48.12 58.1193 47 59.5 47C60.8807 47 62 48.12 62 49.5C62 50.881 60.8807 52 59.5 52Z" fill="white" fill-opacity="0.12"/>
<path d="M48.5 52C47.1193 52 46 50.881 46 49.5C46 48.12 47.1193 47 48.5 47C49.8807 47 51 48.12 51 49.5C51 50.881 49.8807 52 48.5 52Z" fill="white" fill-opacity="0.12"/>
<path d="M36.5 52C35.1193 52 34 50.881 34 49.5C34 48.12 35.1193 47 36.5 47C37.8807 47 39 48.12 39 49.5C39 50.881 37.8807 52 36.5 52Z" fill="white" fill-opacity="0.12"/>
<path d="M25.5 52C24.1193 52 23 50.881 23 49.5C23 48.12 24.1193 47 25.5 47C26.8807 47 28 48.12 28 49.5C28 50.881 26.8807 52 25.5 52Z" fill="white" fill-opacity="0.12"/>
<path d="M14.5 52C13.1193 52 12 50.881 12 49.5C12 48.12 13.1193 47 14.5 47C15.8807 47 17 48.12 17 49.5C17 50.881 15.8807 52 14.5 52Z" fill="white" fill-opacity="0.12"/>
<path d="M2.5 52C1.11929 52 0 50.881 0 49.5C0 48.12 1.11929 47 2.5 47C3.88071 47 5 48.12 5 49.5C5 50.881 3.88071 52 2.5 52Z" fill="white" fill-opacity="0.12"/>
<path d="M104.5 63C103.119 63 102 61.881 102 60.5C102 59.12 103.119 58 104.5 58C105.881 58 107 59.12 107 60.5C107 61.881 105.881 63 104.5 63Z" fill="white" fill-opacity="0.12"/>
<path d="M93.5 63C92.1193 63 91 61.881 91 60.5C91 59.12 92.1193 58 93.5 58C94.8807 58 96 59.12 96 60.5C96 61.881 94.8807 63 93.5 63Z" fill="white" fill-opacity="0.12"/>
<path d="M82.5 63C81.1193 63 80 61.881 80 60.5C80 59.12 81.1193 58 82.5 58C83.8807 58 85 59.12 85 60.5C85 61.881 83.8807 63 82.5 63Z" fill="white" fill-opacity="0.12"/>
<path d="M70.5 63C69.1193 63 68 61.881 68 60.5C68 59.12 69.1193 58 70.5 58C71.8807 58 73 59.12 73 60.5C73 61.881 71.8807 63 70.5 63Z" fill="white" fill-opacity="0.12"/>
<path d="M59.5 63C58.1193 63 57 61.881 57 60.5C57 59.12 58.1193 58 59.5 58C60.8807 58 62 59.12 62 60.5C62 61.881 60.8807 63 59.5 63Z" fill="white" fill-opacity="0.12"/>
<path d="M48.5 63C47.1193 63 46 61.881 46 60.5C46 59.12 47.1193 58 48.5 58C49.8807 58 51 59.12 51 60.5C51 61.881 49.8807 63 48.5 63Z" fill="white" fill-opacity="0.12"/>
<path d="M36.5 63C35.1193 63 34 61.881 34 60.5C34 59.12 35.1193 58 36.5 58C37.8807 58 39 59.12 39 60.5C39 61.881 37.8807 63 36.5 63Z" fill="white" fill-opacity="0.12"/>
<path d="M25.5 63C24.1193 63 23 61.881 23 60.5C23 59.12 24.1193 58 25.5 58C26.8807 58 28 59.12 28 60.5C28 61.881 26.8807 63 25.5 63Z" fill="white" fill-opacity="0.12"/>
<path d="M14.5 63C13.1193 63 12 61.881 12 60.5C12 59.12 13.1193 58 14.5 58C15.8807 58 17 59.12 17 60.5C17 61.881 15.8807 63 14.5 63Z" fill="white" fill-opacity="0.12"/>
<path d="M2.5 63C1.11929 63 0 61.881 0 60.5C0 59.12 1.11929 58 2.5 58C3.88071 58 5 59.12 5 60.5C5 61.881 3.88071 63 2.5 63Z" fill="white" fill-opacity="0.12"/>
<path d="M104.5 74C103.119 74 102 72.881 102 71.5C102 70.12 103.119 69 104.5 69C105.881 69 107 70.12 107 71.5C107 72.881 105.881 74 104.5 74Z" fill="white" fill-opacity="0.12"/>
<path d="M93.5 74C92.1193 74 91 72.881 91 71.5C91 70.12 92.1193 69 93.5 69C94.8807 69 96 70.12 96 71.5C96 72.881 94.8807 74 93.5 74Z" fill="white" fill-opacity="0.12"/>
<path d="M82.5 74C81.1193 74 80 72.881 80 71.5C80 70.12 81.1193 69 82.5 69C83.8807 69 85 70.12 85 71.5C85 72.881 83.8807 74 82.5 74Z" fill="white" fill-opacity="0.12"/>
<path d="M70.5 74C69.1193 74 68 72.881 68 71.5C68 70.12 69.1193 69 70.5 69C71.8807 69 73 70.12 73 71.5C73 72.881 71.8807 74 70.5 74Z" fill="white" fill-opacity="0.12"/>
<path d="M59.5 74C58.1193 74 57 72.881 57 71.5C57 70.12 58.1193 69 59.5 69C60.8807 69 62 70.12 62 71.5C62 72.881 60.8807 74 59.5 74Z" fill="white" fill-opacity="0.12"/>
<path d="M48.5 74C47.1193 74 46 72.881 46 71.5C46 70.12 47.1193 69 48.5 69C49.8807 69 51 70.12 51 71.5C51 72.881 49.8807 74 48.5 74Z" fill="white" fill-opacity="0.12"/>
<path d="M36.5 74C35.1193 74 34 72.881 34 71.5C34 70.12 35.1193 69 36.5 69C37.8807 69 39 70.12 39 71.5C39 72.881 37.8807 74 36.5 74Z" fill="white" fill-opacity="0.12"/>
<path d="M25.5 74C24.1193 74 23 72.881 23 71.5C23 70.12 24.1193 69 25.5 69C26.8807 69 28 70.12 28 71.5C28 72.881 26.8807 74 25.5 74Z" fill="white" fill-opacity="0.12"/>
<path d="M14.5 74C13.1193 74 12 72.881 12 71.5C12 70.12 13.1193 69 14.5 69C15.8807 69 17 70.12 17 71.5C17 72.881 15.8807 74 14.5 74Z" fill="white" fill-opacity="0.12"/>
<path d="M2.5 74C1.11929 74 0 72.881 0 71.5C0 70.12 1.11929 69 2.5 69C3.88071 69 5 70.12 5 71.5C5 72.881 3.88071 74 2.5 74Z" fill="white" fill-opacity="0.12"/>
<path d="M104.5 85C103.119 85 102 83.881 102 82.5C102 81.12 103.119 80 104.5 80C105.881 80 107 81.12 107 82.5C107 83.881 105.881 85 104.5 85Z" fill="white" fill-opacity="0.12"/>
<path d="M93.5 85C92.1193 85 91 83.881 91 82.5C91 81.12 92.1193 80 93.5 80C94.8807 80 96 81.12 96 82.5C96 83.881 94.8807 85 93.5 85Z" fill="white" fill-opacity="0.12"/>
<path d="M82.5 85C81.1193 85 80 83.881 80 82.5C80 81.12 81.1193 80 82.5 80C83.8807 80 85 81.12 85 82.5C85 83.881 83.8807 85 82.5 85Z" fill="white" fill-opacity="0.12"/>
<path d="M70.5 85C69.1193 85 68 83.881 68 82.5C68 81.12 69.1193 80 70.5 80C71.8807 80 73 81.12 73 82.5C73 83.881 71.8807 85 70.5 85Z" fill="white" fill-opacity="0.12"/>
<path d="M59.5 85C58.1193 85 57 83.881 57 82.5C57 81.12 58.1193 80 59.5 80C60.8807 80 62 81.12 62 82.5C62 83.881 60.8807 85 59.5 85Z" fill="white" fill-opacity="0.12"/>
<path d="M48.5 85C47.1193 85 46 83.881 46 82.5C46 81.12 47.1193 80 48.5 80C49.8807 80 51 81.12 51 82.5C51 83.881 49.8807 85 48.5 85Z" fill="white" fill-opacity="0.12"/>
<path d="M36.5 85C35.1193 85 34 83.881 34 82.5C34 81.12 35.1193 80 36.5 80C37.8807 80 39 81.12 39 82.5C39 83.881 37.8807 85 36.5 85Z" fill="white" fill-opacity="0.12"/>
<path d="M25.5 85C24.1193 85 23 83.881 23 82.5C23 81.12 24.1193 80 25.5 80C26.8807 80 28 81.12 28 82.5C28 83.881 26.8807 85 25.5 85Z" fill="white" fill-opacity="0.12"/>
<path d="M14.5 85C13.1193 85 12 83.881 12 82.5C12 81.12 13.1193 80 14.5 80C15.8807 80 17 81.12 17 82.5C17 83.881 15.8807 85 14.5 85Z" fill="white" fill-opacity="0.12"/>
<path d="M2.5 85C1.11929 85 0 83.881 0 82.5C0 81.12 1.11929 80 2.5 80C3.88071 80 5 81.12 5 82.5C5 83.881 3.88071 85 2.5 85Z" fill="white" fill-opacity="0.12"/>
<path d="M104.5 96C103.119 96 102 94.881 102 93.5C102 92.12 103.119 91 104.5 91C105.881 91 107 92.12 107 93.5C107 94.881 105.881 96 104.5 96Z" fill="white" fill-opacity="0.12"/>
<path d="M93.5 96C92.1193 96 91 94.881 91 93.5C91 92.12 92.1193 91 93.5 91C94.8807 91 96 92.12 96 93.5C96 94.881 94.8807 96 93.5 96Z" fill="white" fill-opacity="0.12"/>
<path d="M82.5 96C81.1193 96 80 94.881 80 93.5C80 92.12 81.1193 91 82.5 91C83.8807 91 85 92.12 85 93.5C85 94.881 83.8807 96 82.5 96Z" fill="white" fill-opacity="0.12"/>
<path d="M70.5 96C69.1193 96 68 94.881 68 93.5C68 92.12 69.1193 91 70.5 91C71.8807 91 73 92.12 73 93.5C73 94.881 71.8807 96 70.5 96Z" fill="white" fill-opacity="0.12"/>
<path d="M59.5 96C58.1193 96 57 94.881 57 93.5C57 92.12 58.1193 91 59.5 91C60.8807 91 62 92.12 62 93.5C62 94.881 60.8807 96 59.5 96Z" fill="white" fill-opacity="0.12"/>
<path d="M48.5 96C47.1193 96 46 94.881 46 93.5C46 92.12 47.1193 91 48.5 91C49.8807 91 51 92.12 51 93.5C51 94.881 49.8807 96 48.5 96Z" fill="white" fill-opacity="0.12"/>
<path d="M36.5 96C35.1193 96 34 94.881 34 93.5C34 92.12 35.1193 91 36.5 91C37.8807 91 39 92.12 39 93.5C39 94.881 37.8807 96 36.5 96Z" fill="white" fill-opacity="0.12"/>
<path d="M25.5 96C24.1193 96 23 94.881 23 93.5C23 92.12 24.1193 91 25.5 91C26.8807 91 28 92.12 28 93.5C28 94.881 26.8807 96 25.5 96Z" fill="white" fill-opacity="0.12"/>
<path d="M14.5 96C13.1193 96 12 94.881 12 93.5C12 92.12 13.1193 91 14.5 91C15.8807 91 17 92.12 17 93.5C17 94.881 15.8807 96 14.5 96Z" fill="white" fill-opacity="0.12"/>
<path d="M2.5 96C1.11929 96 0 94.881 0 93.5C0 92.12 1.11929 91 2.5 91C3.88071 91 5 92.12 5 93.5C5 94.881 3.88071 96 2.5 96Z" fill="white" fill-opacity="0.12"/>
<path d="M104.5 107C103.119 107 102 105.881 102 104.5C102 103.12 103.119 102 104.5 102C105.881 102 107 103.12 107 104.5C107 105.881 105.881 107 104.5 107Z" fill="white" fill-opacity="0.12"/>
<path d="M93.5 107C92.1193 107 91 105.881 91 104.5C91 103.12 92.1193 102 93.5 102C94.8807 102 96 103.12 96 104.5C96 105.881 94.8807 107 93.5 107Z" fill="white" fill-opacity="0.12"/>
<path d="M82.5 107C81.1193 107 80 105.881 80 104.5C80 103.12 81.1193 102 82.5 102C83.8807 102 85 103.12 85 104.5C85 105.881 83.8807 107 82.5 107Z" fill="white" fill-opacity="0.12"/>
<path d="M70.5 107C69.1193 107 68 105.881 68 104.5C68 103.12 69.1193 102 70.5 102C71.8807 102 73 103.12 73 104.5C73 105.881 71.8807 107 70.5 107Z" fill="white" fill-opacity="0.12"/>
<path d="M59.5 107C58.1193 107 57 105.881 57 104.5C57 103.12 58.1193 102 59.5 102C60.8807 102 62 103.12 62 104.5C62 105.881 60.8807 107 59.5 107Z" fill="white" fill-opacity="0.12"/>
<path d="M48.5 107C47.1193 107 46 105.881 46 104.5C46 103.12 47.1193 102 48.5 102C49.8807 102 51 103.12 51 104.5C51 105.881 49.8807 107 48.5 107Z" fill="white" fill-opacity="0.12"/>
<path d="M36.5 107C35.1193 107 34 105.881 34 104.5C34 103.12 35.1193 102 36.5 102C37.8807 102 39 103.12 39 104.5C39 105.881 37.8807 107 36.5 107Z" fill="white" fill-opacity="0.12"/>
<path d="M25.5 107C24.1193 107 23 105.881 23 104.5C23 103.12 24.1193 102 25.5 102C26.8807 102 28 103.12 28 104.5C28 105.881 26.8807 107 25.5 107Z" fill="white" fill-opacity="0.12"/>
<path d="M14.5 107C13.1193 107 12 105.881 12 104.5C12 103.12 13.1193 102 14.5 102C15.8807 102 17 103.12 17 104.5C17 105.881 15.8807 107 14.5 107Z" fill="white" fill-opacity="0.12"/>
<path d="M2.5 107C1.11929 107 0 105.881 0 104.5C0 103.12 1.11929 102 2.5 102C3.88071 102 5 103.12 5 104.5C5 105.881 3.88071 107 2.5 107Z" fill="white" fill-opacity="0.12"/>
<path d="M104.5 118C103.119 118 102 116.881 102 115.5C102 114.12 103.119 113 104.5 113C105.881 113 107 114.12 107 115.5C107 116.881 105.881 118 104.5 118Z" fill="white" fill-opacity="0.12"/>
<path d="M93.5 118C92.1193 118 91 116.881 91 115.5C91 114.12 92.1193 113 93.5 113C94.8807 113 96 114.12 96 115.5C96 116.881 94.8807 118 93.5 118Z" fill="white" fill-opacity="0.12"/>
<path d="M82.5 118C81.1193 118 80 116.881 80 115.5C80 114.12 81.1193 113 82.5 113C83.8807 113 85 114.12 85 115.5C85 116.881 83.8807 118 82.5 118Z" fill="white" fill-opacity="0.12"/>
<path d="M70.5 118C69.1193 118 68 116.881 68 115.5C68 114.12 69.1193 113 70.5 113C71.8807 113 73 114.12 73 115.5C73 116.881 71.8807 118 70.5 118Z" fill="white" fill-opacity="0.12"/>
<path d="M59.5 118C58.1193 118 57 116.881 57 115.5C57 114.12 58.1193 113 59.5 113C60.8807 113 62 114.12 62 115.5C62 116.881 60.8807 118 59.5 118Z" fill="white" fill-opacity="0.12"/>
<path d="M48.5 118C47.1193 118 46 116.881 46 115.5C46 114.12 47.1193 113 48.5 113C49.8807 113 51 114.12 51 115.5C51 116.881 49.8807 118 48.5 118Z" fill="white" fill-opacity="0.12"/>
<path d="M36.5 118C35.1193 118 34 116.881 34 115.5C34 114.12 35.1193 113 36.5 113C37.8807 113 39 114.12 39 115.5C39 116.881 37.8807 118 36.5 118Z" fill="white" fill-opacity="0.12"/>
<path d="M25.5 118C24.1193 118 23 116.881 23 115.5C23 114.12 24.1193 113 25.5 113C26.8807 113 28 114.12 28 115.5C28 116.881 26.8807 118 25.5 118Z" fill="white" fill-opacity="0.12"/>
<path d="M14.5 118C13.1193 118 12 116.881 12 115.5C12 114.12 13.1193 113 14.5 113C15.8807 113 17 114.12 17 115.5C17 116.881 15.8807 118 14.5 118Z" fill="white" fill-opacity="0.12"/>
<path d="M2.5 118C1.11929 118 0 116.881 0 115.5C0 114.12 1.11929 113 2.5 113C3.88071 113 5 114.12 5 115.5C5 116.881 3.88071 118 2.5 118Z" fill="white" fill-opacity="0.12"/>
<path d="M104.5 129C103.119 129 102 127.881 102 126.5C102 125.12 103.119 124 104.5 124C105.881 124 107 125.12 107 126.5C107 127.881 105.881 129 104.5 129Z" fill="white" fill-opacity="0.12"/>
<path d="M93.5 129C92.1193 129 91 127.881 91 126.5C91 125.12 92.1193 124 93.5 124C94.8807 124 96 125.12 96 126.5C96 127.881 94.8807 129 93.5 129Z" fill="white" fill-opacity="0.12"/>
<path d="M82.5 129C81.1193 129 80 127.881 80 126.5C80 125.12 81.1193 124 82.5 124C83.8807 124 85 125.12 85 126.5C85 127.881 83.8807 129 82.5 129Z" fill="white" fill-opacity="0.12"/>
<path d="M70.5 129C69.1193 129 68 127.881 68 126.5C68 125.12 69.1193 124 70.5 124C71.8807 124 73 125.12 73 126.5C73 127.881 71.8807 129 70.5 129Z" fill="white" fill-opacity="0.12"/>
<path d="M59.5 129C58.1193 129 57 127.881 57 126.5C57 125.12 58.1193 124 59.5 124C60.8807 124 62 125.12 62 126.5C62 127.881 60.8807 129 59.5 129Z" fill="white" fill-opacity="0.12"/>
<path d="M48.5 129C47.1193 129 46 127.881 46 126.5C46 125.12 47.1193 124 48.5 124C49.8807 124 51 125.12 51 126.5C51 127.881 49.8807 129 48.5 129Z" fill="white" fill-opacity="0.12"/>
<path d="M36.5 129C35.1193 129 34 127.881 34 126.5C34 125.12 35.1193 124 36.5 124C37.8807 124 39 125.12 39 126.5C39 127.881 37.8807 129 36.5 129Z" fill="white" fill-opacity="0.12"/>
<path d="M25.5 129C24.1193 129 23 127.881 23 126.5C23 125.12 24.1193 124 25.5 124C26.8807 124 28 125.12 28 126.5C28 127.881 26.8807 129 25.5 129Z" fill="white" fill-opacity="0.12"/>
<path d="M14.5 129C13.1193 129 12 127.881 12 126.5C12 125.12 13.1193 124 14.5 124C15.8807 124 17 125.12 17 126.5C17 127.881 15.8807 129 14.5 129Z" fill="white" fill-opacity="0.12"/>
<path d="M2.5 129C1.11929 129 0 127.881 0 126.5C0 125.12 1.11929 124 2.5 124C3.88071 124 5 125.12 5 126.5C5 127.881 3.88071 129 2.5 129Z" fill="white" fill-opacity="0.12"/>
<path d="M104.5 140C103.119 140 102 138.881 102 137.5C102 136.12 103.119 135 104.5 135C105.881 135 107 136.12 107 137.5C107 138.881 105.881 140 104.5 140Z" fill="white" fill-opacity="0.12"/>
<path d="M93.5 140C92.1193 140 91 138.881 91 137.5C91 136.12 92.1193 135 93.5 135C94.8807 135 96 136.12 96 137.5C96 138.881 94.8807 140 93.5 140Z" fill="white" fill-opacity="0.12"/>
<path d="M82.5 140C81.1193 140 80 138.881 80 137.5C80 136.12 81.1193 135 82.5 135C83.8807 135 85 136.12 85 137.5C85 138.881 83.8807 140 82.5 140Z" fill="white" fill-opacity="0.12"/>
<path d="M70.5 140C69.1193 140 68 138.881 68 137.5C68 136.12 69.1193 135 70.5 135C71.8807 135 73 136.12 73 137.5C73 138.881 71.8807 140 70.5 140Z" fill="white" fill-opacity="0.12"/>
<path d="M59.5 140C58.1193 140 57 138.881 57 137.5C57 136.12 58.1193 135 59.5 135C60.8807 135 62 136.12 62 137.5C62 138.881 60.8807 140 59.5 140Z" fill="white" fill-opacity="0.12"/>
<path d="M48.5 140C47.1193 140 46 138.881 46 137.5C46 136.12 47.1193 135 48.5 135C49.8807 135 51 136.12 51 137.5C51 138.881 49.8807 140 48.5 140Z" fill="white" fill-opacity="0.12"/>
<path d="M36.5 140C35.1193 140 34 138.881 34 137.5C34 136.12 35.1193 135 36.5 135C37.8807 135 39 136.12 39 137.5C39 138.881 37.8807 140 36.5 140Z" fill="white" fill-opacity="0.12"/>
<path d="M25.5 140C24.1193 140 23 138.881 23 137.5C23 136.12 24.1193 135 25.5 135C26.8807 135 28 136.12 28 137.5C28 138.881 26.8807 140 25.5 140Z" fill="white" fill-opacity="0.12"/>
<path d="M14.5 140C13.1193 140 12 138.881 12 137.5C12 136.12 13.1193 135 14.5 135C15.8807 135 17 136.12 17 137.5C17 138.881 15.8807 140 14.5 140Z" fill="white" fill-opacity="0.12"/>
<path d="M2.5 140C1.11929 140 0 138.881 0 137.5C0 136.12 1.11929 135 2.5 135C3.88071 135 5 136.12 5 137.5C5 138.881 3.88071 140 2.5 140Z" fill="white" fill-opacity="0.12"/>
<path d="M104.5 151C103.119 151 102 149.881 102 148.5C102 147.12 103.119 146 104.5 146C105.881 146 107 147.12 107 148.5C107 149.881 105.881 151 104.5 151Z" fill="white" fill-opacity="0.12"/>
<path d="M93.5 151C92.1193 151 91 149.881 91 148.5C91 147.12 92.1193 146 93.5 146C94.8807 146 96 147.12 96 148.5C96 149.881 94.8807 151 93.5 151Z" fill="white" fill-opacity="0.12"/>
<path d="M82.5 151C81.1193 151 80 149.881 80 148.5C80 147.12 81.1193 146 82.5 146C83.8807 146 85 147.12 85 148.5C85 149.881 83.8807 151 82.5 151Z" fill="white" fill-opacity="0.12"/>
<path d="M70.5 151C69.1193 151 68 149.881 68 148.5C68 147.12 69.1193 146 70.5 146C71.8807 146 73 147.12 73 148.5C73 149.881 71.8807 151 70.5 151Z" fill="white" fill-opacity="0.12"/>
<path d="M59.5 151C58.1193 151 57 149.881 57 148.5C57 147.12 58.1193 146 59.5 146C60.8807 146 62 147.12 62 148.5C62 149.881 60.8807 151 59.5 151Z" fill="white" fill-opacity="0.12"/>
<path d="M48.5 151C47.1193 151 46 149.881 46 148.5C46 147.12 47.1193 146 48.5 146C49.8807 146 51 147.12 51 148.5C51 149.881 49.8807 151 48.5 151Z" fill="white" fill-opacity="0.12"/>
<path d="M36.5 151C35.1193 151 34 149.881 34 148.5C34 147.12 35.1193 146 36.5 146C37.8807 146 39 147.12 39 148.5C39 149.881 37.8807 151 36.5 151Z" fill="white" fill-opacity="0.12"/>
<path d="M25.5 151C24.1193 151 23 149.881 23 148.5C23 147.12 24.1193 146 25.5 146C26.8807 146 28 147.12 28 148.5C28 149.881 26.8807 151 25.5 151Z" fill="white" fill-opacity="0.12"/>
<path d="M14.5 151C13.1193 151 12 149.881 12 148.5C12 147.12 13.1193 146 14.5 146C15.8807 146 17 147.12 17 148.5C17 149.881 15.8807 151 14.5 151Z" fill="white" fill-opacity="0.12"/>
<path d="M2.5 151C1.11929 151 0 149.881 0 148.5C0 147.12 1.11929 146 2.5 146C3.88071 146 5 147.12 5 148.5C5 149.881 3.88071 151 2.5 151Z" fill="white" fill-opacity="0.12"/>
<path d="M104.5 162C103.119 162 102 160.881 102 159.5C102 158.12 103.119 157 104.5 157C105.881 157 107 158.12 107 159.5C107 160.881 105.881 162 104.5 162Z" fill="white" fill-opacity="0.12"/>
<path d="M93.5 162C92.1193 162 91 160.881 91 159.5C91 158.12 92.1193 157 93.5 157C94.8807 157 96 158.12 96 159.5C96 160.881 94.8807 162 93.5 162Z" fill="white" fill-opacity="0.12"/>
<path d="M82.5 162C81.1193 162 80 160.881 80 159.5C80 158.12 81.1193 157 82.5 157C83.8807 157 85 158.12 85 159.5C85 160.881 83.8807 162 82.5 162Z" fill="white" fill-opacity="0.12"/>
<path d="M70.5 162C69.1193 162 68 160.881 68 159.5C68 158.12 69.1193 157 70.5 157C71.8807 157 73 158.12 73 159.5C73 160.881 71.8807 162 70.5 162Z" fill="white" fill-opacity="0.12"/>
<path d="M59.5 162C58.1193 162 57 160.881 57 159.5C57 158.12 58.1193 157 59.5 157C60.8807 157 62 158.12 62 159.5C62 160.881 60.8807 162 59.5 162Z" fill="white" fill-opacity="0.12"/>
<path d="M48.5 162C47.1193 162 46 160.881 46 159.5C46 158.12 47.1193 157 48.5 157C49.8807 157 51 158.12 51 159.5C51 160.881 49.8807 162 48.5 162Z" fill="white" fill-opacity="0.12"/>
<path d="M36.5 162C35.1193 162 34 160.881 34 159.5C34 158.12 35.1193 157 36.5 157C37.8807 157 39 158.12 39 159.5C39 160.881 37.8807 162 36.5 162Z" fill="white" fill-opacity="0.12"/>
<path d="M25.5 162C24.1193 162 23 160.881 23 159.5C23 158.12 24.1193 157 25.5 157C26.8807 157 28 158.12 28 159.5C28 160.881 26.8807 162 25.5 162Z" fill="white" fill-opacity="0.12"/>
<path d="M14.5 162C13.1193 162 12 160.881 12 159.5C12 158.12 13.1193 157 14.5 157C15.8807 157 17 158.12 17 159.5C17 160.881 15.8807 162 14.5 162Z" fill="white" fill-opacity="0.12"/>
<path d="M2.5 162C1.11929 162 0 160.881 0 159.5C0 158.12 1.11929 157 2.5 157C3.88071 157 5 158.12 5 159.5C5 160.881 3.88071 162 2.5 162Z" fill="white" fill-opacity="0.12"/>
<path d="M104.5 173C103.119 173 102 171.881 102 170.5C102 169.12 103.119 168 104.5 168C105.881 168 107 169.12 107 170.5C107 171.881 105.881 173 104.5 173Z" fill="white" fill-opacity="0.12"/>
<path d="M93.5 173C92.1193 173 91 171.881 91 170.5C91 169.12 92.1193 168 93.5 168C94.8807 168 96 169.12 96 170.5C96 171.881 94.8807 173 93.5 173Z" fill="white" fill-opacity="0.12"/>
<path d="M82.5 173C81.1193 173 80 171.881 80 170.5C80 169.12 81.1193 168 82.5 168C83.8807 168 85 169.12 85 170.5C85 171.881 83.8807 173 82.5 173Z" fill="white" fill-opacity="0.12"/>
<path d="M70.5 173C69.1193 173 68 171.881 68 170.5C68 169.12 69.1193 168 70.5 168C71.8807 168 73 169.12 73 170.5C73 171.881 71.8807 173 70.5 173Z" fill="white" fill-opacity="0.12"/>
<path d="M59.5 173C58.1193 173 57 171.881 57 170.5C57 169.12 58.1193 168 59.5 168C60.8807 168 62 169.12 62 170.5C62 171.881 60.8807 173 59.5 173Z" fill="white" fill-opacity="0.12"/>
<path d="M48.5 173C47.1193 173 46 171.881 46 170.5C46 169.12 47.1193 168 48.5 168C49.8807 168 51 169.12 51 170.5C51 171.881 49.8807 173 48.5 173Z" fill="white" fill-opacity="0.12"/>
<path d="M36.5 173C35.1193 173 34 171.881 34 170.5C34 169.12 35.1193 168 36.5 168C37.8807 168 39 169.12 39 170.5C39 171.881 37.8807 173 36.5 173Z" fill="white" fill-opacity="0.12"/>
<path d="M25.5 173C24.1193 173 23 171.881 23 170.5C23 169.12 24.1193 168 25.5 168C26.8807 168 28 169.12 28 170.5C28 171.881 26.8807 173 25.5 173Z" fill="white" fill-opacity="0.12"/>
<path d="M14.5 173C13.1193 173 12 171.881 12 170.5C12 169.12 13.1193 168 14.5 168C15.8807 168 17 169.12 17 170.5C17 171.881 15.8807 173 14.5 173Z" fill="white" fill-opacity="0.12"/>
<path d="M2.5 173C1.11929 173 0 171.881 0 170.5C0 169.12 1.11929 168 2.5 168C3.88071 168 5 169.12 5 170.5C5 171.881 3.88071 173 2.5 173Z" fill="white" fill-opacity="0.12"/>
</svg>
