<svg width="1401" height="244" viewBox="0 0 1401 244" fill="none" xmlns="http://www.w3.org/2000/svg">
<path d="M134.85 237.824L122 235.106" stroke="white" stroke-opacity="0.12" stroke-width="2" stroke-linecap="round"/>
<path d="M129.85 230L127.13 242.847" stroke="white" stroke-opacity="0.12" stroke-width="2" stroke-linecap="round"/>
<path d="M79.1665 54.1049C76.3852 53.5166 73.6536 55.2944 73.0653 58.0758C72.477 60.8571 74.2548 63.5887 77.0361 64.177C79.8174 64.7653 82.5489 62.9875 83.1372 60.2061C83.7255 57.4248 81.9478 54.6932 79.1665 54.1049Z" stroke="white" stroke-opacity="0.12" stroke-width="2"/>
<path d="M1318.23 4.10743C1319.12 5.16443 1320.7 5.30244 1321.76 4.41444C1322.81 3.52644 1322.95 1.9504 1322.06 0.892404C1321.17 -0.164596 1319.6 -0.302603 1318.54 0.585397C1317.48 1.4724 1317.35 3.04943 1318.23 4.10743Z" fill="white" fill-opacity="0.12"/>
<path d="M1325.31 12.5335C1326.19 13.5905 1327.77 13.7284 1328.83 12.8404C1329.89 11.9534 1330.02 10.3764 1329.14 9.31843C1328.25 8.26143 1326.67 8.12342 1325.61 9.01142C1324.56 9.89842 1324.42 11.4755 1325.31 12.5335Z" fill="white" fill-opacity="0.12"/>
<path d="M1332.38 20.9594C1333.27 22.0164 1334.84 22.1544 1335.9 21.2664C1336.96 20.3794 1337.1 18.8025 1336.21 17.7445C1335.32 16.6875 1333.74 16.5494 1332.69 17.4374C1331.63 18.3244 1331.49 19.9014 1332.38 20.9594Z" fill="white" fill-opacity="0.12"/>
<path d="M1339.45 29.3855C1340.34 30.4425 1341.92 30.5805 1342.97 29.6925C1344.03 28.8055 1344.17 27.2285 1343.28 26.1705C1342.39 25.1135 1340.82 24.9755 1339.76 25.8635C1338.7 26.7505 1338.56 28.3275 1339.45 29.3855Z" fill="white" fill-opacity="0.12"/>
<path d="M1346.52 37.8115C1347.41 38.8685 1348.99 39.0065 1350.05 38.1185C1351.1 37.2315 1351.24 35.6545 1350.35 34.5965C1349.47 33.5395 1347.89 33.4015 1346.83 34.2895C1345.77 35.1765 1345.64 36.7535 1346.52 37.8115Z" fill="white" fill-opacity="0.12"/>
<path d="M1353.6 46.2374C1354.48 47.2944 1356.06 47.4324 1357.12 46.5444C1358.18 45.6574 1358.31 44.0804 1357.43 43.0224C1356.54 41.9654 1354.96 41.8274 1353.9 42.7154C1352.85 43.6024 1352.71 45.1794 1353.6 46.2374Z" fill="white" fill-opacity="0.12"/>
<path d="M1360.67 54.6634C1361.56 55.7204 1363.14 55.8584 1364.19 54.9704C1365.25 54.0824 1365.39 52.5054 1364.5 51.4484C1363.61 50.3904 1362.04 50.2534 1360.98 51.1404C1359.92 52.0284 1359.78 53.6054 1360.67 54.6634Z" fill="white" fill-opacity="0.12"/>
<path d="M1367.74 63.0894C1368.63 64.1464 1370.21 64.2844 1371.27 63.3964C1372.32 62.5084 1372.46 60.9314 1371.57 59.8744C1370.69 58.8164 1369.11 58.6794 1368.05 59.5674C1366.99 60.4544 1366.86 62.0314 1367.74 63.0894Z" fill="white" fill-opacity="0.12"/>
<path d="M1374.82 71.5155C1375.7 72.5725 1377.28 72.7104 1378.34 71.8224C1379.4 70.9344 1379.53 69.3584 1378.65 68.3004C1377.76 67.2424 1376.18 67.1054 1375.12 67.9934C1374.07 68.8804 1373.93 70.4575 1374.82 71.5155Z" fill="white" fill-opacity="0.12"/>
<path d="M1381.89 79.9414C1382.78 80.9984 1384.35 81.1364 1385.41 80.2484C1386.47 79.3604 1386.61 77.7844 1385.72 76.7264C1384.83 75.6694 1383.26 75.5314 1382.2 76.4194C1381.14 77.3064 1381 78.8834 1381.89 79.9414Z" fill="white" fill-opacity="0.12"/>
<path d="M1388.96 88.3674C1389.85 89.4244 1391.43 89.5624 1392.49 88.6744C1393.54 87.7864 1393.68 86.2104 1392.79 85.1524C1391.91 84.0954 1390.33 83.9574 1389.27 84.8454C1388.21 85.7324 1388.08 87.3094 1388.96 88.3674Z" fill="white" fill-opacity="0.12"/>
<path d="M1396.04 96.7934C1396.92 97.8504 1398.5 97.9884 1399.56 97.1004C1400.62 96.2134 1400.75 94.6364 1399.87 93.5784C1398.98 92.5214 1397.4 92.3834 1396.34 93.2714C1395.29 94.1584 1395.15 95.7354 1396.04 96.7934Z" fill="white" fill-opacity="0.12"/>
<path d="M1309.81 11.1804C1310.69 12.2374 1312.27 12.3754 1313.33 11.4874C1314.39 10.5994 1314.52 9.02337 1313.64 7.96537C1312.75 6.90837 1311.17 6.77042 1310.11 7.65842C1309.06 8.54542 1308.92 10.1224 1309.81 11.1804Z" fill="white" fill-opacity="0.12"/>
<path d="M1316.88 19.6065C1317.77 20.6635 1319.35 20.8014 1320.4 19.9134C1321.46 19.0264 1321.6 17.4494 1320.71 16.3914C1319.82 15.3344 1318.25 15.1964 1317.19 16.0844C1316.13 16.9714 1315.99 18.5485 1316.88 19.6065Z" fill="white" fill-opacity="0.12"/>
<path d="M1323.95 28.0324C1324.84 29.0894 1326.42 29.2274 1327.48 28.3394C1328.53 27.4524 1328.67 25.8755 1327.78 24.8175C1326.9 23.7605 1325.32 23.6224 1324.26 24.5104C1323.2 25.3974 1323.07 26.9744 1323.95 28.0324Z" fill="white" fill-opacity="0.12"/>
<path d="M1331.03 36.4585C1331.91 37.5155 1333.49 37.6535 1334.55 36.7655C1335.61 35.8785 1335.74 34.3015 1334.86 33.2435C1333.97 32.1865 1332.39 32.0485 1331.33 32.9365C1330.28 33.8235 1330.14 35.4005 1331.03 36.4585Z" fill="white" fill-opacity="0.12"/>
<path d="M1338.1 44.8845C1338.99 45.9415 1340.56 46.0795 1341.62 45.1915C1342.68 44.3045 1342.82 42.7275 1341.93 41.6695C1341.04 40.6125 1339.46 40.4745 1338.41 41.3625C1337.35 42.2495 1337.21 43.8265 1338.1 44.8845Z" fill="white" fill-opacity="0.12"/>
<path d="M1345.17 53.3104C1346.06 54.3674 1347.64 54.5054 1348.69 53.6174C1349.75 52.7304 1349.89 51.1534 1349 50.0954C1348.11 49.0384 1346.54 48.9004 1345.48 49.7884C1344.42 50.6754 1344.28 52.2524 1345.17 53.3104Z" fill="white" fill-opacity="0.12"/>
<path d="M1352.24 61.7364C1353.13 62.7934 1354.71 62.9314 1355.77 62.0434C1356.82 61.1554 1356.96 59.5784 1356.07 58.5214C1355.19 57.4634 1353.61 57.3264 1352.55 58.2134C1351.49 59.1014 1351.36 60.6784 1352.24 61.7364Z" fill="white" fill-opacity="0.12"/>
<path d="M1359.32 70.1624C1360.21 71.2194 1361.78 71.3574 1362.84 70.4694C1363.9 69.5814 1364.04 68.0044 1363.15 66.9474C1362.26 65.8894 1360.68 65.7524 1359.63 66.6404C1358.57 67.5274 1358.43 69.1044 1359.32 70.1624Z" fill="white" fill-opacity="0.12"/>
<path d="M1366.39 78.5885C1367.28 79.6455 1368.86 79.7835 1369.91 78.8955C1370.97 78.0075 1371.11 76.4314 1370.22 75.3734C1369.33 74.3154 1367.76 74.1784 1366.7 75.0664C1365.64 75.9534 1365.5 77.5305 1366.39 78.5885Z" fill="white" fill-opacity="0.12"/>
<path d="M1373.46 87.0144C1374.35 88.0714 1375.93 88.2094 1376.99 87.3214C1378.04 86.4334 1378.18 84.8574 1377.29 83.7994C1376.41 82.7424 1374.83 82.6044 1373.77 83.4924C1372.71 84.3794 1372.58 85.9564 1373.46 87.0144Z" fill="white" fill-opacity="0.12"/>
<path d="M1380.54 95.4404C1381.43 96.4974 1383 96.6354 1384.06 95.7474C1385.12 94.8594 1385.25 93.2834 1384.37 92.2254C1383.48 91.1684 1381.9 91.0304 1380.85 91.9184C1379.79 92.8054 1379.65 94.3824 1380.54 95.4404Z" fill="white" fill-opacity="0.12"/>
<path d="M1387.61 103.866C1388.5 104.923 1390.08 105.061 1391.13 104.173C1392.19 103.286 1392.33 101.709 1391.44 100.651C1390.55 99.5944 1388.98 99.4564 1387.92 100.344C1386.86 101.231 1386.72 102.808 1387.61 103.866Z" fill="white" fill-opacity="0.12"/>
<path d="M1301.38 18.2534C1302.27 19.3104 1303.85 19.4484 1304.9 18.5604C1305.96 17.6724 1306.1 16.0964 1305.21 15.0384C1304.32 13.9814 1302.75 13.8434 1301.69 14.7314C1300.63 15.6184 1300.49 17.1954 1301.38 18.2534Z" fill="white" fill-opacity="0.12"/>
<path d="M1308.45 26.6795C1309.34 27.7365 1310.92 27.8744 1311.98 26.9864C1313.03 26.0994 1313.17 24.5224 1312.28 23.4644C1311.4 22.4074 1309.82 22.2694 1308.76 23.1574C1307.7 24.0444 1307.57 25.6215 1308.45 26.6795Z" fill="white" fill-opacity="0.12"/>
<path d="M1315.53 35.1054C1316.42 36.1624 1317.99 36.3004 1319.05 35.4124C1320.11 34.5254 1320.25 32.9485 1319.36 31.8905C1318.47 30.8335 1316.89 30.6954 1315.84 31.5834C1314.78 32.4704 1314.64 34.0474 1315.53 35.1054Z" fill="white" fill-opacity="0.12"/>
<path d="M1322.6 43.5315C1323.49 44.5885 1325.06 44.7265 1326.12 43.8385C1327.18 42.9515 1327.32 41.3745 1326.43 40.3165C1325.54 39.2595 1323.97 39.1215 1322.91 40.0095C1321.85 40.8965 1321.71 42.4735 1322.6 43.5315Z" fill="white" fill-opacity="0.12"/>
<path d="M1329.67 51.9575C1330.56 53.0145 1332.14 53.1525 1333.2 52.2645C1334.25 51.3775 1334.39 49.8005 1333.5 48.7425C1332.62 47.6855 1331.04 47.5475 1329.98 48.4355C1328.92 49.3225 1328.79 50.8995 1329.67 51.9575Z" fill="white" fill-opacity="0.12"/>
<path d="M1336.75 60.3834C1337.63 61.4404 1339.21 61.5784 1340.27 60.6904C1341.33 59.8034 1341.46 58.2264 1340.58 57.1684C1339.69 56.1114 1338.11 55.9734 1337.05 56.8614C1336 57.7484 1335.86 59.3254 1336.75 60.3834Z" fill="white" fill-opacity="0.12"/>
<path d="M1343.82 68.8094C1344.71 69.8664 1346.28 70.0044 1347.34 69.1164C1348.4 68.2284 1348.54 66.6514 1347.65 65.5944C1346.76 64.5364 1345.18 64.3994 1344.13 65.2864C1343.07 66.1744 1342.93 67.7514 1343.82 68.8094Z" fill="white" fill-opacity="0.12"/>
<path d="M1350.89 77.2354C1351.78 78.2924 1353.36 78.4304 1354.41 77.5424C1355.47 76.6544 1355.61 75.0774 1354.72 74.0204C1353.83 72.9624 1352.26 72.8254 1351.2 73.7134C1350.14 74.6004 1350 76.1774 1350.89 77.2354Z" fill="white" fill-opacity="0.12"/>
<path d="M1357.97 85.6615C1358.85 86.7185 1360.43 86.8565 1361.49 85.9685C1362.55 85.0805 1362.68 83.5044 1361.79 82.4464C1360.91 81.3884 1359.33 81.2514 1358.27 82.1394C1357.22 83.0264 1357.08 84.6035 1357.97 85.6615Z" fill="white" fill-opacity="0.12"/>
<path d="M1365.04 94.0874C1365.93 95.1444 1367.5 95.2824 1368.56 94.3944C1369.62 93.5064 1369.75 91.9304 1368.87 90.8724C1367.98 89.8154 1366.4 89.6774 1365.35 90.5654C1364.29 91.4524 1364.15 93.0294 1365.04 94.0874Z" fill="white" fill-opacity="0.12"/>
<path d="M1372.11 102.513C1373 103.57 1374.58 103.708 1375.63 102.82C1376.69 101.932 1376.83 100.356 1375.94 99.2984C1375.05 98.2414 1373.48 98.1034 1372.42 98.9914C1371.36 99.8784 1371.22 101.455 1372.11 102.513Z" fill="white" fill-opacity="0.12"/>
<path d="M1379.18 110.939C1380.07 111.996 1381.65 112.134 1382.71 111.246C1383.76 110.359 1383.9 108.782 1383.01 107.724C1382.13 106.667 1380.55 106.529 1379.49 107.417C1378.43 108.304 1378.3 109.881 1379.18 110.939Z" fill="white" fill-opacity="0.12"/>
<path d="M1292.95 25.3264C1293.84 26.3834 1295.42 26.5214 1296.48 25.6334C1297.53 24.7454 1297.67 23.1694 1296.78 22.1114C1295.9 21.0544 1294.32 20.9164 1293.26 21.8044C1292.2 22.6914 1292.07 24.2684 1292.95 25.3264Z" fill="white" fill-opacity="0.12"/>
<path d="M1300.03 33.7525C1300.92 34.8095 1302.49 34.9474 1303.55 34.0594C1304.61 33.1714 1304.75 31.5954 1303.86 30.5374C1302.97 29.4804 1301.39 29.3424 1300.34 30.2304C1299.28 31.1174 1299.14 32.6945 1300.03 33.7525Z" fill="white" fill-opacity="0.12"/>
<path d="M1307.1 42.1784C1307.99 43.2354 1309.56 43.3734 1310.62 42.4854C1311.68 41.5984 1311.82 40.0214 1310.93 38.9634C1310.04 37.9064 1308.47 37.7684 1307.41 38.6564C1306.35 39.5434 1306.21 41.1204 1307.1 42.1784Z" fill="white" fill-opacity="0.12"/>
<path d="M1314.17 50.6045C1315.06 51.6615 1316.64 51.7995 1317.7 50.9115C1318.75 50.0245 1318.89 48.4475 1318 47.3895C1317.12 46.3325 1315.54 46.1945 1314.48 47.0825C1313.42 47.9695 1313.29 49.5465 1314.17 50.6045Z" fill="white" fill-opacity="0.12"/>
<path d="M1321.25 59.0305C1322.14 60.0875 1323.71 60.2255 1324.77 59.3375C1325.83 58.4505 1325.96 56.8735 1325.08 55.8155C1324.19 54.7585 1322.61 54.6205 1321.56 55.5085C1320.5 56.3955 1320.36 57.9725 1321.25 59.0305Z" fill="white" fill-opacity="0.12"/>
<path d="M1328.32 67.4564C1329.21 68.5134 1330.78 68.6514 1331.84 67.7634C1332.9 66.8764 1333.04 65.2994 1332.15 64.2414C1331.26 63.1844 1329.68 63.0464 1328.63 63.9344C1327.57 64.8214 1327.43 66.3984 1328.32 67.4564Z" fill="white" fill-opacity="0.12"/>
<path d="M1335.39 75.8825C1336.28 76.9395 1337.86 77.0774 1338.92 76.1894C1339.97 75.3014 1340.11 73.7244 1339.22 72.6674C1338.34 71.6094 1336.76 71.4724 1335.7 72.3594C1334.64 73.2474 1334.51 74.8245 1335.39 75.8825Z" fill="white" fill-opacity="0.12"/>
<path d="M1342.47 84.3084C1343.35 85.3654 1344.93 85.5034 1345.99 84.6154C1347.05 83.7274 1347.18 82.1504 1346.3 81.0934C1345.41 80.0354 1343.83 79.8984 1342.77 80.7864C1341.72 81.6734 1341.58 83.2504 1342.47 84.3084Z" fill="white" fill-opacity="0.12"/>
<path d="M1349.54 92.7345C1350.43 93.7915 1352 93.9295 1353.06 93.0415C1354.12 92.1535 1354.26 90.5774 1353.37 89.5194C1352.48 88.4614 1350.9 88.3244 1349.85 89.2124C1348.79 90.0994 1348.65 91.6765 1349.54 92.7345Z" fill="white" fill-opacity="0.12"/>
<path d="M1356.61 101.16C1357.5 102.217 1359.08 102.355 1360.13 101.467C1361.19 100.579 1361.33 99.0034 1360.44 97.9454C1359.55 96.8884 1357.98 96.7504 1356.92 97.6384C1355.86 98.5254 1355.72 100.102 1356.61 101.16Z" fill="white" fill-opacity="0.12"/>
<path d="M1363.69 109.586C1364.57 110.643 1366.15 110.781 1367.21 109.893C1368.26 109.005 1368.4 107.429 1367.51 106.371C1366.63 105.314 1365.05 105.176 1363.99 106.064C1362.94 106.951 1362.8 108.528 1363.69 109.586Z" fill="white" fill-opacity="0.12"/>
<path d="M1370.76 118.012C1371.65 119.069 1373.22 119.207 1374.28 118.319C1375.34 117.432 1375.48 115.855 1374.59 114.797C1373.7 113.74 1372.12 113.602 1371.07 114.49C1370.01 115.377 1369.87 116.954 1370.76 118.012Z" fill="white" fill-opacity="0.12"/>
<path d="M1284.53 32.3994C1285.42 33.4564 1286.99 33.5944 1288.05 32.7064C1289.11 31.8184 1289.25 30.2424 1288.36 29.1844C1287.47 28.1274 1285.89 27.9894 1284.84 28.8774C1283.78 29.7644 1283.64 31.3414 1284.53 32.3994Z" fill="white" fill-opacity="0.12"/>
<path d="M1291.6 40.8254C1292.49 41.8824 1294.07 42.0205 1295.12 41.1325C1296.18 40.2445 1296.32 38.6684 1295.43 37.6104C1294.54 36.5534 1292.97 36.4154 1291.91 37.3034C1290.85 38.1904 1290.71 39.7674 1291.6 40.8254Z" fill="white" fill-opacity="0.12"/>
<path d="M1298.68 49.2514C1299.56 50.3084 1301.14 50.4464 1302.2 49.5584C1303.26 48.6714 1303.39 47.0944 1302.5 46.0364C1301.62 44.9794 1300.04 44.8414 1298.98 45.7294C1297.93 46.6164 1297.79 48.1934 1298.68 49.2514Z" fill="white" fill-opacity="0.12"/>
<path d="M1305.75 57.6775C1306.64 58.7345 1308.21 58.8725 1309.27 57.9845C1310.33 57.0975 1310.46 55.5205 1309.58 54.4625C1308.69 53.4055 1307.11 53.2675 1306.06 54.1555C1305 55.0425 1304.86 56.6195 1305.75 57.6775Z" fill="white" fill-opacity="0.12"/>
<path d="M1312.82 66.1035C1313.71 67.1605 1315.29 67.2985 1316.34 66.4105C1317.4 65.5235 1317.54 63.9465 1316.65 62.8885C1315.76 61.8315 1314.19 61.6935 1313.13 62.5815C1312.07 63.4685 1311.93 65.0455 1312.82 66.1035Z" fill="white" fill-opacity="0.12"/>
<path d="M1319.89 74.5294C1320.78 75.5864 1322.36 75.7244 1323.42 74.8364C1324.47 73.9494 1324.61 72.3724 1323.72 71.3144C1322.84 70.2574 1321.26 70.1194 1320.2 71.0074C1319.14 71.8944 1319.01 73.4714 1319.89 74.5294Z" fill="white" fill-opacity="0.12"/>
<path d="M1326.97 82.9555C1327.86 84.0125 1329.43 84.1504 1330.49 83.2624C1331.55 82.3744 1331.68 80.7974 1330.8 79.7404C1329.91 78.6824 1328.33 78.5454 1327.27 79.4324C1326.22 80.3204 1326.08 81.8975 1326.97 82.9555Z" fill="white" fill-opacity="0.12"/>
<path d="M1334.04 91.3814C1334.93 92.4384 1336.51 92.5764 1337.56 91.6884C1338.62 90.8004 1338.76 89.2234 1337.87 88.1664C1336.98 87.1084 1335.41 86.9714 1334.35 87.8594C1333.29 88.7464 1333.15 90.3234 1334.04 91.3814Z" fill="white" fill-opacity="0.12"/>
<path d="M1341.11 99.8075C1342 100.864 1343.58 101.002 1344.63 100.114C1345.69 99.2265 1345.83 97.6504 1344.94 96.5924C1344.05 95.5344 1342.48 95.3974 1341.42 96.2854C1340.36 97.1724 1340.23 98.7495 1341.11 99.8075Z" fill="white" fill-opacity="0.12"/>
<path d="M1348.19 108.233C1349.07 109.29 1350.65 109.428 1351.71 108.54C1352.77 107.652 1352.9 106.076 1352.02 105.018C1351.13 103.961 1349.55 103.823 1348.49 104.711C1347.44 105.598 1347.3 107.175 1348.19 108.233Z" fill="white" fill-opacity="0.12"/>
<path d="M1355.26 116.659C1356.15 117.716 1357.72 117.854 1358.78 116.966C1359.84 116.078 1359.98 114.502 1359.09 113.444C1358.2 112.387 1356.62 112.249 1355.57 113.137C1354.51 114.024 1354.37 115.601 1355.26 116.659Z" fill="white" fill-opacity="0.12"/>
<path d="M1362.33 125.085C1363.22 126.142 1364.8 126.28 1365.85 125.392C1366.91 124.505 1367.05 122.928 1366.16 121.87C1365.27 120.813 1363.7 120.675 1362.64 121.563C1361.58 122.45 1361.44 124.027 1362.33 125.085Z" fill="white" fill-opacity="0.12"/>
<path d="M1276.1 39.4724C1276.99 40.5294 1278.57 40.6674 1279.63 39.7794C1280.68 38.8914 1280.82 37.3154 1279.93 36.2574C1279.04 35.2004 1277.47 35.0624 1276.41 35.9504C1275.35 36.8374 1275.22 38.4144 1276.1 39.4724Z" fill="white" fill-opacity="0.12"/>
<path d="M1283.18 47.8984C1284.06 48.9554 1285.64 49.0935 1286.7 48.2055C1287.76 47.3175 1287.89 45.7414 1287.01 44.6834C1286.12 43.6264 1284.54 43.4884 1283.48 44.3764C1282.43 45.2634 1282.29 46.8404 1283.18 47.8984Z" fill="white" fill-opacity="0.12"/>
<path d="M1290.25 56.3244C1291.14 57.3814 1292.71 57.5194 1293.77 56.6314C1294.83 55.7444 1294.97 54.1674 1294.08 53.1094C1293.19 52.0524 1291.61 51.9144 1290.56 52.8024C1289.5 53.6894 1289.36 55.2664 1290.25 56.3244Z" fill="white" fill-opacity="0.12"/>
<path d="M1297.32 64.7505C1298.21 65.8075 1299.79 65.9455 1300.84 65.0575C1301.9 64.1705 1302.04 62.5935 1301.15 61.5355C1300.26 60.4785 1298.69 60.3405 1297.63 61.2285C1296.57 62.1155 1296.43 63.6925 1297.32 64.7505Z" fill="white" fill-opacity="0.12"/>
<path d="M1304.4 73.1765C1305.28 74.2335 1306.86 74.3715 1307.92 73.4835C1308.97 72.5965 1309.11 71.0195 1308.22 69.9615C1307.34 68.9045 1305.76 68.7665 1304.7 69.6545C1303.65 70.5415 1303.51 72.1185 1304.4 73.1765Z" fill="white" fill-opacity="0.12"/>
<path d="M1311.47 81.6024C1312.36 82.6594 1313.93 82.7974 1314.99 81.9094C1316.05 81.0224 1316.18 79.4454 1315.3 78.3874C1314.41 77.3304 1312.83 77.1924 1311.77 78.0804C1310.72 78.9674 1310.58 80.5444 1311.47 81.6024Z" fill="white" fill-opacity="0.12"/>
<path d="M1318.54 90.0285C1319.43 91.0855 1321.01 91.2234 1322.06 90.3354C1323.12 89.4474 1323.26 87.8704 1322.37 86.8134C1321.48 85.7554 1319.91 85.6184 1318.85 86.5054C1317.79 87.3934 1317.65 88.9704 1318.54 90.0285Z" fill="white" fill-opacity="0.12"/>
<path d="M1325.61 98.4544C1326.5 99.5114 1328.08 99.6494 1329.14 98.7614C1330.19 97.8734 1330.33 96.2964 1329.44 95.2394C1328.56 94.1814 1326.98 94.0444 1325.92 94.9324C1324.86 95.8194 1324.73 97.3964 1325.61 98.4544Z" fill="white" fill-opacity="0.12"/>
<path d="M1332.69 106.88C1333.57 107.937 1335.15 108.075 1336.21 107.187C1337.27 106.299 1337.4 104.723 1336.52 103.665C1335.63 102.607 1334.05 102.47 1332.99 103.358C1331.94 104.245 1331.8 105.822 1332.69 106.88Z" fill="white" fill-opacity="0.12"/>
<path d="M1339.76 115.306C1340.65 116.363 1342.22 116.501 1343.28 115.613C1344.34 114.725 1344.48 113.149 1343.59 112.091C1342.7 111.034 1341.13 110.896 1340.07 111.784C1339.01 112.671 1338.87 114.248 1339.76 115.306Z" fill="white" fill-opacity="0.12"/>
<path d="M1346.83 123.732C1347.72 124.789 1349.3 124.927 1350.36 124.039C1351.41 123.151 1351.55 121.575 1350.66 120.517C1349.78 119.46 1348.2 119.322 1347.14 120.21C1346.08 121.097 1345.95 122.674 1346.83 123.732Z" fill="white" fill-opacity="0.12"/>
<path d="M1353.91 132.158C1354.79 133.215 1356.37 133.353 1357.43 132.465C1358.49 131.578 1358.62 130.001 1357.74 128.943C1356.85 127.886 1355.27 127.748 1354.21 128.636C1353.16 129.523 1353.02 131.1 1353.91 132.158Z" fill="white" fill-opacity="0.12"/>
<path d="M1267.68 46.5454C1268.57 47.6024 1270.14 47.7404 1271.2 46.8524C1272.26 45.9644 1272.39 44.3884 1271.51 43.3304C1270.62 42.2734 1269.04 42.1354 1267.98 43.0234C1266.93 43.9104 1266.79 45.4874 1267.68 46.5454Z" fill="white" fill-opacity="0.12"/>
<path d="M1274.75 54.9714C1275.64 56.0284 1277.22 56.1665 1278.27 55.2785C1279.33 54.3905 1279.47 52.8144 1278.58 51.7564C1277.69 50.6994 1276.12 50.5614 1275.06 51.4494C1274 52.3364 1273.86 53.9134 1274.75 54.9714Z" fill="white" fill-opacity="0.12"/>
<path d="M1281.82 63.3974C1282.71 64.4544 1284.29 64.5924 1285.35 63.7044C1286.4 62.8174 1286.54 61.2404 1285.65 60.1824C1284.77 59.1254 1283.19 58.9874 1282.13 59.8754C1281.07 60.7624 1280.94 62.3394 1281.82 63.3974Z" fill="white" fill-opacity="0.12"/>
<path d="M1288.9 71.8235C1289.78 72.8805 1291.36 73.0185 1292.42 72.1305C1293.48 71.2435 1293.61 69.6665 1292.73 68.6085C1291.84 67.5515 1290.26 67.4135 1289.2 68.3015C1288.15 69.1885 1288.01 70.7655 1288.9 71.8235Z" fill="white" fill-opacity="0.12"/>
<path d="M1295.97 80.2495C1296.86 81.3065 1298.43 81.4445 1299.49 80.5565C1300.55 79.6695 1300.69 78.0925 1299.8 77.0345C1298.91 75.9775 1297.33 75.8395 1296.28 76.7275C1295.22 77.6145 1295.08 79.1915 1295.97 80.2495Z" fill="white" fill-opacity="0.12"/>
<path d="M1303.04 88.6754C1303.93 89.7324 1305.51 89.8704 1306.56 88.9824C1307.62 88.0954 1307.76 86.5184 1306.87 85.4604C1305.98 84.4034 1304.41 84.2654 1303.35 85.1534C1302.29 86.0404 1302.15 87.6174 1303.04 88.6754Z" fill="white" fill-opacity="0.12"/>
<path d="M1310.11 97.1014C1311 98.1584 1312.58 98.2965 1313.64 97.4085C1314.69 96.5205 1314.83 94.9434 1313.94 93.8864C1313.06 92.8284 1311.48 92.6914 1310.42 93.5784C1309.36 94.4664 1309.23 96.0434 1310.11 97.1014Z" fill="white" fill-opacity="0.12"/>
<path d="M1317.19 105.527C1318.08 106.584 1319.65 106.722 1320.71 105.834C1321.77 104.946 1321.91 103.369 1321.02 102.312C1320.13 101.254 1318.55 101.117 1317.5 102.005C1316.44 102.892 1316.3 104.469 1317.19 105.527Z" fill="white" fill-opacity="0.12"/>
<path d="M1324.26 113.953C1325.15 115.01 1326.73 115.148 1327.78 114.26C1328.84 113.372 1328.98 111.796 1328.09 110.738C1327.2 109.68 1325.63 109.543 1324.57 110.431C1323.51 111.318 1323.37 112.895 1324.26 113.953Z" fill="white" fill-opacity="0.12"/>
<path d="M1331.33 122.379C1332.22 123.436 1333.8 123.574 1334.86 122.686C1335.91 121.798 1336.05 120.222 1335.16 119.164C1334.28 118.107 1332.7 117.969 1331.64 118.857C1330.58 119.744 1330.45 121.321 1331.33 122.379Z" fill="white" fill-opacity="0.12"/>
<path d="M1338.41 130.805C1339.29 131.862 1340.87 132 1341.93 131.112C1342.99 130.224 1343.12 128.648 1342.24 127.59C1341.35 126.533 1339.77 126.395 1338.71 127.283C1337.66 128.17 1337.52 129.747 1338.41 130.805Z" fill="white" fill-opacity="0.12"/>
<path d="M1345.48 139.231C1346.37 140.288 1347.94 140.426 1349 139.538C1350.06 138.651 1350.2 137.074 1349.31 136.016C1348.42 134.959 1346.85 134.821 1345.79 135.709C1344.73 136.596 1344.59 138.173 1345.48 139.231Z" fill="white" fill-opacity="0.12"/>
<path d="M1259.25 53.6184C1260.14 54.6754 1261.72 54.8134 1262.77 53.9254C1263.83 53.0374 1263.97 51.4614 1263.08 50.4034C1262.19 49.3464 1260.62 49.2084 1259.56 50.0964C1258.5 50.9834 1258.36 52.5604 1259.25 53.6184Z" fill="white" fill-opacity="0.12"/>
<path d="M1266.32 62.0444C1267.21 63.1014 1268.79 63.2394 1269.85 62.3514C1270.9 61.4634 1271.04 59.8874 1270.15 58.8294C1269.27 57.7724 1267.69 57.6344 1266.63 58.5224C1265.57 59.4094 1265.44 60.9864 1266.32 62.0444Z" fill="white" fill-opacity="0.12"/>
<path d="M1273.4 70.4704C1274.28 71.5274 1275.86 71.6654 1276.92 70.7774C1277.98 69.8904 1278.11 68.3134 1277.23 67.2554C1276.34 66.1984 1274.76 66.0604 1273.7 66.9484C1272.65 67.8354 1272.51 69.4124 1273.4 70.4704Z" fill="white" fill-opacity="0.12"/>
<path d="M1280.47 78.8965C1281.36 79.9535 1282.93 80.0915 1283.99 79.2035C1285.05 78.3165 1285.19 76.7395 1284.3 75.6815C1283.41 74.6245 1281.84 74.4865 1280.78 75.3745C1279.72 76.2615 1279.58 77.8385 1280.47 78.8965Z" fill="white" fill-opacity="0.12"/>
<path d="M1287.54 87.3225C1288.43 88.3795 1290.01 88.5175 1291.07 87.6295C1292.12 86.7425 1292.26 85.1655 1291.37 84.1075C1290.49 83.0505 1288.91 82.9125 1287.85 83.8005C1286.79 84.6875 1286.66 86.2645 1287.54 87.3225Z" fill="white" fill-opacity="0.12"/>
<path d="M1294.62 95.7485C1295.5 96.8055 1297.08 96.9435 1298.14 96.0555C1299.2 95.1685 1299.33 93.5915 1298.45 92.5335C1297.56 91.4765 1295.98 91.3385 1294.92 92.2265C1293.87 93.1135 1293.73 94.6905 1294.62 95.7485Z" fill="white" fill-opacity="0.12"/>
<path d="M1301.69 104.174C1302.58 105.231 1304.15 105.369 1305.21 104.481C1306.27 103.593 1306.41 102.016 1305.52 100.959C1304.63 99.9014 1303.05 99.7644 1302 100.651C1300.94 101.539 1300.8 103.116 1301.69 104.174Z" fill="white" fill-opacity="0.12"/>
<path d="M1308.76 112.6C1309.65 113.657 1311.23 113.795 1312.28 112.907C1313.34 112.019 1313.48 110.442 1312.59 109.385C1311.7 108.327 1310.13 108.19 1309.07 109.077C1308.01 109.965 1307.87 111.542 1308.76 112.6Z" fill="white" fill-opacity="0.12"/>
<path d="M1315.83 121.026C1316.72 122.083 1318.3 122.221 1319.36 121.333C1320.41 120.445 1320.55 118.869 1319.66 117.811C1318.78 116.753 1317.2 116.616 1316.14 117.504C1315.08 118.391 1314.95 119.968 1315.83 121.026Z" fill="white" fill-opacity="0.12"/>
<path d="M1322.91 129.452C1323.8 130.509 1325.37 130.647 1326.43 129.759C1327.49 128.871 1327.63 127.295 1326.74 126.237C1325.85 125.18 1324.27 125.042 1323.22 125.93C1322.16 126.817 1322.02 128.394 1322.91 129.452Z" fill="white" fill-opacity="0.12"/>
<path d="M1329.98 137.878C1330.87 138.935 1332.45 139.073 1333.5 138.185C1334.56 137.297 1334.7 135.721 1333.81 134.663C1332.92 133.606 1331.35 133.468 1330.29 134.356C1329.23 135.243 1329.09 136.82 1329.98 137.878Z" fill="white" fill-opacity="0.12"/>
<path d="M1337.05 146.304C1337.94 147.361 1339.52 147.499 1340.58 146.611C1341.63 145.724 1341.77 144.147 1340.88 143.089C1340 142.032 1338.42 141.894 1337.36 142.782C1336.3 143.669 1336.17 145.246 1337.05 146.304Z" fill="white" fill-opacity="0.12"/>
<path d="M1250.82 60.6914C1251.71 61.7484 1253.29 61.8864 1254.35 60.9984C1255.4 60.1104 1255.54 58.5344 1254.65 57.4764C1253.77 56.4194 1252.19 56.2814 1251.13 57.1694C1250.07 58.0564 1249.94 59.6334 1250.82 60.6914Z" fill="white" fill-opacity="0.12"/>
<path d="M1257.9 69.1174C1258.79 70.1744 1260.36 70.3124 1261.42 69.4244C1262.48 68.5364 1262.62 66.9604 1261.73 65.9024C1260.84 64.8454 1259.26 64.7074 1258.21 65.5954C1257.15 66.4824 1257.01 68.0594 1257.9 69.1174Z" fill="white" fill-opacity="0.12"/>
<path d="M1264.97 77.5434C1265.86 78.6004 1267.43 78.7384 1268.49 77.8504C1269.55 76.9634 1269.69 75.3864 1268.8 74.3284C1267.91 73.2714 1266.34 73.1334 1265.28 74.0214C1264.22 74.9084 1264.08 76.4854 1264.97 77.5434Z" fill="white" fill-opacity="0.12"/>
<path d="M1272.04 85.9695C1272.93 87.0265 1274.51 87.1645 1275.57 86.2765C1276.62 85.3895 1276.76 83.8125 1275.87 82.7545C1274.99 81.6975 1273.41 81.5595 1272.35 82.4475C1271.29 83.3345 1271.16 84.9115 1272.04 85.9695Z" fill="white" fill-opacity="0.12"/>
<path d="M1279.12 94.3955C1280 95.4525 1281.58 95.5905 1282.64 94.7025C1283.7 93.8155 1283.83 92.2385 1282.95 91.1805C1282.06 90.1235 1280.48 89.9855 1279.42 90.8735C1278.37 91.7605 1278.23 93.3375 1279.12 94.3955Z" fill="white" fill-opacity="0.12"/>
<path d="M1286.19 102.821C1287.08 103.878 1288.65 104.016 1289.71 103.128C1290.77 102.241 1290.91 100.665 1290.02 99.6065C1289.13 98.5495 1287.55 98.4115 1286.5 99.2995C1285.44 100.187 1285.3 101.763 1286.19 102.821Z" fill="white" fill-opacity="0.12"/>
<path d="M1293.26 111.247C1294.15 112.304 1295.73 112.442 1296.79 111.554C1297.84 110.666 1297.98 109.089 1297.09 108.032C1296.21 106.974 1294.63 106.837 1293.57 107.724C1292.51 108.612 1292.38 110.189 1293.26 111.247Z" fill="white" fill-opacity="0.12"/>
<path d="M1300.34 119.673C1301.22 120.73 1302.8 120.868 1303.86 119.98C1304.92 119.092 1305.05 117.515 1304.17 116.458C1303.28 115.4 1301.7 115.263 1300.64 116.15C1299.59 117.038 1299.45 118.615 1300.34 119.673Z" fill="white" fill-opacity="0.12"/>
<path d="M1307.41 128.099C1308.3 129.156 1309.87 129.294 1310.93 128.406C1311.99 127.518 1312.13 125.942 1311.24 124.884C1310.35 123.826 1308.77 123.689 1307.72 124.577C1306.66 125.464 1306.52 127.041 1307.41 128.099Z" fill="white" fill-opacity="0.12"/>
<path d="M1314.48 136.525C1315.37 137.582 1316.95 137.72 1318 136.832C1319.06 135.944 1319.2 134.368 1318.31 133.31C1317.42 132.252 1315.85 132.115 1314.79 133.003C1313.73 133.89 1313.59 135.467 1314.48 136.525Z" fill="white" fill-opacity="0.12"/>
<path d="M1321.56 144.951C1322.44 146.008 1324.02 146.146 1325.08 145.258C1326.13 144.37 1326.27 142.794 1325.38 141.736C1324.5 140.679 1322.92 140.541 1321.86 141.429C1320.81 142.316 1320.67 143.893 1321.56 144.951Z" fill="white" fill-opacity="0.12"/>
<path d="M1242.4 67.7644C1243.29 68.8214 1244.86 68.9594 1245.92 68.0714C1246.98 67.1834 1247.12 65.6074 1246.23 64.5494C1245.34 63.4924 1243.76 63.3544 1242.71 64.2424C1241.65 65.1294 1241.51 66.7064 1242.4 67.7644Z" fill="white" fill-opacity="0.12"/>
<path d="M1249.47 76.1904C1250.36 77.2474 1251.94 77.3854 1252.99 76.4974C1254.05 75.6094 1254.19 74.0334 1253.3 72.9754C1252.41 71.9184 1250.84 71.7804 1249.78 72.6684C1248.72 73.5554 1248.58 75.1324 1249.47 76.1904Z" fill="white" fill-opacity="0.12"/>
<path d="M1256.55 84.6164C1257.43 85.6734 1259.01 85.8114 1260.07 84.9234C1261.13 84.0364 1261.26 82.4594 1260.38 81.4014C1259.49 80.3444 1257.91 80.2064 1256.85 81.0944C1255.8 81.9814 1255.66 83.5584 1256.55 84.6164Z" fill="white" fill-opacity="0.12"/>
<path d="M1263.62 93.0425C1264.51 94.0995 1266.08 94.2375 1267.14 93.3495C1268.2 92.4625 1268.34 90.8854 1267.45 89.8274C1266.56 88.7704 1264.98 88.6325 1263.93 89.5205C1262.87 90.4075 1262.73 91.9845 1263.62 93.0425Z" fill="white" fill-opacity="0.12"/>
<path d="M1270.69 101.469C1271.58 102.526 1273.16 102.663 1274.21 101.775C1275.27 100.888 1275.41 99.3115 1274.52 98.2535C1273.63 97.1965 1272.06 97.0585 1271 97.9465C1269.94 98.8335 1269.8 100.411 1270.69 101.469Z" fill="white" fill-opacity="0.12"/>
<path d="M1277.76 109.894C1278.65 110.951 1280.23 111.089 1281.29 110.201C1282.34 109.314 1282.48 107.738 1281.59 106.68C1280.71 105.623 1279.13 105.485 1278.07 106.373C1277.01 107.26 1276.88 108.836 1277.76 109.894Z" fill="white" fill-opacity="0.12"/>
<path d="M1284.84 118.32C1285.72 119.377 1287.3 119.515 1288.36 118.627C1289.42 117.739 1289.55 116.162 1288.67 115.105C1287.78 114.047 1286.2 113.91 1285.14 114.797C1284.09 115.685 1283.95 117.262 1284.84 118.32Z" fill="white" fill-opacity="0.12"/>
<path d="M1291.91 126.746C1292.8 127.803 1294.37 127.941 1295.43 127.053C1296.49 126.165 1296.63 124.588 1295.74 123.531C1294.85 122.473 1293.27 122.336 1292.22 123.223C1291.16 124.111 1291.02 125.688 1291.91 126.746Z" fill="white" fill-opacity="0.12"/>
<path d="M1298.98 135.172C1299.87 136.229 1301.45 136.367 1302.5 135.479C1303.56 134.591 1303.7 133.015 1302.81 131.957C1301.92 130.899 1300.35 130.762 1299.29 131.65C1298.23 132.537 1298.09 134.114 1298.98 135.172Z" fill="white" fill-opacity="0.12"/>
<path d="M1306.06 143.598C1306.94 144.655 1308.52 144.793 1309.58 143.905C1310.64 143.017 1310.77 141.441 1309.89 140.383C1309 139.325 1307.42 139.188 1306.36 140.076C1305.31 140.963 1305.17 142.54 1306.06 143.598Z" fill="white" fill-opacity="0.12"/>
<path d="M1313.13 152.024C1314.02 153.081 1315.59 153.219 1316.65 152.331C1317.71 151.443 1317.85 149.867 1316.96 148.809C1316.07 147.752 1314.49 147.614 1313.44 148.502C1312.38 149.389 1312.24 150.966 1313.13 152.024Z" fill="white" fill-opacity="0.12"/>
<path d="M1233.97 74.8374C1234.86 75.8944 1236.44 76.0324 1237.5 75.1444C1238.55 74.2564 1238.69 72.6804 1237.8 71.6224C1236.92 70.5654 1235.34 70.4274 1234.28 71.3154C1233.22 72.2024 1233.09 73.7794 1233.97 74.8374Z" fill="white" fill-opacity="0.12"/>
<path d="M1241.05 83.2634C1241.93 84.3204 1243.51 84.4584 1244.57 83.5704C1245.63 82.6824 1245.76 81.1064 1244.88 80.0484C1243.99 78.9914 1242.41 78.8534 1241.35 79.7414C1240.3 80.6284 1240.16 82.2054 1241.05 83.2634Z" fill="white" fill-opacity="0.12"/>
<path d="M1248.12 91.6894C1249.01 92.7464 1250.58 92.8844 1251.64 91.9964C1252.7 91.1094 1252.84 89.5324 1251.95 88.4744C1251.06 87.4174 1249.48 87.2794 1248.43 88.1674C1247.37 89.0544 1247.23 90.6314 1248.12 91.6894Z" fill="white" fill-opacity="0.12"/>
<path d="M1255.19 100.115C1256.08 101.172 1257.66 101.31 1258.71 100.422C1259.77 99.5355 1259.91 97.9584 1259.02 96.9004C1258.13 95.8434 1256.56 95.7055 1255.5 96.5935C1254.44 97.4805 1254.3 99.0575 1255.19 100.115Z" fill="white" fill-opacity="0.12"/>
<path d="M1262.27 108.542C1263.15 109.599 1264.73 109.736 1265.79 108.848C1266.84 107.961 1266.98 106.384 1266.09 105.326C1265.21 104.269 1263.63 104.131 1262.57 105.019C1261.52 105.906 1261.38 107.484 1262.27 108.542Z" fill="white" fill-opacity="0.12"/>
<path d="M1269.34 116.967C1270.23 118.024 1271.8 118.162 1272.86 117.274C1273.92 116.387 1274.05 114.811 1273.17 113.753C1272.28 112.696 1270.7 112.558 1269.64 113.446C1268.59 114.333 1268.45 115.909 1269.34 116.967Z" fill="white" fill-opacity="0.12"/>
<path d="M1276.41 125.393C1277.3 126.45 1278.88 126.588 1279.93 125.7C1280.99 124.812 1281.13 123.235 1280.24 122.178C1279.35 121.12 1277.78 120.983 1276.72 121.87C1275.66 122.758 1275.52 124.335 1276.41 125.393Z" fill="white" fill-opacity="0.12"/>
<path d="M1283.48 133.819C1284.37 134.876 1285.95 135.014 1287.01 134.126C1288.06 133.238 1288.2 131.661 1287.31 130.604C1286.43 129.546 1284.85 129.409 1283.79 130.296C1282.73 131.184 1282.6 132.761 1283.48 133.819Z" fill="white" fill-opacity="0.12"/>
<path d="M1290.56 142.245C1291.44 143.302 1293.02 143.44 1294.08 142.552C1295.14 141.664 1295.27 140.088 1294.39 139.03C1293.5 137.972 1291.92 137.835 1290.86 138.723C1289.81 139.61 1289.67 141.187 1290.56 142.245Z" fill="white" fill-opacity="0.12"/>
<path d="M1297.63 150.671C1298.52 151.728 1300.1 151.866 1301.15 150.978C1302.21 150.09 1302.35 148.514 1301.46 147.456C1300.57 146.398 1299 146.261 1297.94 147.149C1296.88 148.036 1296.74 149.613 1297.63 150.671Z" fill="white" fill-opacity="0.12"/>
<path d="M1225.55 81.9103C1226.44 82.9673 1228.01 83.1054 1229.07 82.2174C1230.13 81.3294 1230.26 79.7534 1229.38 78.6954C1228.49 77.6384 1226.91 77.5004 1225.85 78.3884C1224.8 79.2754 1224.66 80.8523 1225.55 81.9103Z" fill="white" fill-opacity="0.12"/>
<path d="M1232.62 90.3364C1233.51 91.3934 1235.09 91.5314 1236.14 90.6434C1237.2 89.7554 1237.34 88.1794 1236.45 87.1214C1235.56 86.0644 1233.99 85.9264 1232.93 86.8144C1231.87 87.7014 1231.73 89.2784 1232.62 90.3364Z" fill="white" fill-opacity="0.12"/>
<path d="M1239.69 98.7624C1240.58 99.8194 1242.16 99.9574 1243.22 99.0694C1244.27 98.1824 1244.41 96.6054 1243.52 95.5474C1242.64 94.4904 1241.06 94.3524 1240 95.2404C1238.94 96.1274 1238.81 97.7044 1239.69 98.7624Z" fill="white" fill-opacity="0.12"/>
<path d="M1246.77 107.188C1247.65 108.245 1249.23 108.383 1250.29 107.495C1251.35 106.608 1251.48 105.031 1250.6 103.973C1249.71 102.916 1248.13 102.778 1247.07 103.666C1246.02 104.553 1245.88 106.13 1246.77 107.188Z" fill="white" fill-opacity="0.12"/>
<path d="M1253.84 115.615C1254.73 116.672 1256.3 116.809 1257.36 115.921C1258.42 115.034 1258.56 113.457 1257.67 112.399C1256.78 111.342 1255.2 111.204 1254.15 112.092C1253.09 112.979 1252.95 114.557 1253.84 115.615Z" fill="white" fill-opacity="0.12"/>
<path d="M1260.91 124.04C1261.8 125.097 1263.38 125.235 1264.43 124.347C1265.49 123.46 1265.63 121.884 1264.74 120.826C1263.85 119.769 1262.28 119.631 1261.22 120.519C1260.16 121.406 1260.02 122.982 1260.91 124.04Z" fill="white" fill-opacity="0.12"/>
<path d="M1267.98 132.466C1268.87 133.523 1270.45 133.661 1271.51 132.773C1272.56 131.885 1272.7 130.308 1271.81 129.251C1270.93 128.193 1269.35 128.056 1268.29 128.943C1267.23 129.831 1267.1 131.408 1267.98 132.466Z" fill="white" fill-opacity="0.12"/>
<path d="M1275.06 140.892C1275.95 141.949 1277.52 142.087 1278.58 141.199C1279.64 140.311 1279.78 138.734 1278.89 137.677C1278 136.619 1276.42 136.482 1275.37 137.369C1274.31 138.257 1274.17 139.834 1275.06 140.892Z" fill="white" fill-opacity="0.12"/>
<path d="M1282.13 149.318C1283.02 150.375 1284.6 150.513 1285.65 149.625C1286.71 148.737 1286.85 147.161 1285.96 146.103C1285.07 145.045 1283.5 144.908 1282.44 145.796C1281.38 146.683 1281.24 148.26 1282.13 149.318Z" fill="white" fill-opacity="0.12"/>
<path d="M1229.85 137.824L1217 135.107" stroke="white" stroke-opacity="0.12" stroke-width="2" stroke-linecap="round"/>
<path d="M1224.85 130L1222.13 142.848" stroke="white" stroke-opacity="0.12" stroke-width="2" stroke-linecap="round"/>
<path d="M104.5 92C103.119 92 102 90.881 102 89.5C102 88.12 103.119 87 104.5 87C105.881 87 107 88.12 107 89.5C107 90.881 105.881 92 104.5 92Z" fill="white" fill-opacity="0.12"/>
<path d="M93.5 92C92.1193 92 91 90.881 91 89.5C91 88.12 92.1193 87 93.5 87C94.8807 87 96 88.12 96 89.5C96 90.881 94.8807 92 93.5 92Z" fill="white" fill-opacity="0.12"/>
<path d="M82.5 92C81.1193 92 80 90.881 80 89.5C80 88.12 81.1193 87 82.5 87C83.8807 87 85 88.12 85 89.5C85 90.881 83.8807 92 82.5 92Z" fill="white" fill-opacity="0.12"/>
<path d="M70.5 92C69.1193 92 68 90.881 68 89.5C68 88.12 69.1193 87 70.5 87C71.8807 87 73 88.12 73 89.5C73 90.881 71.8807 92 70.5 92Z" fill="white" fill-opacity="0.12"/>
<path d="M59.5 92C58.1193 92 57 90.881 57 89.5C57 88.12 58.1193 87 59.5 87C60.8807 87 62 88.12 62 89.5C62 90.881 60.8807 92 59.5 92Z" fill="white" fill-opacity="0.12"/>
<path d="M48.5 92C47.1193 92 46 90.881 46 89.5C46 88.12 47.1193 87 48.5 87C49.8807 87 51 88.12 51 89.5C51 90.881 49.8807 92 48.5 92Z" fill="white" fill-opacity="0.12"/>
<path d="M36.5 92C35.1193 92 34 90.881 34 89.5C34 88.12 35.1193 87 36.5 87C37.8807 87 39 88.12 39 89.5C39 90.881 37.8807 92 36.5 92Z" fill="white" fill-opacity="0.12"/>
<path d="M25.5 92C24.1193 92 23 90.881 23 89.5C23 88.12 24.1193 87 25.5 87C26.8807 87 28 88.12 28 89.5C28 90.881 26.8807 92 25.5 92Z" fill="white" fill-opacity="0.12"/>
<path d="M14.5 92C13.1193 92 12 90.881 12 89.5C12 88.12 13.1193 87 14.5 87C15.8807 87 17 88.12 17 89.5C17 90.881 15.8807 92 14.5 92Z" fill="white" fill-opacity="0.12"/>
<path d="M2.5 92C1.11929 92 0 90.881 0 89.5C0 88.12 1.11929 87 2.5 87C3.88071 87 5 88.12 5 89.5C5 90.881 3.88071 92 2.5 92Z" fill="white" fill-opacity="0.12"/>
<path d="M104.5 103C103.119 103 102 101.881 102 100.5C102 99.12 103.119 98 104.5 98C105.881 98 107 99.12 107 100.5C107 101.881 105.881 103 104.5 103Z" fill="white" fill-opacity="0.12"/>
<path d="M93.5 103C92.1193 103 91 101.881 91 100.5C91 99.12 92.1193 98 93.5 98C94.8807 98 96 99.12 96 100.5C96 101.881 94.8807 103 93.5 103Z" fill="white" fill-opacity="0.12"/>
<path d="M82.5 103C81.1193 103 80 101.881 80 100.5C80 99.12 81.1193 98 82.5 98C83.8807 98 85 99.12 85 100.5C85 101.881 83.8807 103 82.5 103Z" fill="white" fill-opacity="0.12"/>
<path d="M70.5 103C69.1193 103 68 101.881 68 100.5C68 99.12 69.1193 98 70.5 98C71.8807 98 73 99.12 73 100.5C73 101.881 71.8807 103 70.5 103Z" fill="white" fill-opacity="0.12"/>
<path d="M59.5 103C58.1193 103 57 101.881 57 100.5C57 99.12 58.1193 98 59.5 98C60.8807 98 62 99.12 62 100.5C62 101.881 60.8807 103 59.5 103Z" fill="white" fill-opacity="0.12"/>
<path d="M48.5 103C47.1193 103 46 101.881 46 100.5C46 99.12 47.1193 98 48.5 98C49.8807 98 51 99.12 51 100.5C51 101.881 49.8807 103 48.5 103Z" fill="white" fill-opacity="0.12"/>
<path d="M36.5 103C35.1193 103 34 101.881 34 100.5C34 99.12 35.1193 98 36.5 98C37.8807 98 39 99.12 39 100.5C39 101.881 37.8807 103 36.5 103Z" fill="white" fill-opacity="0.12"/>
<path d="M25.5 103C24.1193 103 23 101.881 23 100.5C23 99.12 24.1193 98 25.5 98C26.8807 98 28 99.12 28 100.5C28 101.881 26.8807 103 25.5 103Z" fill="white" fill-opacity="0.12"/>
<path d="M14.5 103C13.1193 103 12 101.881 12 100.5C12 99.12 13.1193 98 14.5 98C15.8807 98 17 99.12 17 100.5C17 101.881 15.8807 103 14.5 103Z" fill="white" fill-opacity="0.12"/>
<path d="M2.5 103C1.11929 103 0 101.881 0 100.5C0 99.12 1.11929 98 2.5 98C3.88071 98 5 99.12 5 100.5C5 101.881 3.88071 103 2.5 103Z" fill="white" fill-opacity="0.12"/>
<path d="M104.5 114C103.119 114 102 112.881 102 111.5C102 110.12 103.119 109 104.5 109C105.881 109 107 110.12 107 111.5C107 112.881 105.881 114 104.5 114Z" fill="white" fill-opacity="0.12"/>
<path d="M93.5 114C92.1193 114 91 112.881 91 111.5C91 110.12 92.1193 109 93.5 109C94.8807 109 96 110.12 96 111.5C96 112.881 94.8807 114 93.5 114Z" fill="white" fill-opacity="0.12"/>
<path d="M82.5 114C81.1193 114 80 112.881 80 111.5C80 110.12 81.1193 109 82.5 109C83.8807 109 85 110.12 85 111.5C85 112.881 83.8807 114 82.5 114Z" fill="white" fill-opacity="0.12"/>
<path d="M70.5 114C69.1193 114 68 112.881 68 111.5C68 110.12 69.1193 109 70.5 109C71.8807 109 73 110.12 73 111.5C73 112.881 71.8807 114 70.5 114Z" fill="white" fill-opacity="0.12"/>
<path d="M59.5 114C58.1193 114 57 112.881 57 111.5C57 110.12 58.1193 109 59.5 109C60.8807 109 62 110.12 62 111.5C62 112.881 60.8807 114 59.5 114Z" fill="white" fill-opacity="0.12"/>
<path d="M48.5 114C47.1193 114 46 112.881 46 111.5C46 110.12 47.1193 109 48.5 109C49.8807 109 51 110.12 51 111.5C51 112.881 49.8807 114 48.5 114Z" fill="white" fill-opacity="0.12"/>
<path d="M36.5 114C35.1193 114 34 112.881 34 111.5C34 110.12 35.1193 109 36.5 109C37.8807 109 39 110.12 39 111.5C39 112.881 37.8807 114 36.5 114Z" fill="white" fill-opacity="0.12"/>
<path d="M25.5 114C24.1193 114 23 112.881 23 111.5C23 110.12 24.1193 109 25.5 109C26.8807 109 28 110.12 28 111.5C28 112.881 26.8807 114 25.5 114Z" fill="white" fill-opacity="0.12"/>
<path d="M14.5 114C13.1193 114 12 112.881 12 111.5C12 110.12 13.1193 109 14.5 109C15.8807 109 17 110.12 17 111.5C17 112.881 15.8807 114 14.5 114Z" fill="white" fill-opacity="0.12"/>
<path d="M2.5 114C1.11929 114 0 112.881 0 111.5C0 110.12 1.11929 109 2.5 109C3.88071 109 5 110.12 5 111.5C5 112.881 3.88071 114 2.5 114Z" fill="white" fill-opacity="0.12"/>
<path d="M104.5 125C103.119 125 102 123.881 102 122.5C102 121.12 103.119 120 104.5 120C105.881 120 107 121.12 107 122.5C107 123.881 105.881 125 104.5 125Z" fill="white" fill-opacity="0.12"/>
<path d="M93.5 125C92.1193 125 91 123.881 91 122.5C91 121.12 92.1193 120 93.5 120C94.8807 120 96 121.12 96 122.5C96 123.881 94.8807 125 93.5 125Z" fill="white" fill-opacity="0.12"/>
<path d="M82.5 125C81.1193 125 80 123.881 80 122.5C80 121.12 81.1193 120 82.5 120C83.8807 120 85 121.12 85 122.5C85 123.881 83.8807 125 82.5 125Z" fill="white" fill-opacity="0.12"/>
<path d="M70.5 125C69.1193 125 68 123.881 68 122.5C68 121.12 69.1193 120 70.5 120C71.8807 120 73 121.12 73 122.5C73 123.881 71.8807 125 70.5 125Z" fill="white" fill-opacity="0.12"/>
<path d="M59.5 125C58.1193 125 57 123.881 57 122.5C57 121.12 58.1193 120 59.5 120C60.8807 120 62 121.12 62 122.5C62 123.881 60.8807 125 59.5 125Z" fill="white" fill-opacity="0.12"/>
<path d="M48.5 125C47.1193 125 46 123.881 46 122.5C46 121.12 47.1193 120 48.5 120C49.8807 120 51 121.12 51 122.5C51 123.881 49.8807 125 48.5 125Z" fill="white" fill-opacity="0.12"/>
<path d="M36.5 125C35.1193 125 34 123.881 34 122.5C34 121.12 35.1193 120 36.5 120C37.8807 120 39 121.12 39 122.5C39 123.881 37.8807 125 36.5 125Z" fill="white" fill-opacity="0.12"/>
<path d="M25.5 125C24.1193 125 23 123.881 23 122.5C23 121.12 24.1193 120 25.5 120C26.8807 120 28 121.12 28 122.5C28 123.881 26.8807 125 25.5 125Z" fill="white" fill-opacity="0.12"/>
<path d="M14.5 125C13.1193 125 12 123.881 12 122.5C12 121.12 13.1193 120 14.5 120C15.8807 120 17 121.12 17 122.5C17 123.881 15.8807 125 14.5 125Z" fill="white" fill-opacity="0.12"/>
<path d="M2.5 125C1.11929 125 0 123.881 0 122.5C0 121.12 1.11929 120 2.5 120C3.88071 120 5 121.12 5 122.5C5 123.881 3.88071 125 2.5 125Z" fill="white" fill-opacity="0.12"/>
<path d="M104.5 136C103.119 136 102 134.881 102 133.5C102 132.12 103.119 131 104.5 131C105.881 131 107 132.12 107 133.5C107 134.881 105.881 136 104.5 136Z" fill="white" fill-opacity="0.12"/>
<path d="M93.5 136C92.1193 136 91 134.881 91 133.5C91 132.12 92.1193 131 93.5 131C94.8807 131 96 132.12 96 133.5C96 134.881 94.8807 136 93.5 136Z" fill="white" fill-opacity="0.12"/>
<path d="M82.5 136C81.1193 136 80 134.881 80 133.5C80 132.12 81.1193 131 82.5 131C83.8807 131 85 132.12 85 133.5C85 134.881 83.8807 136 82.5 136Z" fill="white" fill-opacity="0.12"/>
<path d="M70.5 136C69.1193 136 68 134.881 68 133.5C68 132.12 69.1193 131 70.5 131C71.8807 131 73 132.12 73 133.5C73 134.881 71.8807 136 70.5 136Z" fill="white" fill-opacity="0.12"/>
<path d="M59.5 136C58.1193 136 57 134.881 57 133.5C57 132.12 58.1193 131 59.5 131C60.8807 131 62 132.12 62 133.5C62 134.881 60.8807 136 59.5 136Z" fill="white" fill-opacity="0.12"/>
<path d="M48.5 136C47.1193 136 46 134.881 46 133.5C46 132.12 47.1193 131 48.5 131C49.8807 131 51 132.12 51 133.5C51 134.881 49.8807 136 48.5 136Z" fill="white" fill-opacity="0.12"/>
<path d="M36.5 136C35.1193 136 34 134.881 34 133.5C34 132.12 35.1193 131 36.5 131C37.8807 131 39 132.12 39 133.5C39 134.881 37.8807 136 36.5 136Z" fill="white" fill-opacity="0.12"/>
<path d="M25.5 136C24.1193 136 23 134.881 23 133.5C23 132.12 24.1193 131 25.5 131C26.8807 131 28 132.12 28 133.5C28 134.881 26.8807 136 25.5 136Z" fill="white" fill-opacity="0.12"/>
<path d="M14.5 136C13.1193 136 12 134.881 12 133.5C12 132.12 13.1193 131 14.5 131C15.8807 131 17 132.12 17 133.5C17 134.881 15.8807 136 14.5 136Z" fill="white" fill-opacity="0.12"/>
<path d="M2.5 136C1.11929 136 0 134.881 0 133.5C0 132.12 1.11929 131 2.5 131C3.88071 131 5 132.12 5 133.5C5 134.881 3.88071 136 2.5 136Z" fill="white" fill-opacity="0.12"/>
<path d="M104.5 147C103.119 147 102 145.881 102 144.5C102 143.12 103.119 142 104.5 142C105.881 142 107 143.12 107 144.5C107 145.881 105.881 147 104.5 147Z" fill="white" fill-opacity="0.12"/>
<path d="M93.5 147C92.1193 147 91 145.881 91 144.5C91 143.12 92.1193 142 93.5 142C94.8807 142 96 143.12 96 144.5C96 145.881 94.8807 147 93.5 147Z" fill="white" fill-opacity="0.12"/>
<path d="M82.5 147C81.1193 147 80 145.881 80 144.5C80 143.12 81.1193 142 82.5 142C83.8807 142 85 143.12 85 144.5C85 145.881 83.8807 147 82.5 147Z" fill="white" fill-opacity="0.12"/>
<path d="M70.5 147C69.1193 147 68 145.881 68 144.5C68 143.12 69.1193 142 70.5 142C71.8807 142 73 143.12 73 144.5C73 145.881 71.8807 147 70.5 147Z" fill="white" fill-opacity="0.12"/>
<path d="M59.5 147C58.1193 147 57 145.881 57 144.5C57 143.12 58.1193 142 59.5 142C60.8807 142 62 143.12 62 144.5C62 145.881 60.8807 147 59.5 147Z" fill="white" fill-opacity="0.12"/>
<path d="M48.5 147C47.1193 147 46 145.881 46 144.5C46 143.12 47.1193 142 48.5 142C49.8807 142 51 143.12 51 144.5C51 145.881 49.8807 147 48.5 147Z" fill="white" fill-opacity="0.12"/>
<path d="M36.5 147C35.1193 147 34 145.881 34 144.5C34 143.12 35.1193 142 36.5 142C37.8807 142 39 143.12 39 144.5C39 145.881 37.8807 147 36.5 147Z" fill="white" fill-opacity="0.12"/>
<path d="M25.5 147C24.1193 147 23 145.881 23 144.5C23 143.12 24.1193 142 25.5 142C26.8807 142 28 143.12 28 144.5C28 145.881 26.8807 147 25.5 147Z" fill="white" fill-opacity="0.12"/>
<path d="M14.5 147C13.1193 147 12 145.881 12 144.5C12 143.12 13.1193 142 14.5 142C15.8807 142 17 143.12 17 144.5C17 145.881 15.8807 147 14.5 147Z" fill="white" fill-opacity="0.12"/>
<path d="M2.5 147C1.11929 147 0 145.881 0 144.5C0 143.12 1.11929 142 2.5 142C3.88071 142 5 143.12 5 144.5C5 145.881 3.88071 147 2.5 147Z" fill="white" fill-opacity="0.12"/>
<path d="M104.5 158C103.119 158 102 156.881 102 155.5C102 154.12 103.119 153 104.5 153C105.881 153 107 154.12 107 155.5C107 156.881 105.881 158 104.5 158Z" fill="white" fill-opacity="0.12"/>
<path d="M93.5 158C92.1193 158 91 156.881 91 155.5C91 154.12 92.1193 153 93.5 153C94.8807 153 96 154.12 96 155.5C96 156.881 94.8807 158 93.5 158Z" fill="white" fill-opacity="0.12"/>
<path d="M82.5 158C81.1193 158 80 156.881 80 155.5C80 154.12 81.1193 153 82.5 153C83.8807 153 85 154.12 85 155.5C85 156.881 83.8807 158 82.5 158Z" fill="white" fill-opacity="0.12"/>
<path d="M70.5 158C69.1193 158 68 156.881 68 155.5C68 154.12 69.1193 153 70.5 153C71.8807 153 73 154.12 73 155.5C73 156.881 71.8807 158 70.5 158Z" fill="white" fill-opacity="0.12"/>
<path d="M59.5 158C58.1193 158 57 156.881 57 155.5C57 154.12 58.1193 153 59.5 153C60.8807 153 62 154.12 62 155.5C62 156.881 60.8807 158 59.5 158Z" fill="white" fill-opacity="0.12"/>
<path d="M48.5 158C47.1193 158 46 156.881 46 155.5C46 154.12 47.1193 153 48.5 153C49.8807 153 51 154.12 51 155.5C51 156.881 49.8807 158 48.5 158Z" fill="white" fill-opacity="0.12"/>
<path d="M36.5 158C35.1193 158 34 156.881 34 155.5C34 154.12 35.1193 153 36.5 153C37.8807 153 39 154.12 39 155.5C39 156.881 37.8807 158 36.5 158Z" fill="white" fill-opacity="0.12"/>
<path d="M25.5 158C24.1193 158 23 156.881 23 155.5C23 154.12 24.1193 153 25.5 153C26.8807 153 28 154.12 28 155.5C28 156.881 26.8807 158 25.5 158Z" fill="white" fill-opacity="0.12"/>
<path d="M14.5 158C13.1193 158 12 156.881 12 155.5C12 154.12 13.1193 153 14.5 153C15.8807 153 17 154.12 17 155.5C17 156.881 15.8807 158 14.5 158Z" fill="white" fill-opacity="0.12"/>
<path d="M2.5 158C1.11929 158 0 156.881 0 155.5C0 154.12 1.11929 153 2.5 153C3.88071 153 5 154.12 5 155.5C5 156.881 3.88071 158 2.5 158Z" fill="white" fill-opacity="0.12"/>
<path d="M104.5 169C103.119 169 102 167.881 102 166.5C102 165.12 103.119 164 104.5 164C105.881 164 107 165.12 107 166.5C107 167.881 105.881 169 104.5 169Z" fill="white" fill-opacity="0.12"/>
<path d="M93.5 169C92.1193 169 91 167.881 91 166.5C91 165.12 92.1193 164 93.5 164C94.8807 164 96 165.12 96 166.5C96 167.881 94.8807 169 93.5 169Z" fill="white" fill-opacity="0.12"/>
<path d="M82.5 169C81.1193 169 80 167.881 80 166.5C80 165.12 81.1193 164 82.5 164C83.8807 164 85 165.12 85 166.5C85 167.881 83.8807 169 82.5 169Z" fill="white" fill-opacity="0.12"/>
<path d="M70.5 169C69.1193 169 68 167.881 68 166.5C68 165.12 69.1193 164 70.5 164C71.8807 164 73 165.12 73 166.5C73 167.881 71.8807 169 70.5 169Z" fill="white" fill-opacity="0.12"/>
<path d="M59.5 169C58.1193 169 57 167.881 57 166.5C57 165.12 58.1193 164 59.5 164C60.8807 164 62 165.12 62 166.5C62 167.881 60.8807 169 59.5 169Z" fill="white" fill-opacity="0.12"/>
<path d="M48.5 169C47.1193 169 46 167.881 46 166.5C46 165.12 47.1193 164 48.5 164C49.8807 164 51 165.12 51 166.5C51 167.881 49.8807 169 48.5 169Z" fill="white" fill-opacity="0.12"/>
<path d="M36.5 169C35.1193 169 34 167.881 34 166.5C34 165.12 35.1193 164 36.5 164C37.8807 164 39 165.12 39 166.5C39 167.881 37.8807 169 36.5 169Z" fill="white" fill-opacity="0.12"/>
<path d="M25.5 169C24.1193 169 23 167.881 23 166.5C23 165.12 24.1193 164 25.5 164C26.8807 164 28 165.12 28 166.5C28 167.881 26.8807 169 25.5 169Z" fill="white" fill-opacity="0.12"/>
<path d="M14.5 169C13.1193 169 12 167.881 12 166.5C12 165.12 13.1193 164 14.5 164C15.8807 164 17 165.12 17 166.5C17 167.881 15.8807 169 14.5 169Z" fill="white" fill-opacity="0.12"/>
<path d="M2.5 169C1.11929 169 0 167.881 0 166.5C0 165.12 1.11929 164 2.5 164C3.88071 164 5 165.12 5 166.5C5 167.881 3.88071 169 2.5 169Z" fill="white" fill-opacity="0.12"/>
<path d="M104.5 180C103.119 180 102 178.881 102 177.5C102 176.12 103.119 175 104.5 175C105.881 175 107 176.12 107 177.5C107 178.881 105.881 180 104.5 180Z" fill="white" fill-opacity="0.12"/>
<path d="M93.5 180C92.1193 180 91 178.881 91 177.5C91 176.12 92.1193 175 93.5 175C94.8807 175 96 176.12 96 177.5C96 178.881 94.8807 180 93.5 180Z" fill="white" fill-opacity="0.12"/>
<path d="M82.5 180C81.1193 180 80 178.881 80 177.5C80 176.12 81.1193 175 82.5 175C83.8807 175 85 176.12 85 177.5C85 178.881 83.8807 180 82.5 180Z" fill="white" fill-opacity="0.12"/>
<path d="M70.5 180C69.1193 180 68 178.881 68 177.5C68 176.12 69.1193 175 70.5 175C71.8807 175 73 176.12 73 177.5C73 178.881 71.8807 180 70.5 180Z" fill="white" fill-opacity="0.12"/>
<path d="M59.5 180C58.1193 180 57 178.881 57 177.5C57 176.12 58.1193 175 59.5 175C60.8807 175 62 176.12 62 177.5C62 178.881 60.8807 180 59.5 180Z" fill="white" fill-opacity="0.12"/>
<path d="M48.5 180C47.1193 180 46 178.881 46 177.5C46 176.12 47.1193 175 48.5 175C49.8807 175 51 176.12 51 177.5C51 178.881 49.8807 180 48.5 180Z" fill="white" fill-opacity="0.12"/>
<path d="M36.5 180C35.1193 180 34 178.881 34 177.5C34 176.12 35.1193 175 36.5 175C37.8807 175 39 176.12 39 177.5C39 178.881 37.8807 180 36.5 180Z" fill="white" fill-opacity="0.12"/>
<path d="M25.5 180C24.1193 180 23 178.881 23 177.5C23 176.12 24.1193 175 25.5 175C26.8807 175 28 176.12 28 177.5C28 178.881 26.8807 180 25.5 180Z" fill="white" fill-opacity="0.12"/>
<path d="M14.5 180C13.1193 180 12 178.881 12 177.5C12 176.12 13.1193 175 14.5 175C15.8807 175 17 176.12 17 177.5C17 178.881 15.8807 180 14.5 180Z" fill="white" fill-opacity="0.12"/>
<path d="M2.5 180C1.11929 180 0 178.881 0 177.5C0 176.12 1.11929 175 2.5 175C3.88071 175 5 176.12 5 177.5C5 178.881 3.88071 180 2.5 180Z" fill="white" fill-opacity="0.12"/>
<path d="M104.5 191C103.119 191 102 189.881 102 188.5C102 187.12 103.119 186 104.5 186C105.881 186 107 187.12 107 188.5C107 189.881 105.881 191 104.5 191Z" fill="white" fill-opacity="0.12"/>
<path d="M93.5 191C92.1193 191 91 189.881 91 188.5C91 187.12 92.1193 186 93.5 186C94.8807 186 96 187.12 96 188.5C96 189.881 94.8807 191 93.5 191Z" fill="white" fill-opacity="0.12"/>
<path d="M82.5 191C81.1193 191 80 189.881 80 188.5C80 187.12 81.1193 186 82.5 186C83.8807 186 85 187.12 85 188.5C85 189.881 83.8807 191 82.5 191Z" fill="white" fill-opacity="0.12"/>
<path d="M70.5 191C69.1193 191 68 189.881 68 188.5C68 187.12 69.1193 186 70.5 186C71.8807 186 73 187.12 73 188.5C73 189.881 71.8807 191 70.5 191Z" fill="white" fill-opacity="0.12"/>
<path d="M59.5 191C58.1193 191 57 189.881 57 188.5C57 187.12 58.1193 186 59.5 186C60.8807 186 62 187.12 62 188.5C62 189.881 60.8807 191 59.5 191Z" fill="white" fill-opacity="0.12"/>
<path d="M48.5 191C47.1193 191 46 189.881 46 188.5C46 187.12 47.1193 186 48.5 186C49.8807 186 51 187.12 51 188.5C51 189.881 49.8807 191 48.5 191Z" fill="white" fill-opacity="0.12"/>
<path d="M36.5 191C35.1193 191 34 189.881 34 188.5C34 187.12 35.1193 186 36.5 186C37.8807 186 39 187.12 39 188.5C39 189.881 37.8807 191 36.5 191Z" fill="white" fill-opacity="0.12"/>
<path d="M25.5 191C24.1193 191 23 189.881 23 188.5C23 187.12 24.1193 186 25.5 186C26.8807 186 28 187.12 28 188.5C28 189.881 26.8807 191 25.5 191Z" fill="white" fill-opacity="0.12"/>
<path d="M14.5 191C13.1193 191 12 189.881 12 188.5C12 187.12 13.1193 186 14.5 186C15.8807 186 17 187.12 17 188.5C17 189.881 15.8807 191 14.5 191Z" fill="white" fill-opacity="0.12"/>
<path d="M2.5 191C1.11929 191 0 189.881 0 188.5C0 187.12 1.11929 186 2.5 186C3.88071 186 5 187.12 5 188.5C5 189.881 3.88071 191 2.5 191Z" fill="white" fill-opacity="0.12"/>
<path d="M104.5 202C103.119 202 102 200.881 102 199.5C102 198.12 103.119 197 104.5 197C105.881 197 107 198.12 107 199.5C107 200.881 105.881 202 104.5 202Z" fill="white" fill-opacity="0.12"/>
<path d="M93.5 202C92.1193 202 91 200.881 91 199.5C91 198.12 92.1193 197 93.5 197C94.8807 197 96 198.12 96 199.5C96 200.881 94.8807 202 93.5 202Z" fill="white" fill-opacity="0.12"/>
<path d="M82.5 202C81.1193 202 80 200.881 80 199.5C80 198.12 81.1193 197 82.5 197C83.8807 197 85 198.12 85 199.5C85 200.881 83.8807 202 82.5 202Z" fill="white" fill-opacity="0.12"/>
<path d="M70.5 202C69.1193 202 68 200.881 68 199.5C68 198.12 69.1193 197 70.5 197C71.8807 197 73 198.12 73 199.5C73 200.881 71.8807 202 70.5 202Z" fill="white" fill-opacity="0.12"/>
<path d="M59.5 202C58.1193 202 57 200.881 57 199.5C57 198.12 58.1193 197 59.5 197C60.8807 197 62 198.12 62 199.5C62 200.881 60.8807 202 59.5 202Z" fill="white" fill-opacity="0.12"/>
<path d="M48.5 202C47.1193 202 46 200.881 46 199.5C46 198.12 47.1193 197 48.5 197C49.8807 197 51 198.12 51 199.5C51 200.881 49.8807 202 48.5 202Z" fill="white" fill-opacity="0.12"/>
<path d="M36.5 202C35.1193 202 34 200.881 34 199.5C34 198.12 35.1193 197 36.5 197C37.8807 197 39 198.12 39 199.5C39 200.881 37.8807 202 36.5 202Z" fill="white" fill-opacity="0.12"/>
<path d="M25.5 202C24.1193 202 23 200.881 23 199.5C23 198.12 24.1193 197 25.5 197C26.8807 197 28 198.12 28 199.5C28 200.881 26.8807 202 25.5 202Z" fill="white" fill-opacity="0.12"/>
<path d="M14.5 202C13.1193 202 12 200.881 12 199.5C12 198.12 13.1193 197 14.5 197C15.8807 197 17 198.12 17 199.5C17 200.881 15.8807 202 14.5 202Z" fill="white" fill-opacity="0.12"/>
<path d="M2.5 202C1.11929 202 0 200.881 0 199.5C0 198.12 1.11929 197 2.5 197C3.88071 197 5 198.12 5 199.5C5 200.881 3.88071 202 2.5 202Z" fill="white" fill-opacity="0.12"/>
<path d="M104.5 213C103.119 213 102 211.881 102 210.5C102 209.12 103.119 208 104.5 208C105.881 208 107 209.12 107 210.5C107 211.881 105.881 213 104.5 213Z" fill="white" fill-opacity="0.12"/>
<path d="M93.5 213C92.1193 213 91 211.881 91 210.5C91 209.12 92.1193 208 93.5 208C94.8807 208 96 209.12 96 210.5C96 211.881 94.8807 213 93.5 213Z" fill="white" fill-opacity="0.12"/>
<path d="M82.5 213C81.1193 213 80 211.881 80 210.5C80 209.12 81.1193 208 82.5 208C83.8807 208 85 209.12 85 210.5C85 211.881 83.8807 213 82.5 213Z" fill="white" fill-opacity="0.12"/>
<path d="M70.5 213C69.1193 213 68 211.881 68 210.5C68 209.12 69.1193 208 70.5 208C71.8807 208 73 209.12 73 210.5C73 211.881 71.8807 213 70.5 213Z" fill="white" fill-opacity="0.12"/>
<path d="M59.5 213C58.1193 213 57 211.881 57 210.5C57 209.12 58.1193 208 59.5 208C60.8807 208 62 209.12 62 210.5C62 211.881 60.8807 213 59.5 213Z" fill="white" fill-opacity="0.12"/>
<path d="M48.5 213C47.1193 213 46 211.881 46 210.5C46 209.12 47.1193 208 48.5 208C49.8807 208 51 209.12 51 210.5C51 211.881 49.8807 213 48.5 213Z" fill="white" fill-opacity="0.12"/>
<path d="M36.5 213C35.1193 213 34 211.881 34 210.5C34 209.12 35.1193 208 36.5 208C37.8807 208 39 209.12 39 210.5C39 211.881 37.8807 213 36.5 213Z" fill="white" fill-opacity="0.12"/>
<path d="M25.5 213C24.1193 213 23 211.881 23 210.5C23 209.12 24.1193 208 25.5 208C26.8807 208 28 209.12 28 210.5C28 211.881 26.8807 213 25.5 213Z" fill="white" fill-opacity="0.12"/>
<path d="M14.5 213C13.1193 213 12 211.881 12 210.5C12 209.12 13.1193 208 14.5 208C15.8807 208 17 209.12 17 210.5C17 211.881 15.8807 213 14.5 213Z" fill="white" fill-opacity="0.12"/>
<path d="M2.5 213C1.11929 213 0 211.881 0 210.5C0 209.12 1.11929 208 2.5 208C3.88071 208 5 209.12 5 210.5C5 211.881 3.88071 213 2.5 213Z" fill="white" fill-opacity="0.12"/>
<path d="M104.5 224C103.119 224 102 222.881 102 221.5C102 220.12 103.119 219 104.5 219C105.881 219 107 220.12 107 221.5C107 222.881 105.881 224 104.5 224Z" fill="white" fill-opacity="0.12"/>
<path d="M93.5 224C92.1193 224 91 222.881 91 221.5C91 220.12 92.1193 219 93.5 219C94.8807 219 96 220.12 96 221.5C96 222.881 94.8807 224 93.5 224Z" fill="white" fill-opacity="0.12"/>
<path d="M82.5 224C81.1193 224 80 222.881 80 221.5C80 220.12 81.1193 219 82.5 219C83.8807 219 85 220.12 85 221.5C85 222.881 83.8807 224 82.5 224Z" fill="white" fill-opacity="0.12"/>
<path d="M70.5 224C69.1193 224 68 222.881 68 221.5C68 220.12 69.1193 219 70.5 219C71.8807 219 73 220.12 73 221.5C73 222.881 71.8807 224 70.5 224Z" fill="white" fill-opacity="0.12"/>
<path d="M59.5 224C58.1193 224 57 222.881 57 221.5C57 220.12 58.1193 219 59.5 219C60.8807 219 62 220.12 62 221.5C62 222.881 60.8807 224 59.5 224Z" fill="white" fill-opacity="0.12"/>
<path d="M48.5 224C47.1193 224 46 222.881 46 221.5C46 220.12 47.1193 219 48.5 219C49.8807 219 51 220.12 51 221.5C51 222.881 49.8807 224 48.5 224Z" fill="white" fill-opacity="0.12"/>
<path d="M36.5 224C35.1193 224 34 222.881 34 221.5C34 220.12 35.1193 219 36.5 219C37.8807 219 39 220.12 39 221.5C39 222.881 37.8807 224 36.5 224Z" fill="white" fill-opacity="0.12"/>
<path d="M25.5 224C24.1193 224 23 222.881 23 221.5C23 220.12 24.1193 219 25.5 219C26.8807 219 28 220.12 28 221.5C28 222.881 26.8807 224 25.5 224Z" fill="white" fill-opacity="0.12"/>
<path d="M14.5 224C13.1193 224 12 222.881 12 221.5C12 220.12 13.1193 219 14.5 219C15.8807 219 17 220.12 17 221.5C17 222.881 15.8807 224 14.5 224Z" fill="white" fill-opacity="0.12"/>
<path d="M2.5 224C1.11929 224 0 222.881 0 221.5C0 220.12 1.11929 219 2.5 219C3.88071 219 5 220.12 5 221.5C5 222.881 3.88071 224 2.5 224Z" fill="white" fill-opacity="0.12"/>
</svg>
