<svg width="1440" height="785" viewBox="0 0 1440 785" fill="none" xmlns="http://www.w3.org/2000/svg">
<path opacity="0.8" d="M65.8164 277.844L164.486 329.344L70.8536 389.031L65.8164 277.844Z" fill="#E9F5FB"/>
<g filter="url(#filter0_d)">
<circle cx="1302.23" cy="14.2294" r="162.148" transform="rotate(-168.057 1302.23 14.2294)" stroke="#DCEFF9" stroke-width="2"/>
</g>
<line x1="1223.42" y1="123.77" x2="1210.57" y2="121.052" stroke="#DCEFF9" stroke-width="2" stroke-linecap="round"/>
<line x1="1218.42" y1="115.946" x2="1215.7" y2="128.793" stroke="#DCEFF9" stroke-width="2" stroke-linecap="round"/>
<circle cx="1181.44" cy="151.087" r="5.14745" transform="rotate(-168.057 1181.44 151.087)" stroke="#DCEFF9" stroke-width="2"/>
<path d="M1327.5 247C1328.88 247 1330 245.881 1330 244.5C1330 243.12 1328.88 242 1327.5 242C1326.12 242 1325 243.12 1325 244.5C1325 245.881 1326.12 247 1327.5 247Z" fill="#E9F5FB"/>
<path d="M1338.5 247C1339.88 247 1341 245.881 1341 244.5C1341 243.12 1339.88 242 1338.5 242C1337.12 242 1336 243.12 1336 244.5C1336 245.881 1337.12 247 1338.5 247Z" fill="#E9F5FB"/>
<path d="M1349.5 247C1350.88 247 1352 245.881 1352 244.5C1352 243.12 1350.88 242 1349.5 242C1348.12 242 1347 243.12 1347 244.5C1347 245.881 1348.12 247 1349.5 247Z" fill="#E9F5FB"/>
<path d="M1360.5 247C1361.88 247 1363 245.881 1363 244.5C1363 243.12 1361.88 242 1360.5 242C1359.12 242 1358 243.12 1358 244.5C1358 245.881 1359.12 247 1360.5 247Z" fill="#E9F5FB"/>
<path d="M1371.5 247C1372.88 247 1374 245.881 1374 244.5C1374 243.12 1372.88 242 1371.5 242C1370.12 242 1369 243.12 1369 244.5C1369 245.881 1370.12 247 1371.5 247Z" fill="#E9F5FB"/>
<path d="M1382.5 247C1383.88 247 1385 245.881 1385 244.5C1385 243.12 1383.88 242 1382.5 242C1381.12 242 1380 243.12 1380 244.5C1380 245.881 1381.12 247 1382.5 247Z" fill="#E9F5FB"/>
<path d="M1393.5 247C1394.88 247 1396 245.881 1396 244.5C1396 243.12 1394.88 242 1393.5 242C1392.12 242 1391 243.12 1391 244.5C1391 245.881 1392.12 247 1393.5 247Z" fill="#E9F5FB"/>
<path d="M1404.5 247C1405.88 247 1407 245.881 1407 244.5C1407 243.12 1405.88 242 1404.5 242C1403.12 242 1402 243.12 1402 244.5C1402 245.881 1403.12 247 1404.5 247Z" fill="#E9F5FB"/>
<path d="M1415.5 247C1416.88 247 1418 245.881 1418 244.5C1418 243.12 1416.88 242 1415.5 242C1414.12 242 1413 243.12 1413 244.5C1413 245.881 1414.12 247 1415.5 247Z" fill="#E9F5FB"/>
<path d="M1327.5 258C1328.88 258 1330 256.881 1330 255.5C1330 254.12 1328.88 253 1327.5 253C1326.12 253 1325 254.12 1325 255.5C1325 256.881 1326.12 258 1327.5 258Z" fill="#E9F5FB"/>
<path d="M1338.5 258C1339.88 258 1341 256.881 1341 255.5C1341 254.12 1339.88 253 1338.5 253C1337.12 253 1336 254.12 1336 255.5C1336 256.881 1337.12 258 1338.5 258Z" fill="#E9F5FB"/>
<path d="M1349.5 258C1350.88 258 1352 256.881 1352 255.5C1352 254.12 1350.88 253 1349.5 253C1348.12 253 1347 254.12 1347 255.5C1347 256.881 1348.12 258 1349.5 258Z" fill="#E9F5FB"/>
<path d="M1360.5 258C1361.88 258 1363 256.881 1363 255.5C1363 254.12 1361.88 253 1360.5 253C1359.12 253 1358 254.12 1358 255.5C1358 256.881 1359.12 258 1360.5 258Z" fill="#E9F5FB"/>
<path d="M1371.5 258C1372.88 258 1374 256.881 1374 255.5C1374 254.12 1372.88 253 1371.5 253C1370.12 253 1369 254.12 1369 255.5C1369 256.881 1370.12 258 1371.5 258Z" fill="#E9F5FB"/>
<path d="M1382.5 258C1383.88 258 1385 256.881 1385 255.5C1385 254.12 1383.88 253 1382.5 253C1381.12 253 1380 254.12 1380 255.5C1380 256.881 1381.12 258 1382.5 258Z" fill="#E9F5FB"/>
<path d="M1393.5 258C1394.88 258 1396 256.881 1396 255.5C1396 254.12 1394.88 253 1393.5 253C1392.12 253 1391 254.12 1391 255.5C1391 256.881 1392.12 258 1393.5 258Z" fill="#E9F5FB"/>
<path d="M1404.5 258C1405.88 258 1407 256.881 1407 255.5C1407 254.12 1405.88 253 1404.5 253C1403.12 253 1402 254.12 1402 255.5C1402 256.881 1403.12 258 1404.5 258Z" fill="#E9F5FB"/>
<path d="M1415.5 258C1416.88 258 1418 256.881 1418 255.5C1418 254.12 1416.88 253 1415.5 253C1414.12 253 1413 254.12 1413 255.5C1413 256.881 1414.12 258 1415.5 258Z" fill="#E9F5FB"/>
<path d="M1327.5 269C1328.88 269 1330 267.881 1330 266.5C1330 265.12 1328.88 264 1327.5 264C1326.12 264 1325 265.12 1325 266.5C1325 267.881 1326.12 269 1327.5 269Z" fill="#E9F5FB"/>
<path d="M1338.5 269C1339.88 269 1341 267.881 1341 266.5C1341 265.12 1339.88 264 1338.5 264C1337.12 264 1336 265.12 1336 266.5C1336 267.881 1337.12 269 1338.5 269Z" fill="#E9F5FB"/>
<path d="M1349.5 269C1350.88 269 1352 267.881 1352 266.5C1352 265.12 1350.88 264 1349.5 264C1348.12 264 1347 265.12 1347 266.5C1347 267.881 1348.12 269 1349.5 269Z" fill="#E9F5FB"/>
<path d="M1360.5 269C1361.88 269 1363 267.881 1363 266.5C1363 265.12 1361.88 264 1360.5 264C1359.12 264 1358 265.12 1358 266.5C1358 267.881 1359.12 269 1360.5 269Z" fill="#E9F5FB"/>
<path d="M1371.5 269C1372.88 269 1374 267.881 1374 266.5C1374 265.12 1372.88 264 1371.5 264C1370.12 264 1369 265.12 1369 266.5C1369 267.881 1370.12 269 1371.5 269Z" fill="#E9F5FB"/>
<path d="M1382.5 269C1383.88 269 1385 267.881 1385 266.5C1385 265.12 1383.88 264 1382.5 264C1381.12 264 1380 265.12 1380 266.5C1380 267.881 1381.12 269 1382.5 269Z" fill="#E9F5FB"/>
<path d="M1393.5 269C1394.88 269 1396 267.881 1396 266.5C1396 265.12 1394.88 264 1393.5 264C1392.12 264 1391 265.12 1391 266.5C1391 267.881 1392.12 269 1393.5 269Z" fill="#E9F5FB"/>
<path d="M1404.5 269C1405.88 269 1407 267.881 1407 266.5C1407 265.12 1405.88 264 1404.5 264C1403.12 264 1402 265.12 1402 266.5C1402 267.881 1403.12 269 1404.5 269Z" fill="#E9F5FB"/>
<path d="M1415.5 269C1416.88 269 1418 267.881 1418 266.5C1418 265.12 1416.88 264 1415.5 264C1414.12 264 1413 265.12 1413 266.5C1413 267.881 1414.12 269 1415.5 269Z" fill="#E9F5FB"/>
<path d="M1327.5 280C1328.88 280 1330 278.881 1330 277.5C1330 276.12 1328.88 275 1327.5 275C1326.12 275 1325 276.12 1325 277.5C1325 278.881 1326.12 280 1327.5 280Z" fill="#E9F5FB"/>
<path d="M1338.5 280C1339.88 280 1341 278.881 1341 277.5C1341 276.12 1339.88 275 1338.5 275C1337.12 275 1336 276.12 1336 277.5C1336 278.881 1337.12 280 1338.5 280Z" fill="#E9F5FB"/>
<path d="M1349.5 280C1350.88 280 1352 278.881 1352 277.5C1352 276.12 1350.88 275 1349.5 275C1348.12 275 1347 276.12 1347 277.5C1347 278.881 1348.12 280 1349.5 280Z" fill="#E9F5FB"/>
<path d="M1360.5 280C1361.88 280 1363 278.881 1363 277.5C1363 276.12 1361.88 275 1360.5 275C1359.12 275 1358 276.12 1358 277.5C1358 278.881 1359.12 280 1360.5 280Z" fill="#E9F5FB"/>
<path d="M1371.5 280C1372.88 280 1374 278.881 1374 277.5C1374 276.12 1372.88 275 1371.5 275C1370.12 275 1369 276.12 1369 277.5C1369 278.881 1370.12 280 1371.5 280Z" fill="#E9F5FB"/>
<path d="M1382.5 280C1383.88 280 1385 278.881 1385 277.5C1385 276.12 1383.88 275 1382.5 275C1381.12 275 1380 276.12 1380 277.5C1380 278.881 1381.12 280 1382.5 280Z" fill="#E9F5FB"/>
<path d="M1393.5 280C1394.88 280 1396 278.881 1396 277.5C1396 276.12 1394.88 275 1393.5 275C1392.12 275 1391 276.12 1391 277.5C1391 278.881 1392.12 280 1393.5 280Z" fill="#E9F5FB"/>
<path d="M1404.5 280C1405.88 280 1407 278.881 1407 277.5C1407 276.12 1405.88 275 1404.5 275C1403.12 275 1402 276.12 1402 277.5C1402 278.881 1403.12 280 1404.5 280Z" fill="#E9F5FB"/>
<path d="M1415.5 280C1416.88 280 1418 278.881 1418 277.5C1418 276.12 1416.88 275 1415.5 275C1414.12 275 1413 276.12 1413 277.5C1413 278.881 1414.12 280 1415.5 280Z" fill="#E9F5FB"/>
<path d="M1327.5 291C1328.88 291 1330 289.881 1330 288.5C1330 287.12 1328.88 286 1327.5 286C1326.12 286 1325 287.12 1325 288.5C1325 289.881 1326.12 291 1327.5 291Z" fill="#E9F5FB"/>
<path d="M1338.5 291C1339.88 291 1341 289.881 1341 288.5C1341 287.12 1339.88 286 1338.5 286C1337.12 286 1336 287.12 1336 288.5C1336 289.881 1337.12 291 1338.5 291Z" fill="#E9F5FB"/>
<path d="M1349.5 291C1350.88 291 1352 289.881 1352 288.5C1352 287.12 1350.88 286 1349.5 286C1348.12 286 1347 287.12 1347 288.5C1347 289.881 1348.12 291 1349.5 291Z" fill="#E9F5FB"/>
<path d="M1360.5 291C1361.88 291 1363 289.881 1363 288.5C1363 287.12 1361.88 286 1360.5 286C1359.12 286 1358 287.12 1358 288.5C1358 289.881 1359.12 291 1360.5 291Z" fill="#E9F5FB"/>
<path d="M1371.5 291C1372.88 291 1374 289.881 1374 288.5C1374 287.12 1372.88 286 1371.5 286C1370.12 286 1369 287.12 1369 288.5C1369 289.881 1370.12 291 1371.5 291Z" fill="#E9F5FB"/>
<path d="M1382.5 291C1383.88 291 1385 289.881 1385 288.5C1385 287.12 1383.88 286 1382.5 286C1381.12 286 1380 287.12 1380 288.5C1380 289.881 1381.12 291 1382.5 291Z" fill="#E9F5FB"/>
<path d="M1393.5 291C1394.88 291 1396 289.881 1396 288.5C1396 287.12 1394.88 286 1393.5 286C1392.12 286 1391 287.12 1391 288.5C1391 289.881 1392.12 291 1393.5 291Z" fill="#E9F5FB"/>
<path d="M1404.5 291C1405.88 291 1407 289.881 1407 288.5C1407 287.12 1405.88 286 1404.5 286C1403.12 286 1402 287.12 1402 288.5C1402 289.881 1403.12 291 1404.5 291Z" fill="#E9F5FB"/>
<path d="M1415.5 291C1416.88 291 1418 289.881 1418 288.5C1418 287.12 1416.88 286 1415.5 286C1414.12 286 1413 287.12 1413 288.5C1413 289.881 1414.12 291 1415.5 291Z" fill="#E9F5FB"/>
<path d="M1327.5 302C1328.88 302 1330 300.881 1330 299.5C1330 298.12 1328.88 297 1327.5 297C1326.12 297 1325 298.12 1325 299.5C1325 300.881 1326.12 302 1327.5 302Z" fill="#E9F5FB"/>
<path d="M1338.5 302C1339.88 302 1341 300.881 1341 299.5C1341 298.12 1339.88 297 1338.5 297C1337.12 297 1336 298.12 1336 299.5C1336 300.881 1337.12 302 1338.5 302Z" fill="#E9F5FB"/>
<path d="M1349.5 302C1350.88 302 1352 300.881 1352 299.5C1352 298.12 1350.88 297 1349.5 297C1348.12 297 1347 298.12 1347 299.5C1347 300.881 1348.12 302 1349.5 302Z" fill="#E9F5FB"/>
<path d="M1360.5 302C1361.88 302 1363 300.881 1363 299.5C1363 298.12 1361.88 297 1360.5 297C1359.12 297 1358 298.12 1358 299.5C1358 300.881 1359.12 302 1360.5 302Z" fill="#E9F5FB"/>
<path d="M1371.5 302C1372.88 302 1374 300.881 1374 299.5C1374 298.12 1372.88 297 1371.5 297C1370.12 297 1369 298.12 1369 299.5C1369 300.881 1370.12 302 1371.5 302Z" fill="#E9F5FB"/>
<path d="M1382.5 302C1383.88 302 1385 300.881 1385 299.5C1385 298.12 1383.88 297 1382.5 297C1381.12 297 1380 298.12 1380 299.5C1380 300.881 1381.12 302 1382.5 302Z" fill="#E9F5FB"/>
<path d="M1393.5 302C1394.88 302 1396 300.881 1396 299.5C1396 298.12 1394.88 297 1393.5 297C1392.12 297 1391 298.12 1391 299.5C1391 300.881 1392.12 302 1393.5 302Z" fill="#E9F5FB"/>
<path d="M1404.5 302C1405.88 302 1407 300.881 1407 299.5C1407 298.12 1405.88 297 1404.5 297C1403.12 297 1402 298.12 1402 299.5C1402 300.881 1403.12 302 1404.5 302Z" fill="#E9F5FB"/>
<path d="M1415.5 302C1416.88 302 1418 300.881 1418 299.5C1418 298.12 1416.88 297 1415.5 297C1414.12 297 1413 298.12 1413 299.5C1413 300.881 1414.12 302 1415.5 302Z" fill="#E9F5FB"/>
<path d="M1327.5 313C1328.88 313 1330 311.881 1330 310.5C1330 309.12 1328.88 308 1327.5 308C1326.12 308 1325 309.12 1325 310.5C1325 311.881 1326.12 313 1327.5 313Z" fill="#E9F5FB"/>
<path d="M1338.5 313C1339.88 313 1341 311.881 1341 310.5C1341 309.12 1339.88 308 1338.5 308C1337.12 308 1336 309.12 1336 310.5C1336 311.881 1337.12 313 1338.5 313Z" fill="#E9F5FB"/>
<path d="M1349.5 313C1350.88 313 1352 311.881 1352 310.5C1352 309.12 1350.88 308 1349.5 308C1348.12 308 1347 309.12 1347 310.5C1347 311.881 1348.12 313 1349.5 313Z" fill="#E9F5FB"/>
<path d="M1360.5 313C1361.88 313 1363 311.881 1363 310.5C1363 309.12 1361.88 308 1360.5 308C1359.12 308 1358 309.12 1358 310.5C1358 311.881 1359.12 313 1360.5 313Z" fill="#E9F5FB"/>
<path d="M1371.5 313C1372.88 313 1374 311.881 1374 310.5C1374 309.12 1372.88 308 1371.5 308C1370.12 308 1369 309.12 1369 310.5C1369 311.881 1370.12 313 1371.5 313Z" fill="#E9F5FB"/>
<path d="M1382.5 313C1383.88 313 1385 311.881 1385 310.5C1385 309.12 1383.88 308 1382.5 308C1381.12 308 1380 309.12 1380 310.5C1380 311.881 1381.12 313 1382.5 313Z" fill="#E9F5FB"/>
<path d="M1393.5 313C1394.88 313 1396 311.881 1396 310.5C1396 309.12 1394.88 308 1393.5 308C1392.12 308 1391 309.12 1391 310.5C1391 311.881 1392.12 313 1393.5 313Z" fill="#E9F5FB"/>
<path d="M1404.5 313C1405.88 313 1407 311.881 1407 310.5C1407 309.12 1405.88 308 1404.5 308C1403.12 308 1402 309.12 1402 310.5C1402 311.881 1403.12 313 1404.5 313Z" fill="#E9F5FB"/>
<path d="M1415.5 313C1416.88 313 1418 311.881 1418 310.5C1418 309.12 1416.88 308 1415.5 308C1414.12 308 1413 309.12 1413 310.5C1413 311.881 1414.12 313 1415.5 313Z" fill="#E9F5FB"/>
<path d="M1327.5 324C1328.88 324 1330 322.881 1330 321.5C1330 320.12 1328.88 319 1327.5 319C1326.12 319 1325 320.12 1325 321.5C1325 322.881 1326.12 324 1327.5 324Z" fill="#E9F5FB"/>
<path d="M1338.5 324C1339.88 324 1341 322.881 1341 321.5C1341 320.12 1339.88 319 1338.5 319C1337.12 319 1336 320.12 1336 321.5C1336 322.881 1337.12 324 1338.5 324Z" fill="#E9F5FB"/>
<path d="M1349.5 324C1350.88 324 1352 322.881 1352 321.5C1352 320.12 1350.88 319 1349.5 319C1348.12 319 1347 320.12 1347 321.5C1347 322.881 1348.12 324 1349.5 324Z" fill="#E9F5FB"/>
<path d="M1360.5 324C1361.88 324 1363 322.881 1363 321.5C1363 320.12 1361.88 319 1360.5 319C1359.12 319 1358 320.12 1358 321.5C1358 322.881 1359.12 324 1360.5 324Z" fill="#E9F5FB"/>
<path d="M1371.5 324C1372.88 324 1374 322.881 1374 321.5C1374 320.12 1372.88 319 1371.5 319C1370.12 319 1369 320.12 1369 321.5C1369 322.881 1370.12 324 1371.5 324Z" fill="#E9F5FB"/>
<path d="M1382.5 324C1383.88 324 1385 322.881 1385 321.5C1385 320.12 1383.88 319 1382.5 319C1381.12 319 1380 320.12 1380 321.5C1380 322.881 1381.12 324 1382.5 324Z" fill="#E9F5FB"/>
<path d="M1393.5 324C1394.88 324 1396 322.881 1396 321.5C1396 320.12 1394.88 319 1393.5 319C1392.12 319 1391 320.12 1391 321.5C1391 322.881 1392.12 324 1393.5 324Z" fill="#E9F5FB"/>
<path d="M1404.5 324C1405.88 324 1407 322.881 1407 321.5C1407 320.12 1405.88 319 1404.5 319C1403.12 319 1402 320.12 1402 321.5C1402 322.881 1403.12 324 1404.5 324Z" fill="#E9F5FB"/>
<path d="M1415.5 324C1416.88 324 1418 322.881 1418 321.5C1418 320.12 1416.88 319 1415.5 319C1414.12 319 1413 320.12 1413 321.5C1413 322.881 1414.12 324 1415.5 324Z" fill="#E9F5FB"/>
<path d="M1327.5 335C1328.88 335 1330 333.881 1330 332.5C1330 331.12 1328.88 330 1327.5 330C1326.12 330 1325 331.12 1325 332.5C1325 333.881 1326.12 335 1327.5 335Z" fill="#E9F5FB"/>
<path d="M1338.5 335C1339.88 335 1341 333.881 1341 332.5C1341 331.12 1339.88 330 1338.5 330C1337.12 330 1336 331.12 1336 332.5C1336 333.881 1337.12 335 1338.5 335Z" fill="#E9F5FB"/>
<path d="M1349.5 335C1350.88 335 1352 333.881 1352 332.5C1352 331.12 1350.88 330 1349.5 330C1348.12 330 1347 331.12 1347 332.5C1347 333.881 1348.12 335 1349.5 335Z" fill="#E9F5FB"/>
<path d="M1360.5 335C1361.88 335 1363 333.881 1363 332.5C1363 331.12 1361.88 330 1360.5 330C1359.12 330 1358 331.12 1358 332.5C1358 333.881 1359.12 335 1360.5 335Z" fill="#E9F5FB"/>
<path d="M1371.5 335C1372.88 335 1374 333.881 1374 332.5C1374 331.12 1372.88 330 1371.5 330C1370.12 330 1369 331.12 1369 332.5C1369 333.881 1370.12 335 1371.5 335Z" fill="#E9F5FB"/>
<path d="M1382.5 335C1383.88 335 1385 333.881 1385 332.5C1385 331.12 1383.88 330 1382.5 330C1381.12 330 1380 331.12 1380 332.5C1380 333.881 1381.12 335 1382.5 335Z" fill="#E9F5FB"/>
<path d="M1393.5 335C1394.88 335 1396 333.881 1396 332.5C1396 331.12 1394.88 330 1393.5 330C1392.12 330 1391 331.12 1391 332.5C1391 333.881 1392.12 335 1393.5 335Z" fill="#E9F5FB"/>
<path d="M1404.5 335C1405.88 335 1407 333.881 1407 332.5C1407 331.12 1405.88 330 1404.5 330C1403.12 330 1402 331.12 1402 332.5C1402 333.881 1403.12 335 1404.5 335Z" fill="#E9F5FB"/>
<path d="M1415.5 335C1416.88 335 1418 333.881 1418 332.5C1418 331.12 1416.88 330 1415.5 330C1414.12 330 1413 331.12 1413 332.5C1413 333.881 1414.12 335 1415.5 335Z" fill="#E9F5FB"/>
<path d="M1327.5 346C1328.88 346 1330 344.881 1330 343.5C1330 342.12 1328.88 341 1327.5 341C1326.12 341 1325 342.12 1325 343.5C1325 344.881 1326.12 346 1327.5 346Z" fill="#E9F5FB"/>
<path d="M1338.5 346C1339.88 346 1341 344.881 1341 343.5C1341 342.12 1339.88 341 1338.5 341C1337.12 341 1336 342.12 1336 343.5C1336 344.881 1337.12 346 1338.5 346Z" fill="#E9F5FB"/>
<path d="M1349.5 346C1350.88 346 1352 344.881 1352 343.5C1352 342.12 1350.88 341 1349.5 341C1348.12 341 1347 342.12 1347 343.5C1347 344.881 1348.12 346 1349.5 346Z" fill="#E9F5FB"/>
<path d="M1360.5 346C1361.88 346 1363 344.881 1363 343.5C1363 342.12 1361.88 341 1360.5 341C1359.12 341 1358 342.12 1358 343.5C1358 344.881 1359.12 346 1360.5 346Z" fill="#E9F5FB"/>
<path d="M1371.5 346C1372.88 346 1374 344.881 1374 343.5C1374 342.12 1372.88 341 1371.5 341C1370.12 341 1369 342.12 1369 343.5C1369 344.881 1370.12 346 1371.5 346Z" fill="#E9F5FB"/>
<path d="M1382.5 346C1383.88 346 1385 344.881 1385 343.5C1385 342.12 1383.88 341 1382.5 341C1381.12 341 1380 342.12 1380 343.5C1380 344.881 1381.12 346 1382.5 346Z" fill="#E9F5FB"/>
<path d="M1393.5 346C1394.88 346 1396 344.881 1396 343.5C1396 342.12 1394.88 341 1393.5 341C1392.12 341 1391 342.12 1391 343.5C1391 344.881 1392.12 346 1393.5 346Z" fill="#E9F5FB"/>
<path d="M1404.5 346C1405.88 346 1407 344.881 1407 343.5C1407 342.12 1405.88 341 1404.5 341C1403.12 341 1402 342.12 1402 343.5C1402 344.881 1403.12 346 1404.5 346Z" fill="#E9F5FB"/>
<path d="M1415.5 346C1416.88 346 1418 344.881 1418 343.5C1418 342.12 1416.88 341 1415.5 341C1414.12 341 1413 342.12 1413 343.5C1413 344.881 1414.12 346 1415.5 346Z" fill="#E9F5FB"/>
<g clip-path="url(#clip0)">
<path d="M1259.64 642.005C1260.53 643.062 1262.11 643.2 1263.17 642.312C1264.22 641.424 1264.36 639.848 1263.47 638.79C1262.58 637.733 1261.01 637.595 1259.95 638.483C1258.89 639.37 1258.76 640.947 1259.64 642.005Z" fill="#E9F5FB"/>
<path d="M1266.72 650.431C1267.6 651.488 1269.18 651.626 1270.24 650.738C1271.3 649.851 1271.43 648.274 1270.55 647.216C1269.66 646.159 1268.08 646.021 1267.02 646.909C1265.97 647.796 1265.83 649.373 1266.72 650.431Z" fill="#E9F5FB"/>
<path d="M1273.79 658.857C1274.68 659.914 1276.25 660.052 1277.31 659.164C1278.37 658.277 1278.51 656.7 1277.62 655.642C1276.73 654.585 1275.15 654.447 1274.1 655.335C1273.04 656.222 1272.9 657.799 1273.79 658.857Z" fill="#E9F5FB"/>
<path d="M1280.86 667.283C1281.75 668.34 1283.33 668.478 1284.38 667.59C1285.44 666.703 1285.58 665.126 1284.69 664.068C1283.8 663.011 1282.23 662.873 1281.17 663.761C1280.11 664.648 1279.97 666.225 1280.86 667.283Z" fill="#E9F5FB"/>
<path d="M1287.93 675.709C1288.82 676.766 1290.4 676.904 1291.46 676.016C1292.51 675.129 1292.65 673.552 1291.76 672.494C1290.88 671.437 1289.3 671.299 1288.24 672.187C1287.18 673.074 1287.05 674.651 1287.93 675.709Z" fill="#E9F5FB"/>
<path d="M1295.01 684.135C1295.89 685.192 1297.47 685.33 1298.53 684.442C1299.59 683.555 1299.72 681.978 1298.84 680.92C1297.95 679.863 1296.37 679.725 1295.31 680.613C1294.26 681.5 1294.12 683.077 1295.01 684.135Z" fill="#E9F5FB"/>
<path d="M1302.08 692.561C1302.97 693.618 1304.55 693.756 1305.6 692.868C1306.66 691.98 1306.8 690.403 1305.91 689.346C1305.02 688.288 1303.45 688.151 1302.39 689.038C1301.33 689.926 1301.19 691.503 1302.08 692.561Z" fill="#E9F5FB"/>
<path d="M1309.15 700.987C1310.04 702.044 1311.62 702.182 1312.68 701.294C1313.73 700.406 1313.87 698.829 1312.98 697.772C1312.1 696.714 1310.52 696.577 1309.46 697.465C1308.4 698.352 1308.27 699.929 1309.15 700.987Z" fill="#E9F5FB"/>
<path d="M1316.23 709.413C1317.11 710.47 1318.69 710.608 1319.75 709.72C1320.81 708.832 1320.94 707.256 1320.06 706.198C1319.17 705.14 1317.59 705.003 1316.53 705.891C1315.48 706.778 1315.34 708.355 1316.23 709.413Z" fill="#E9F5FB"/>
<path d="M1323.3 717.839C1324.19 718.896 1325.76 719.034 1326.82 718.146C1327.88 717.258 1328.02 715.682 1327.13 714.624C1326.24 713.567 1324.67 713.429 1323.61 714.317C1322.55 715.204 1322.41 716.781 1323.3 717.839Z" fill="#E9F5FB"/>
<path d="M1330.37 726.265C1331.26 727.322 1332.84 727.46 1333.9 726.572C1334.95 725.684 1335.09 724.108 1334.2 723.05C1333.32 721.993 1331.74 721.855 1330.68 722.743C1329.62 723.63 1329.49 725.207 1330.37 726.265Z" fill="#E9F5FB"/>
<path d="M1337.45 734.691C1338.33 735.748 1339.91 735.886 1340.97 734.998C1342.03 734.111 1342.16 732.534 1341.28 731.476C1340.39 730.419 1338.81 730.281 1337.75 731.169C1336.7 732.056 1336.56 733.633 1337.45 734.691Z" fill="#E9F5FB"/>
<path d="M1251.22 649.078C1252.1 650.135 1253.68 650.273 1254.74 649.385C1255.8 648.497 1255.93 646.921 1255.05 645.863C1254.16 644.806 1252.58 644.668 1251.52 645.556C1250.47 646.443 1250.33 648.02 1251.22 649.078Z" fill="#E9F5FB"/>
<path d="M1258.29 657.504C1259.18 658.561 1260.76 658.699 1261.81 657.811C1262.87 656.924 1263.01 655.347 1262.12 654.289C1261.23 653.232 1259.66 653.094 1258.6 653.982C1257.54 654.869 1257.4 656.446 1258.29 657.504Z" fill="#E9F5FB"/>
<path d="M1265.36 665.93C1266.25 666.987 1267.83 667.125 1268.89 666.237C1269.94 665.35 1270.08 663.773 1269.19 662.715C1268.31 661.658 1266.73 661.52 1265.67 662.408C1264.61 663.295 1264.48 664.872 1265.36 665.93Z" fill="#E9F5FB"/>
<path d="M1272.44 674.356C1273.32 675.413 1274.9 675.551 1275.96 674.663C1277.02 673.776 1277.15 672.199 1276.27 671.141C1275.38 670.084 1273.8 669.946 1272.74 670.834C1271.69 671.721 1271.55 673.298 1272.44 674.356Z" fill="#E9F5FB"/>
<path d="M1279.51 682.782C1280.4 683.839 1281.97 683.977 1283.03 683.089C1284.09 682.202 1284.23 680.625 1283.34 679.567C1282.45 678.51 1280.87 678.372 1279.82 679.26C1278.76 680.147 1278.62 681.724 1279.51 682.782Z" fill="#E9F5FB"/>
<path d="M1286.58 691.208C1287.47 692.265 1289.05 692.403 1290.1 691.515C1291.16 690.628 1291.3 689.051 1290.41 687.993C1289.52 686.936 1287.95 686.798 1286.89 687.686C1285.83 688.573 1285.69 690.15 1286.58 691.208Z" fill="#E9F5FB"/>
<path d="M1293.65 699.634C1294.54 700.691 1296.12 700.829 1297.18 699.941C1298.23 699.053 1298.37 697.476 1297.48 696.419C1296.6 695.361 1295.02 695.224 1293.96 696.111C1292.9 696.999 1292.77 698.576 1293.65 699.634Z" fill="#E9F5FB"/>
<path d="M1300.73 708.06C1301.62 709.117 1303.19 709.255 1304.25 708.367C1305.31 707.479 1305.45 705.902 1304.56 704.845C1303.67 703.787 1302.09 703.65 1301.04 704.538C1299.98 705.425 1299.84 707.002 1300.73 708.06Z" fill="#E9F5FB"/>
<path d="M1307.8 716.486C1308.69 717.543 1310.27 717.681 1311.32 716.793C1312.38 715.905 1312.52 714.329 1311.63 713.271C1310.74 712.213 1309.17 712.076 1308.11 712.964C1307.05 713.851 1306.91 715.428 1307.8 716.486Z" fill="#E9F5FB"/>
<path d="M1314.87 724.912C1315.76 725.969 1317.34 726.107 1318.4 725.219C1319.45 724.331 1319.59 722.755 1318.7 721.697C1317.82 720.64 1316.24 720.502 1315.18 721.39C1314.12 722.277 1313.99 723.854 1314.87 724.912Z" fill="#E9F5FB"/>
<path d="M1321.95 733.338C1322.84 734.395 1324.41 734.533 1325.47 733.645C1326.53 732.757 1326.66 731.181 1325.78 730.123C1324.89 729.066 1323.31 728.928 1322.26 729.816C1321.2 730.703 1321.06 732.28 1321.95 733.338Z" fill="#E9F5FB"/>
<path d="M1329.02 741.764C1329.91 742.821 1331.49 742.959 1332.54 742.071C1333.6 741.184 1333.74 739.607 1332.85 738.549C1331.96 737.492 1330.39 737.354 1329.33 738.242C1328.27 739.129 1328.13 740.706 1329.02 741.764Z" fill="#E9F5FB"/>
<path d="M1242.79 656.151C1243.68 657.208 1245.26 657.346 1246.31 656.458C1247.37 655.57 1247.51 653.994 1246.62 652.936C1245.73 651.879 1244.16 651.741 1243.1 652.629C1242.04 653.516 1241.9 655.093 1242.79 656.151Z" fill="#E9F5FB"/>
<path d="M1249.86 664.577C1250.75 665.634 1252.33 665.772 1253.39 664.884C1254.44 663.997 1254.58 662.42 1253.69 661.362C1252.81 660.305 1251.23 660.167 1250.17 661.055C1249.11 661.942 1248.98 663.519 1249.86 664.577Z" fill="#E9F5FB"/>
<path d="M1256.94 673.003C1257.83 674.06 1259.4 674.198 1260.46 673.31C1261.52 672.423 1261.66 670.846 1260.77 669.788C1259.88 668.731 1258.3 668.593 1257.25 669.481C1256.19 670.368 1256.05 671.945 1256.94 673.003Z" fill="#E9F5FB"/>
<path d="M1264.01 681.429C1264.9 682.486 1266.47 682.624 1267.53 681.736C1268.59 680.849 1268.73 679.272 1267.84 678.214C1266.95 677.157 1265.38 677.019 1264.32 677.907C1263.26 678.794 1263.12 680.371 1264.01 681.429Z" fill="#E9F5FB"/>
<path d="M1271.08 689.855C1271.97 690.912 1273.55 691.05 1274.61 690.162C1275.66 689.275 1275.8 687.698 1274.91 686.64C1274.03 685.583 1272.45 685.445 1271.39 686.333C1270.33 687.22 1270.2 688.797 1271.08 689.855Z" fill="#E9F5FB"/>
<path d="M1278.16 698.281C1279.04 699.338 1280.62 699.476 1281.68 698.588C1282.74 697.701 1282.87 696.124 1281.99 695.066C1281.1 694.009 1279.52 693.871 1278.46 694.759C1277.41 695.646 1277.27 697.223 1278.16 698.281Z" fill="#E9F5FB"/>
<path d="M1285.23 706.707C1286.12 707.764 1287.69 707.902 1288.75 707.014C1289.81 706.126 1289.95 704.549 1289.06 703.492C1288.17 702.434 1286.59 702.297 1285.54 703.184C1284.48 704.072 1284.34 705.649 1285.23 706.707Z" fill="#E9F5FB"/>
<path d="M1292.3 715.133C1293.19 716.19 1294.77 716.328 1295.82 715.44C1296.88 714.552 1297.02 712.975 1296.13 711.918C1295.24 710.86 1293.67 710.723 1292.61 711.611C1291.55 712.498 1291.41 714.075 1292.3 715.133Z" fill="#E9F5FB"/>
<path d="M1299.38 723.559C1300.26 724.616 1301.84 724.754 1302.9 723.866C1303.96 722.978 1304.09 721.402 1303.2 720.344C1302.32 719.286 1300.74 719.149 1299.68 720.037C1298.63 720.924 1298.49 722.501 1299.38 723.559Z" fill="#E9F5FB"/>
<path d="M1306.45 731.985C1307.34 733.042 1308.91 733.18 1309.97 732.292C1311.03 731.404 1311.16 729.828 1310.28 728.77C1309.39 727.713 1307.81 727.575 1306.76 728.463C1305.7 729.35 1305.56 730.927 1306.45 731.985Z" fill="#E9F5FB"/>
<path d="M1313.52 740.411C1314.41 741.468 1315.99 741.606 1317.04 740.718C1318.1 739.83 1318.24 738.254 1317.35 737.196C1316.46 736.139 1314.89 736.001 1313.83 736.889C1312.77 737.776 1312.63 739.353 1313.52 740.411Z" fill="#E9F5FB"/>
<path d="M1320.59 748.837C1321.48 749.894 1323.06 750.032 1324.12 749.144C1325.17 748.257 1325.31 746.68 1324.42 745.622C1323.54 744.565 1321.96 744.427 1320.9 745.315C1319.84 746.202 1319.71 747.779 1320.59 748.837Z" fill="#E9F5FB"/>
<path d="M1234.36 663.224C1235.25 664.281 1236.83 664.419 1237.89 663.531C1238.94 662.643 1239.08 661.067 1238.19 660.009C1237.31 658.952 1235.73 658.814 1234.67 659.702C1233.61 660.589 1233.48 662.166 1234.36 663.224Z" fill="#E9F5FB"/>
<path d="M1241.44 671.65C1242.33 672.707 1243.9 672.845 1244.96 671.957C1246.02 671.069 1246.16 669.493 1245.27 668.435C1244.38 667.378 1242.8 667.24 1241.75 668.128C1240.69 669.015 1240.55 670.592 1241.44 671.65Z" fill="#E9F5FB"/>
<path d="M1248.51 680.076C1249.4 681.133 1250.97 681.271 1252.03 680.383C1253.09 679.496 1253.23 677.919 1252.34 676.861C1251.45 675.804 1249.88 675.666 1248.82 676.554C1247.76 677.441 1247.62 679.018 1248.51 680.076Z" fill="#E9F5FB"/>
<path d="M1255.58 688.502C1256.47 689.559 1258.05 689.697 1259.11 688.809C1260.16 687.922 1260.3 686.345 1259.41 685.287C1258.53 684.23 1256.95 684.092 1255.89 684.98C1254.83 685.867 1254.7 687.444 1255.58 688.502Z" fill="#E9F5FB"/>
<path d="M1262.66 696.928C1263.55 697.985 1265.12 698.123 1266.18 697.235C1267.24 696.348 1267.37 694.771 1266.49 693.713C1265.6 692.656 1264.02 692.518 1262.97 693.406C1261.91 694.293 1261.77 695.87 1262.66 696.928Z" fill="#E9F5FB"/>
<path d="M1269.73 705.354C1270.62 706.411 1272.19 706.549 1273.25 705.661C1274.31 704.774 1274.45 703.197 1273.56 702.139C1272.67 701.082 1271.09 700.944 1270.04 701.832C1268.98 702.719 1268.84 704.296 1269.73 705.354Z" fill="#E9F5FB"/>
<path d="M1276.8 713.78C1277.69 714.837 1279.27 714.975 1280.33 714.087C1281.38 713.199 1281.52 711.622 1280.63 710.565C1279.75 709.507 1278.17 709.37 1277.11 710.257C1276.05 711.145 1275.92 712.722 1276.8 713.78Z" fill="#E9F5FB"/>
<path d="M1283.88 722.206C1284.76 723.263 1286.34 723.401 1287.4 722.513C1288.46 721.625 1288.59 720.048 1287.71 718.991C1286.82 717.933 1285.24 717.796 1284.18 718.684C1283.13 719.571 1282.99 721.148 1283.88 722.206Z" fill="#E9F5FB"/>
<path d="M1290.95 730.632C1291.84 731.689 1293.41 731.827 1294.47 730.939C1295.53 730.051 1295.67 728.475 1294.78 727.417C1293.89 726.359 1292.31 726.222 1291.26 727.11C1290.2 727.997 1290.06 729.574 1290.95 730.632Z" fill="#E9F5FB"/>
<path d="M1298.02 739.058C1298.91 740.115 1300.49 740.253 1301.54 739.365C1302.6 738.477 1302.74 736.901 1301.85 735.843C1300.96 734.786 1299.39 734.648 1298.33 735.536C1297.27 736.423 1297.13 738 1298.02 739.058Z" fill="#E9F5FB"/>
<path d="M1305.1 747.484C1305.98 748.541 1307.56 748.679 1308.62 747.791C1309.67 746.903 1309.81 745.327 1308.92 744.269C1308.04 743.212 1306.46 743.074 1305.4 743.962C1304.35 744.849 1304.21 746.426 1305.1 747.484Z" fill="#E9F5FB"/>
<path d="M1312.17 755.91C1313.06 756.967 1314.63 757.105 1315.69 756.217C1316.75 755.33 1316.89 753.753 1316 752.695C1315.11 751.638 1313.53 751.5 1312.48 752.388C1311.42 753.275 1311.28 754.852 1312.17 755.91Z" fill="#E9F5FB"/>
<path d="M1225.94 670.297C1226.83 671.354 1228.4 671.492 1229.46 670.604C1230.52 669.716 1230.66 668.14 1229.77 667.082C1228.88 666.025 1227.3 665.887 1226.25 666.775C1225.19 667.662 1225.05 669.239 1225.94 670.297Z" fill="#E9F5FB"/>
<path d="M1233.01 678.723C1233.9 679.78 1235.48 679.918 1236.53 679.03C1237.59 678.142 1237.73 676.566 1236.84 675.508C1235.95 674.451 1234.38 674.313 1233.32 675.201C1232.26 676.088 1232.12 677.665 1233.01 678.723Z" fill="#E9F5FB"/>
<path d="M1240.09 687.149C1240.97 688.206 1242.55 688.344 1243.61 687.456C1244.67 686.569 1244.8 684.992 1243.91 683.934C1243.03 682.877 1241.45 682.739 1240.39 683.627C1239.34 684.514 1239.2 686.091 1240.09 687.149Z" fill="#E9F5FB"/>
<path d="M1247.16 695.575C1248.05 696.632 1249.62 696.77 1250.68 695.882C1251.74 694.995 1251.87 693.418 1250.99 692.36C1250.1 691.303 1248.52 691.165 1247.47 692.053C1246.41 692.94 1246.27 694.517 1247.16 695.575Z" fill="#E9F5FB"/>
<path d="M1254.23 704.001C1255.12 705.058 1256.7 705.196 1257.75 704.308C1258.81 703.421 1258.95 701.844 1258.06 700.786C1257.17 699.729 1255.6 699.591 1254.54 700.479C1253.48 701.366 1253.34 702.943 1254.23 704.001Z" fill="#E9F5FB"/>
<path d="M1261.3 712.427C1262.19 713.484 1263.77 713.622 1264.83 712.734C1265.88 711.847 1266.02 710.27 1265.13 709.212C1264.25 708.155 1262.67 708.017 1261.61 708.905C1260.55 709.792 1260.42 711.369 1261.3 712.427Z" fill="#E9F5FB"/>
<path d="M1268.38 720.853C1269.27 721.91 1270.84 722.048 1271.9 721.16C1272.96 720.272 1273.09 718.695 1272.21 717.638C1271.32 716.58 1269.74 716.443 1268.68 717.33C1267.63 718.218 1267.49 719.795 1268.38 720.853Z" fill="#E9F5FB"/>
<path d="M1275.45 729.279C1276.34 730.336 1277.92 730.474 1278.97 729.586C1280.03 728.698 1280.17 727.121 1279.28 726.064C1278.39 725.006 1276.82 724.869 1275.76 725.757C1274.7 726.644 1274.56 728.221 1275.45 729.279Z" fill="#E9F5FB"/>
<path d="M1282.52 737.705C1283.41 738.762 1284.99 738.9 1286.04 738.012C1287.1 737.124 1287.24 735.548 1286.35 734.49C1285.46 733.432 1283.89 733.295 1282.83 734.183C1281.77 735.07 1281.64 736.647 1282.52 737.705Z" fill="#E9F5FB"/>
<path d="M1289.6 746.131C1290.48 747.188 1292.06 747.326 1293.12 746.438C1294.18 745.55 1294.31 743.974 1293.43 742.916C1292.54 741.859 1290.96 741.721 1289.9 742.609C1288.85 743.496 1288.71 745.073 1289.6 746.131Z" fill="#E9F5FB"/>
<path d="M1296.67 754.557C1297.56 755.614 1299.13 755.752 1300.19 754.864C1301.25 753.976 1301.39 752.4 1300.5 751.342C1299.61 750.285 1298.03 750.147 1296.98 751.035C1295.92 751.922 1295.78 753.499 1296.67 754.557Z" fill="#E9F5FB"/>
<path d="M1303.74 762.983C1304.63 764.04 1306.21 764.178 1307.26 763.29C1308.32 762.403 1308.46 760.826 1307.57 759.768C1306.68 758.711 1305.11 758.573 1304.05 759.461C1302.99 760.348 1302.85 761.925 1303.74 762.983Z" fill="#E9F5FB"/>
<path d="M1217.51 677.37C1218.4 678.427 1219.98 678.565 1221.04 677.677C1222.09 676.789 1222.23 675.213 1221.34 674.155C1220.45 673.098 1218.88 672.96 1217.82 673.848C1216.76 674.735 1216.63 676.312 1217.51 677.37Z" fill="#E9F5FB"/>
<path d="M1224.59 685.796C1225.47 686.853 1227.05 686.991 1228.11 686.103C1229.17 685.215 1229.3 683.639 1228.42 682.581C1227.53 681.524 1225.95 681.386 1224.89 682.274C1223.84 683.161 1223.7 684.738 1224.59 685.796Z" fill="#E9F5FB"/>
<path d="M1231.66 694.222C1232.55 695.279 1234.12 695.417 1235.18 694.529C1236.24 693.642 1236.38 692.065 1235.49 691.007C1234.6 689.95 1233.02 689.812 1231.97 690.7C1230.91 691.587 1230.77 693.164 1231.66 694.222Z" fill="#E9F5FB"/>
<path d="M1238.73 702.648C1239.62 703.705 1241.2 703.843 1242.25 702.955C1243.31 702.068 1243.45 700.491 1242.56 699.433C1241.67 698.376 1240.1 698.238 1239.04 699.126C1237.98 700.013 1237.84 701.59 1238.73 702.648Z" fill="#E9F5FB"/>
<path d="M1245.81 711.074C1246.69 712.131 1248.27 712.269 1249.33 711.381C1250.38 710.494 1250.52 708.917 1249.63 707.859C1248.75 706.802 1247.17 706.664 1246.11 707.552C1245.06 708.439 1244.92 710.016 1245.81 711.074Z" fill="#E9F5FB"/>
<path d="M1252.88 719.5C1253.77 720.557 1255.34 720.695 1256.4 719.807C1257.46 718.92 1257.59 717.343 1256.71 716.285C1255.82 715.228 1254.24 715.09 1253.18 715.978C1252.13 716.865 1251.99 718.442 1252.88 719.5Z" fill="#E9F5FB"/>
<path d="M1259.95 727.926C1260.84 728.983 1262.42 729.121 1263.47 728.233C1264.53 727.345 1264.67 725.768 1263.78 724.711C1262.89 723.653 1261.32 723.516 1260.26 724.403C1259.2 725.291 1259.06 726.868 1259.95 727.926Z" fill="#E9F5FB"/>
<path d="M1267.02 736.352C1267.91 737.409 1269.49 737.547 1270.55 736.659C1271.6 735.771 1271.74 734.194 1270.85 733.137C1269.97 732.079 1268.39 731.942 1267.33 732.83C1266.27 733.717 1266.14 735.294 1267.02 736.352Z" fill="#E9F5FB"/>
<path d="M1274.1 744.778C1274.98 745.835 1276.56 745.973 1277.62 745.085C1278.68 744.197 1278.81 742.621 1277.93 741.563C1277.04 740.505 1275.46 740.368 1274.4 741.256C1273.35 742.143 1273.21 743.72 1274.1 744.778Z" fill="#E9F5FB"/>
<path d="M1281.17 753.204C1282.06 754.261 1283.63 754.399 1284.69 753.511C1285.75 752.623 1285.89 751.047 1285 749.989C1284.11 748.932 1282.54 748.794 1281.48 749.682C1280.42 750.569 1280.28 752.146 1281.17 753.204Z" fill="#E9F5FB"/>
<path d="M1288.24 761.63C1289.13 762.687 1290.71 762.825 1291.77 761.937C1292.82 761.049 1292.96 759.473 1292.07 758.415C1291.19 757.358 1289.61 757.22 1288.55 758.108C1287.49 758.995 1287.36 760.572 1288.24 761.63Z" fill="#E9F5FB"/>
<path d="M1295.32 770.056C1296.2 771.113 1297.78 771.251 1298.84 770.363C1299.9 769.476 1300.03 767.899 1299.15 766.841C1298.26 765.784 1296.68 765.646 1295.62 766.534C1294.57 767.421 1294.43 768.998 1295.32 770.056Z" fill="#E9F5FB"/>
<path d="M1209.09 684.443C1209.98 685.5 1211.55 685.638 1212.61 684.75C1213.67 683.862 1213.8 682.286 1212.92 681.228C1212.03 680.171 1210.45 680.033 1209.39 680.921C1208.34 681.808 1208.2 683.385 1209.09 684.443Z" fill="#E9F5FB"/>
<path d="M1216.16 692.869C1217.05 693.926 1218.63 694.064 1219.68 693.176C1220.74 692.288 1220.88 690.712 1219.99 689.654C1219.1 688.597 1217.53 688.459 1216.47 689.347C1215.41 690.234 1215.27 691.811 1216.16 692.869Z" fill="#E9F5FB"/>
<path d="M1223.23 701.295C1224.12 702.352 1225.7 702.49 1226.76 701.602C1227.81 700.715 1227.95 699.138 1227.06 698.08C1226.18 697.023 1224.6 696.885 1223.54 697.773C1222.48 698.66 1222.35 700.237 1223.23 701.295Z" fill="#E9F5FB"/>
<path d="M1230.31 709.721C1231.19 710.778 1232.77 710.916 1233.83 710.028C1234.89 709.141 1235.02 707.564 1234.14 706.506C1233.25 705.449 1231.67 705.311 1230.61 706.199C1229.56 707.086 1229.42 708.663 1230.31 709.721Z" fill="#E9F5FB"/>
<path d="M1237.38 718.147C1238.27 719.204 1239.84 719.342 1240.9 718.454C1241.96 717.567 1242.1 715.99 1241.21 714.932C1240.32 713.875 1238.74 713.737 1237.69 714.625C1236.63 715.512 1236.49 717.089 1237.38 718.147Z" fill="#E9F5FB"/>
<path d="M1244.45 726.573C1245.34 727.63 1246.92 727.768 1247.97 726.88C1249.03 725.993 1249.17 724.416 1248.28 723.358C1247.39 722.301 1245.82 722.163 1244.76 723.051C1243.7 723.938 1243.56 725.515 1244.45 726.573Z" fill="#E9F5FB"/>
<path d="M1251.52 734.999C1252.41 736.056 1253.99 736.194 1255.05 735.306C1256.1 734.418 1256.24 732.841 1255.35 731.784C1254.47 730.726 1252.89 730.589 1251.83 731.476C1250.77 732.364 1250.64 733.941 1251.52 734.999Z" fill="#E9F5FB"/>
<path d="M1258.6 743.425C1259.49 744.482 1261.06 744.62 1262.12 743.732C1263.18 742.844 1263.32 741.267 1262.43 740.21C1261.54 739.152 1259.96 739.015 1258.91 739.903C1257.85 740.79 1257.71 742.367 1258.6 743.425Z" fill="#E9F5FB"/>
<path d="M1265.67 751.851C1266.56 752.908 1268.14 753.046 1269.19 752.158C1270.25 751.27 1270.39 749.694 1269.5 748.636C1268.61 747.578 1267.04 747.441 1265.98 748.329C1264.92 749.216 1264.78 750.793 1265.67 751.851Z" fill="#E9F5FB"/>
<path d="M1272.74 760.277C1273.63 761.334 1275.21 761.472 1276.27 760.584C1277.32 759.696 1277.46 758.12 1276.57 757.062C1275.69 756.005 1274.11 755.867 1273.05 756.755C1271.99 757.642 1271.86 759.219 1272.74 760.277Z" fill="#E9F5FB"/>
<path d="M1279.82 768.703C1280.7 769.76 1282.28 769.898 1283.34 769.01C1284.4 768.122 1284.53 766.546 1283.65 765.488C1282.76 764.431 1281.18 764.293 1280.12 765.181C1279.07 766.068 1278.93 767.645 1279.82 768.703Z" fill="#E9F5FB"/>
<path d="M1286.89 777.129C1287.78 778.186 1289.35 778.324 1290.41 777.436C1291.47 776.549 1291.61 774.972 1290.72 773.914C1289.83 772.857 1288.26 772.719 1287.2 773.607C1286.14 774.494 1286 776.071 1286.89 777.129Z" fill="#E9F5FB"/>
<path d="M1200.66 691.516C1201.55 692.573 1203.13 692.711 1204.18 691.823C1205.24 690.935 1205.38 689.359 1204.49 688.301C1203.6 687.244 1202.03 687.106 1200.97 687.994C1199.91 688.881 1199.77 690.458 1200.66 691.516Z" fill="#E9F5FB"/>
<path d="M1207.73 699.942C1208.62 700.999 1210.2 701.137 1211.26 700.249C1212.31 699.361 1212.45 697.785 1211.56 696.727C1210.68 695.67 1209.1 695.532 1208.04 696.42C1206.98 697.307 1206.85 698.884 1207.73 699.942Z" fill="#E9F5FB"/>
<path d="M1214.81 708.368C1215.69 709.425 1217.27 709.563 1218.33 708.675C1219.39 707.788 1219.52 706.211 1218.64 705.153C1217.75 704.096 1216.17 703.958 1215.11 704.846C1214.06 705.733 1213.92 707.31 1214.81 708.368Z" fill="#E9F5FB"/>
<path d="M1221.88 716.794C1222.77 717.851 1224.34 717.989 1225.4 717.101C1226.46 716.214 1226.6 714.637 1225.71 713.579C1224.82 712.522 1223.25 712.384 1222.19 713.272C1221.13 714.159 1220.99 715.736 1221.88 716.794Z" fill="#E9F5FB"/>
<path d="M1228.95 725.22C1229.84 726.277 1231.42 726.415 1232.48 725.527C1233.53 724.64 1233.67 723.063 1232.78 722.005C1231.9 720.948 1230.32 720.81 1229.26 721.698C1228.2 722.585 1228.07 724.162 1228.95 725.22Z" fill="#E9F5FB"/>
<path d="M1236.03 733.646C1236.91 734.703 1238.49 734.841 1239.55 733.953C1240.61 733.066 1240.74 731.489 1239.86 730.431C1238.97 729.374 1237.39 729.236 1236.33 730.124C1235.28 731.011 1235.14 732.588 1236.03 733.646Z" fill="#E9F5FB"/>
<path d="M1243.1 742.072C1243.99 743.129 1245.56 743.267 1246.62 742.379C1247.68 741.491 1247.82 739.914 1246.93 738.857C1246.04 737.799 1244.46 737.662 1243.41 738.549C1242.35 739.437 1242.21 741.014 1243.1 742.072Z" fill="#E9F5FB"/>
<path d="M1250.17 750.498C1251.06 751.555 1252.64 751.693 1253.69 750.805C1254.75 749.917 1254.89 748.34 1254 747.283C1253.11 746.225 1251.54 746.088 1250.48 746.975C1249.42 747.863 1249.28 749.44 1250.17 750.498Z" fill="#E9F5FB"/>
<path d="M1257.24 758.924C1258.13 759.981 1259.71 760.119 1260.77 759.231C1261.82 758.343 1261.96 756.767 1261.07 755.709C1260.19 754.651 1258.61 754.514 1257.55 755.402C1256.49 756.289 1256.36 757.866 1257.24 758.924Z" fill="#E9F5FB"/>
<path d="M1264.32 767.35C1265.21 768.407 1266.78 768.545 1267.84 767.657C1268.9 766.769 1269.04 765.193 1268.15 764.135C1267.26 763.078 1265.68 762.94 1264.63 763.828C1263.57 764.715 1263.43 766.292 1264.32 767.35Z" fill="#E9F5FB"/>
<path d="M1271.39 775.776C1272.28 776.833 1273.86 776.971 1274.91 776.083C1275.97 775.195 1276.11 773.619 1275.22 772.561C1274.33 771.504 1272.76 771.366 1271.7 772.254C1270.64 773.141 1270.5 774.718 1271.39 775.776Z" fill="#E9F5FB"/>
<path d="M1278.46 784.202C1279.35 785.259 1280.93 785.397 1281.99 784.509C1283.04 783.622 1283.18 782.045 1282.29 780.987C1281.41 779.93 1279.83 779.792 1278.77 780.68C1277.71 781.567 1277.58 783.144 1278.46 784.202Z" fill="#E9F5FB"/>
<path d="M1192.23 698.589C1193.12 699.646 1194.7 699.784 1195.76 698.896C1196.81 698.008 1196.95 696.432 1196.06 695.374C1195.18 694.317 1193.6 694.179 1192.54 695.067C1191.48 695.954 1191.35 697.531 1192.23 698.589Z" fill="#E9F5FB"/>
<path d="M1199.31 707.015C1200.2 708.072 1201.77 708.21 1202.83 707.322C1203.89 706.434 1204.03 704.858 1203.14 703.8C1202.25 702.743 1200.67 702.605 1199.62 703.493C1198.56 704.38 1198.42 705.957 1199.31 707.015Z" fill="#E9F5FB"/>
<path d="M1206.38 715.441C1207.27 716.498 1208.84 716.636 1209.9 715.748C1210.96 714.861 1211.1 713.284 1210.21 712.226C1209.32 711.169 1207.75 711.031 1206.69 711.919C1205.63 712.806 1205.49 714.383 1206.38 715.441Z" fill="#E9F5FB"/>
<path d="M1213.45 723.867C1214.34 724.924 1215.92 725.062 1216.98 724.174C1218.03 723.287 1218.17 721.71 1217.28 720.652C1216.4 719.595 1214.82 719.457 1213.76 720.345C1212.7 721.232 1212.57 722.809 1213.45 723.867Z" fill="#E9F5FB"/>
<path d="M1220.53 732.293C1221.41 733.35 1222.99 733.488 1224.05 732.6C1225.11 731.713 1225.24 730.136 1224.36 729.078C1223.47 728.021 1221.89 727.883 1220.83 728.771C1219.78 729.658 1219.64 731.235 1220.53 732.293Z" fill="#E9F5FB"/>
<path d="M1227.6 740.719C1228.49 741.776 1230.06 741.914 1231.12 741.026C1232.18 740.139 1232.32 738.562 1231.43 737.504C1230.54 736.447 1228.96 736.309 1227.91 737.197C1226.85 738.084 1226.71 739.661 1227.6 740.719Z" fill="#E9F5FB"/>
<path d="M1234.67 749.145C1235.56 750.202 1237.14 750.34 1238.2 749.452C1239.25 748.564 1239.39 746.987 1238.5 745.93C1237.62 744.872 1236.04 744.735 1234.98 745.622C1233.92 746.51 1233.79 748.087 1234.67 749.145Z" fill="#E9F5FB"/>
<path d="M1241.75 757.571C1242.63 758.628 1244.21 758.766 1245.27 757.878C1246.33 756.99 1246.46 755.413 1245.58 754.356C1244.69 753.298 1243.11 753.161 1242.05 754.048C1241 754.936 1240.86 756.513 1241.75 757.571Z" fill="#E9F5FB"/>
<path d="M1248.82 765.997C1249.71 767.054 1251.28 767.192 1252.34 766.304C1253.4 765.416 1253.54 763.84 1252.65 762.782C1251.76 761.724 1250.18 761.587 1249.13 762.475C1248.07 763.362 1247.93 764.939 1248.82 765.997Z" fill="#E9F5FB"/>
<path d="M1255.89 774.423C1256.78 775.48 1258.36 775.618 1259.41 774.73C1260.47 773.842 1260.61 772.266 1259.72 771.208C1258.83 770.15 1257.26 770.013 1256.2 770.901C1255.14 771.788 1255 773.365 1255.89 774.423Z" fill="#E9F5FB"/>
<path d="M1262.97 782.849C1263.85 783.906 1265.43 784.044 1266.49 783.156C1267.54 782.268 1267.68 780.692 1266.79 779.634C1265.91 778.577 1264.33 778.439 1263.27 779.327C1262.22 780.214 1262.08 781.791 1262.97 782.849Z" fill="#E9F5FB"/>
<path d="M1183.81 705.662C1184.7 706.719 1186.27 706.857 1187.33 705.969C1188.39 705.081 1188.53 703.505 1187.64 702.447C1186.75 701.39 1185.17 701.252 1184.12 702.14C1183.06 703.027 1182.92 704.604 1183.81 705.662Z" fill="#E9F5FB"/>
<path d="M1190.88 714.088C1191.77 715.145 1193.35 715.283 1194.4 714.395C1195.46 713.507 1195.6 711.931 1194.71 710.873C1193.82 709.816 1192.25 709.678 1191.19 710.566C1190.13 711.453 1189.99 713.03 1190.88 714.088Z" fill="#E9F5FB"/>
<path d="M1197.96 722.514C1198.84 723.571 1200.42 723.709 1201.48 722.821C1202.54 721.934 1202.67 720.357 1201.79 719.299C1200.9 718.242 1199.32 718.104 1198.26 718.992C1197.21 719.879 1197.07 721.456 1197.96 722.514Z" fill="#E9F5FB"/>
<path d="M1205.03 730.94C1205.92 731.997 1207.49 732.135 1208.55 731.247C1209.61 730.36 1209.75 728.783 1208.86 727.725C1207.97 726.668 1206.39 726.53 1205.34 727.418C1204.28 728.305 1204.14 729.882 1205.03 730.94Z" fill="#E9F5FB"/>
<path d="M1212.1 739.366C1212.99 740.423 1214.57 740.561 1215.62 739.673C1216.68 738.786 1216.82 737.209 1215.93 736.151C1215.04 735.094 1213.47 734.956 1212.41 735.844C1211.35 736.731 1211.21 738.308 1212.1 739.366Z" fill="#E9F5FB"/>
<path d="M1219.17 747.792C1220.06 748.849 1221.64 748.987 1222.7 748.099C1223.75 747.212 1223.89 745.635 1223 744.577C1222.12 743.52 1220.54 743.382 1219.48 744.27C1218.42 745.157 1218.29 746.734 1219.17 747.792Z" fill="#E9F5FB"/>
<path d="M1226.25 756.218C1227.13 757.275 1228.71 757.413 1229.77 756.525C1230.83 755.637 1230.96 754.06 1230.08 753.003C1229.19 751.945 1227.61 751.808 1226.55 752.695C1225.5 753.583 1225.36 755.16 1226.25 756.218Z" fill="#E9F5FB"/>
<path d="M1233.32 764.644C1234.21 765.701 1235.78 765.839 1236.84 764.951C1237.9 764.063 1238.04 762.486 1237.15 761.429C1236.26 760.371 1234.68 760.234 1233.63 761.121C1232.57 762.009 1232.43 763.586 1233.32 764.644Z" fill="#E9F5FB"/>
<path d="M1240.39 773.07C1241.28 774.127 1242.86 774.265 1243.91 773.377C1244.97 772.489 1245.11 770.913 1244.22 769.855C1243.33 768.797 1241.76 768.66 1240.7 769.548C1239.64 770.435 1239.5 772.012 1240.39 773.07Z" fill="#E9F5FB"/>
<path d="M1247.47 781.496C1248.35 782.553 1249.93 782.691 1250.99 781.803C1252.05 780.915 1252.18 779.339 1251.3 778.281C1250.41 777.223 1248.83 777.086 1247.77 777.974C1246.72 778.861 1246.58 780.438 1247.47 781.496Z" fill="#E9F5FB"/>
<path d="M1254.54 789.922C1255.43 790.979 1257 791.117 1258.06 790.229C1259.12 789.341 1259.26 787.765 1258.37 786.707C1257.48 785.65 1255.9 785.512 1254.85 786.4C1253.79 787.287 1253.65 788.864 1254.54 789.922Z" fill="#E9F5FB"/>
<path d="M1175.38 712.735C1176.27 713.792 1177.85 713.93 1178.91 713.042C1179.96 712.154 1180.1 710.578 1179.21 709.52C1178.33 708.463 1176.75 708.325 1175.69 709.213C1174.63 710.1 1174.5 711.677 1175.38 712.735Z" fill="#E9F5FB"/>
<path d="M1182.46 721.161C1183.34 722.218 1184.92 722.356 1185.98 721.468C1187.04 720.58 1187.17 719.004 1186.29 717.946C1185.4 716.889 1183.82 716.751 1182.76 717.639C1181.71 718.526 1181.57 720.103 1182.46 721.161Z" fill="#E9F5FB"/>
<path d="M1189.53 729.587C1190.42 730.644 1191.99 730.782 1193.05 729.894C1194.11 729.007 1194.25 727.43 1193.36 726.372C1192.47 725.315 1190.89 725.177 1189.84 726.065C1188.78 726.952 1188.64 728.529 1189.53 729.587Z" fill="#E9F5FB"/>
<path d="M1196.6 738.013C1197.49 739.07 1199.07 739.208 1200.12 738.32C1201.18 737.433 1201.32 735.856 1200.43 734.798C1199.54 733.741 1197.97 733.603 1196.91 734.491C1195.85 735.378 1195.71 736.955 1196.6 738.013Z" fill="#E9F5FB"/>
<path d="M1203.68 746.439C1204.56 747.496 1206.14 747.634 1207.2 746.746C1208.25 745.859 1208.39 744.282 1207.5 743.224C1206.62 742.167 1205.04 742.029 1203.98 742.917C1202.93 743.804 1202.79 745.381 1203.68 746.439Z" fill="#E9F5FB"/>
<path d="M1210.75 754.865C1211.64 755.922 1213.21 756.06 1214.27 755.172C1215.33 754.285 1215.46 752.708 1214.58 751.65C1213.69 750.593 1212.11 750.455 1211.05 751.343C1210 752.23 1209.86 753.807 1210.75 754.865Z" fill="#E9F5FB"/>
<path d="M1217.82 763.291C1218.71 764.348 1220.29 764.486 1221.34 763.598C1222.4 762.71 1222.54 761.133 1221.65 760.076C1220.76 759.018 1219.19 758.881 1218.13 759.768C1217.07 760.656 1216.93 762.233 1217.82 763.291Z" fill="#E9F5FB"/>
<path d="M1224.89 771.717C1225.78 772.774 1227.36 772.912 1228.42 772.024C1229.47 771.136 1229.61 769.559 1228.72 768.502C1227.84 767.444 1226.26 767.307 1225.2 768.194C1224.14 769.082 1224.01 770.659 1224.89 771.717Z" fill="#E9F5FB"/>
<path d="M1231.97 780.143C1232.85 781.2 1234.43 781.338 1235.49 780.45C1236.55 779.562 1236.68 777.986 1235.8 776.928C1234.91 775.87 1233.33 775.733 1232.27 776.621C1231.22 777.508 1231.08 779.085 1231.97 780.143Z" fill="#E9F5FB"/>
<path d="M1239.04 788.569C1239.93 789.626 1241.51 789.764 1242.56 788.876C1243.62 787.988 1243.76 786.412 1242.87 785.354C1241.98 784.296 1240.41 784.159 1239.35 785.047C1238.29 785.934 1238.15 787.511 1239.04 788.569Z" fill="#E9F5FB"/>
<path d="M1166.96 719.808C1167.85 720.865 1169.42 721.003 1170.48 720.115C1171.54 719.227 1171.67 717.651 1170.79 716.593C1169.9 715.536 1168.32 715.398 1167.26 716.286C1166.21 717.173 1166.07 718.75 1166.96 719.808Z" fill="#E9F5FB"/>
<path d="M1174.03 728.234C1174.92 729.291 1176.5 729.429 1177.55 728.541C1178.61 727.653 1178.75 726.077 1177.86 725.019C1176.97 723.962 1175.4 723.824 1174.34 724.712C1173.28 725.599 1173.14 727.176 1174.03 728.234Z" fill="#E9F5FB"/>
<path d="M1181.1 736.66C1181.99 737.717 1183.57 737.855 1184.63 736.967C1185.68 736.08 1185.82 734.503 1184.93 733.445C1184.05 732.388 1182.47 732.25 1181.41 733.138C1180.35 734.025 1180.22 735.602 1181.1 736.66Z" fill="#E9F5FB"/>
<path d="M1188.18 745.086C1189.06 746.143 1190.64 746.281 1191.7 745.393C1192.76 744.506 1192.89 742.929 1192.01 741.871C1191.12 740.814 1189.54 740.676 1188.48 741.564C1187.43 742.451 1187.29 744.028 1188.18 745.086Z" fill="#E9F5FB"/>
<path d="M1195.25 753.512C1196.14 754.569 1197.71 754.707 1198.77 753.819C1199.83 752.932 1199.97 751.355 1199.08 750.297C1198.19 749.24 1196.61 749.102 1195.56 749.99C1194.5 750.877 1194.36 752.454 1195.25 753.512Z" fill="#E9F5FB"/>
<path d="M1202.32 761.938C1203.21 762.995 1204.79 763.133 1205.84 762.245C1206.9 761.358 1207.04 759.781 1206.15 758.723C1205.26 757.666 1203.69 757.528 1202.63 758.416C1201.57 759.303 1201.43 760.88 1202.32 761.938Z" fill="#E9F5FB"/>
<path d="M1209.39 770.364C1210.28 771.421 1211.86 771.559 1212.92 770.671C1213.97 769.783 1214.11 768.206 1213.22 767.149C1212.34 766.091 1210.76 765.954 1209.7 766.841C1208.64 767.729 1208.51 769.306 1209.39 770.364Z" fill="#E9F5FB"/>
<path d="M1216.47 778.79C1217.36 779.847 1218.93 779.985 1219.99 779.097C1221.05 778.209 1221.19 776.632 1220.3 775.575C1219.41 774.517 1217.83 774.38 1216.78 775.267C1215.72 776.155 1215.58 777.732 1216.47 778.79Z" fill="#E9F5FB"/>
<path d="M1223.54 787.216C1224.43 788.273 1226.01 788.411 1227.06 787.523C1228.12 786.635 1228.26 785.059 1227.37 784.001C1226.48 782.943 1224.91 782.806 1223.85 783.694C1222.79 784.581 1222.65 786.158 1223.54 787.216Z" fill="#E9F5FB"/>
<path opacity="0.8" d="M1168 615L1248 754H1088L1168 615Z" fill="#E9F5FB"/>
<line x1="1147.26" y1="786.38" x2="1134.41" y2="783.663" stroke="#DCEFF9" stroke-width="2" stroke-linecap="round"/>
<line x1="1142.26" y1="778.556" x2="1139.54" y2="791.404" stroke="#DCEFF9" stroke-width="2" stroke-linecap="round"/>
</g>
<g clip-path="url(#clip1)">
<path d="M107.5 655C106.119 655 105 653.881 105 652.5C105 651.12 106.119 650 107.5 650C108.881 650 110 651.12 110 652.5C110 653.881 108.881 655 107.5 655Z" fill="#E9F5FB"/>
<path d="M96.5 655C95.1193 655 94 653.881 94 652.5C94 651.12 95.1193 650 96.5 650C97.8807 650 99 651.12 99 652.5C99 653.881 97.8807 655 96.5 655Z" fill="#E9F5FB"/>
<path d="M85.5 655C84.1193 655 83 653.881 83 652.5C83 651.12 84.1193 650 85.5 650C86.8807 650 88 651.12 88 652.5C88 653.881 86.8807 655 85.5 655Z" fill="#E9F5FB"/>
<path d="M73.5 655C72.1193 655 71 653.881 71 652.5C71 651.12 72.1193 650 73.5 650C74.8807 650 76 651.12 76 652.5C76 653.881 74.8807 655 73.5 655Z" fill="#E9F5FB"/>
<path d="M62.5 655C61.1193 655 60 653.881 60 652.5C60 651.12 61.1193 650 62.5 650C63.8807 650 65 651.12 65 652.5C65 653.881 63.8807 655 62.5 655Z" fill="#E9F5FB"/>
<path d="M51.5 655C50.1193 655 49 653.881 49 652.5C49 651.12 50.1193 650 51.5 650C52.8807 650 54 651.12 54 652.5C54 653.881 52.8807 655 51.5 655Z" fill="#E9F5FB"/>
<path d="M39.5 655C38.1193 655 37 653.881 37 652.5C37 651.12 38.1193 650 39.5 650C40.8807 650 42 651.12 42 652.5C42 653.881 40.8807 655 39.5 655Z" fill="#E9F5FB"/>
<path d="M28.5 655C27.1193 655 26 653.881 26 652.5C26 651.12 27.1193 650 28.5 650C29.8807 650 31 651.12 31 652.5C31 653.881 29.8807 655 28.5 655Z" fill="#E9F5FB"/>
<path d="M17.5 655C16.1193 655 15 653.881 15 652.5C15 651.12 16.1193 650 17.5 650C18.8807 650 20 651.12 20 652.5C20 653.881 18.8807 655 17.5 655Z" fill="#E9F5FB"/>
<path d="M5.5 655C4.11929 655 3 653.881 3 652.5C3 651.12 4.11929 650 5.5 650C6.88071 650 8 651.12 8 652.5C8 653.881 6.88071 655 5.5 655Z" fill="#E9F5FB"/>
<path d="M107.5 666C106.119 666 105 664.881 105 663.5C105 662.12 106.119 661 107.5 661C108.881 661 110 662.12 110 663.5C110 664.881 108.881 666 107.5 666Z" fill="#E9F5FB"/>
<path d="M96.5 666C95.1193 666 94 664.881 94 663.5C94 662.12 95.1193 661 96.5 661C97.8807 661 99 662.12 99 663.5C99 664.881 97.8807 666 96.5 666Z" fill="#E9F5FB"/>
<path d="M85.5 666C84.1193 666 83 664.881 83 663.5C83 662.12 84.1193 661 85.5 661C86.8807 661 88 662.12 88 663.5C88 664.881 86.8807 666 85.5 666Z" fill="#E9F5FB"/>
<path d="M73.5 666C72.1193 666 71 664.881 71 663.5C71 662.12 72.1193 661 73.5 661C74.8807 661 76 662.12 76 663.5C76 664.881 74.8807 666 73.5 666Z" fill="#E9F5FB"/>
<path d="M62.5 666C61.1193 666 60 664.881 60 663.5C60 662.12 61.1193 661 62.5 661C63.8807 661 65 662.12 65 663.5C65 664.881 63.8807 666 62.5 666Z" fill="#E9F5FB"/>
<path d="M51.5 666C50.1193 666 49 664.881 49 663.5C49 662.12 50.1193 661 51.5 661C52.8807 661 54 662.12 54 663.5C54 664.881 52.8807 666 51.5 666Z" fill="#E9F5FB"/>
<path d="M39.5 666C38.1193 666 37 664.881 37 663.5C37 662.12 38.1193 661 39.5 661C40.8807 661 42 662.12 42 663.5C42 664.881 40.8807 666 39.5 666Z" fill="#E9F5FB"/>
<path d="M28.5 666C27.1193 666 26 664.881 26 663.5C26 662.12 27.1193 661 28.5 661C29.8807 661 31 662.12 31 663.5C31 664.881 29.8807 666 28.5 666Z" fill="#E9F5FB"/>
<path d="M17.5 666C16.1193 666 15 664.881 15 663.5C15 662.12 16.1193 661 17.5 661C18.8807 661 20 662.12 20 663.5C20 664.881 18.8807 666 17.5 666Z" fill="#E9F5FB"/>
<path d="M5.5 666C4.11929 666 3 664.881 3 663.5C3 662.12 4.11929 661 5.5 661C6.88071 661 8 662.12 8 663.5C8 664.881 6.88071 666 5.5 666Z" fill="#E9F5FB"/>
<path d="M107.5 677C106.119 677 105 675.881 105 674.5C105 673.12 106.119 672 107.5 672C108.881 672 110 673.12 110 674.5C110 675.881 108.881 677 107.5 677Z" fill="#E9F5FB"/>
<path d="M96.5 677C95.1193 677 94 675.881 94 674.5C94 673.12 95.1193 672 96.5 672C97.8807 672 99 673.12 99 674.5C99 675.881 97.8807 677 96.5 677Z" fill="#E9F5FB"/>
<path d="M85.5 677C84.1193 677 83 675.881 83 674.5C83 673.12 84.1193 672 85.5 672C86.8807 672 88 673.12 88 674.5C88 675.881 86.8807 677 85.5 677Z" fill="#E9F5FB"/>
<path d="M73.5 677C72.1193 677 71 675.881 71 674.5C71 673.12 72.1193 672 73.5 672C74.8807 672 76 673.12 76 674.5C76 675.881 74.8807 677 73.5 677Z" fill="#E9F5FB"/>
<path d="M62.5 677C61.1193 677 60 675.881 60 674.5C60 673.12 61.1193 672 62.5 672C63.8807 672 65 673.12 65 674.5C65 675.881 63.8807 677 62.5 677Z" fill="#E9F5FB"/>
<path d="M51.5 677C50.1193 677 49 675.881 49 674.5C49 673.12 50.1193 672 51.5 672C52.8807 672 54 673.12 54 674.5C54 675.881 52.8807 677 51.5 677Z" fill="#E9F5FB"/>
<path d="M39.5 677C38.1193 677 37 675.881 37 674.5C37 673.12 38.1193 672 39.5 672C40.8807 672 42 673.12 42 674.5C42 675.881 40.8807 677 39.5 677Z" fill="#E9F5FB"/>
<path d="M28.5 677C27.1193 677 26 675.881 26 674.5C26 673.12 27.1193 672 28.5 672C29.8807 672 31 673.12 31 674.5C31 675.881 29.8807 677 28.5 677Z" fill="#E9F5FB"/>
<path d="M17.5 677C16.1193 677 15 675.881 15 674.5C15 673.12 16.1193 672 17.5 672C18.8807 672 20 673.12 20 674.5C20 675.881 18.8807 677 17.5 677Z" fill="#E9F5FB"/>
<path d="M5.5 677C4.11929 677 3 675.881 3 674.5C3 673.12 4.11929 672 5.5 672C6.88071 672 8 673.12 8 674.5C8 675.881 6.88071 677 5.5 677Z" fill="#E9F5FB"/>
<path d="M107.5 688C106.119 688 105 686.881 105 685.5C105 684.12 106.119 683 107.5 683C108.881 683 110 684.12 110 685.5C110 686.881 108.881 688 107.5 688Z" fill="#E9F5FB"/>
<path d="M96.5 688C95.1193 688 94 686.881 94 685.5C94 684.12 95.1193 683 96.5 683C97.8807 683 99 684.12 99 685.5C99 686.881 97.8807 688 96.5 688Z" fill="#E9F5FB"/>
<path d="M85.5 688C84.1193 688 83 686.881 83 685.5C83 684.12 84.1193 683 85.5 683C86.8807 683 88 684.12 88 685.5C88 686.881 86.8807 688 85.5 688Z" fill="#E9F5FB"/>
<path d="M73.5 688C72.1193 688 71 686.881 71 685.5C71 684.12 72.1193 683 73.5 683C74.8807 683 76 684.12 76 685.5C76 686.881 74.8807 688 73.5 688Z" fill="#E9F5FB"/>
<path d="M62.5 688C61.1193 688 60 686.881 60 685.5C60 684.12 61.1193 683 62.5 683C63.8807 683 65 684.12 65 685.5C65 686.881 63.8807 688 62.5 688Z" fill="#E9F5FB"/>
<path d="M51.5 688C50.1193 688 49 686.881 49 685.5C49 684.12 50.1193 683 51.5 683C52.8807 683 54 684.12 54 685.5C54 686.881 52.8807 688 51.5 688Z" fill="#E9F5FB"/>
<path d="M39.5 688C38.1193 688 37 686.881 37 685.5C37 684.12 38.1193 683 39.5 683C40.8807 683 42 684.12 42 685.5C42 686.881 40.8807 688 39.5 688Z" fill="#E9F5FB"/>
<path d="M28.5 688C27.1193 688 26 686.881 26 685.5C26 684.12 27.1193 683 28.5 683C29.8807 683 31 684.12 31 685.5C31 686.881 29.8807 688 28.5 688Z" fill="#E9F5FB"/>
<path d="M17.5 688C16.1193 688 15 686.881 15 685.5C15 684.12 16.1193 683 17.5 683C18.8807 683 20 684.12 20 685.5C20 686.881 18.8807 688 17.5 688Z" fill="#E9F5FB"/>
<path d="M5.5 688C4.11929 688 3 686.881 3 685.5C3 684.12 4.11929 683 5.5 683C6.88071 683 8 684.12 8 685.5C8 686.881 6.88071 688 5.5 688Z" fill="#E9F5FB"/>
<path d="M107.5 699C106.119 699 105 697.881 105 696.5C105 695.12 106.119 694 107.5 694C108.881 694 110 695.12 110 696.5C110 697.881 108.881 699 107.5 699Z" fill="#E9F5FB"/>
<path d="M96.5 699C95.1193 699 94 697.881 94 696.5C94 695.12 95.1193 694 96.5 694C97.8807 694 99 695.12 99 696.5C99 697.881 97.8807 699 96.5 699Z" fill="#E9F5FB"/>
<path d="M85.5 699C84.1193 699 83 697.881 83 696.5C83 695.12 84.1193 694 85.5 694C86.8807 694 88 695.12 88 696.5C88 697.881 86.8807 699 85.5 699Z" fill="#E9F5FB"/>
<path d="M73.5 699C72.1193 699 71 697.881 71 696.5C71 695.12 72.1193 694 73.5 694C74.8807 694 76 695.12 76 696.5C76 697.881 74.8807 699 73.5 699Z" fill="#E9F5FB"/>
<path d="M62.5 699C61.1193 699 60 697.881 60 696.5C60 695.12 61.1193 694 62.5 694C63.8807 694 65 695.12 65 696.5C65 697.881 63.8807 699 62.5 699Z" fill="#E9F5FB"/>
<path d="M51.5 699C50.1193 699 49 697.881 49 696.5C49 695.12 50.1193 694 51.5 694C52.8807 694 54 695.12 54 696.5C54 697.881 52.8807 699 51.5 699Z" fill="#E9F5FB"/>
<path d="M39.5 699C38.1193 699 37 697.881 37 696.5C37 695.12 38.1193 694 39.5 694C40.8807 694 42 695.12 42 696.5C42 697.881 40.8807 699 39.5 699Z" fill="#E9F5FB"/>
<path d="M28.5 699C27.1193 699 26 697.881 26 696.5C26 695.12 27.1193 694 28.5 694C29.8807 694 31 695.12 31 696.5C31 697.881 29.8807 699 28.5 699Z" fill="#E9F5FB"/>
<path d="M17.5 699C16.1193 699 15 697.881 15 696.5C15 695.12 16.1193 694 17.5 694C18.8807 694 20 695.12 20 696.5C20 697.881 18.8807 699 17.5 699Z" fill="#E9F5FB"/>
<path d="M5.5 699C4.11929 699 3 697.881 3 696.5C3 695.12 4.11929 694 5.5 694C6.88071 694 8 695.12 8 696.5C8 697.881 6.88071 699 5.5 699Z" fill="#E9F5FB"/>
<path d="M107.5 710C106.119 710 105 708.881 105 707.5C105 706.12 106.119 705 107.5 705C108.881 705 110 706.12 110 707.5C110 708.881 108.881 710 107.5 710Z" fill="#E9F5FB"/>
<path d="M96.5 710C95.1193 710 94 708.881 94 707.5C94 706.12 95.1193 705 96.5 705C97.8807 705 99 706.12 99 707.5C99 708.881 97.8807 710 96.5 710Z" fill="#E9F5FB"/>
<path d="M85.5 710C84.1193 710 83 708.881 83 707.5C83 706.12 84.1193 705 85.5 705C86.8807 705 88 706.12 88 707.5C88 708.881 86.8807 710 85.5 710Z" fill="#E9F5FB"/>
<path d="M73.5 710C72.1193 710 71 708.881 71 707.5C71 706.12 72.1193 705 73.5 705C74.8807 705 76 706.12 76 707.5C76 708.881 74.8807 710 73.5 710Z" fill="#E9F5FB"/>
<path d="M62.5 710C61.1193 710 60 708.881 60 707.5C60 706.12 61.1193 705 62.5 705C63.8807 705 65 706.12 65 707.5C65 708.881 63.8807 710 62.5 710Z" fill="#E9F5FB"/>
<path d="M51.5 710C50.1193 710 49 708.881 49 707.5C49 706.12 50.1193 705 51.5 705C52.8807 705 54 706.12 54 707.5C54 708.881 52.8807 710 51.5 710Z" fill="#E9F5FB"/>
<path d="M39.5 710C38.1193 710 37 708.881 37 707.5C37 706.12 38.1193 705 39.5 705C40.8807 705 42 706.12 42 707.5C42 708.881 40.8807 710 39.5 710Z" fill="#E9F5FB"/>
<path d="M28.5 710C27.1193 710 26 708.881 26 707.5C26 706.12 27.1193 705 28.5 705C29.8807 705 31 706.12 31 707.5C31 708.881 29.8807 710 28.5 710Z" fill="#E9F5FB"/>
<path d="M17.5 710C16.1193 710 15 708.881 15 707.5C15 706.12 16.1193 705 17.5 705C18.8807 705 20 706.12 20 707.5C20 708.881 18.8807 710 17.5 710Z" fill="#E9F5FB"/>
<path d="M5.5 710C4.11929 710 3 708.881 3 707.5C3 706.12 4.11929 705 5.5 705C6.88071 705 8 706.12 8 707.5C8 708.881 6.88071 710 5.5 710Z" fill="#E9F5FB"/>
<path d="M107.5 721C106.119 721 105 719.881 105 718.5C105 717.12 106.119 716 107.5 716C108.881 716 110 717.12 110 718.5C110 719.881 108.881 721 107.5 721Z" fill="#E9F5FB"/>
<path d="M96.5 721C95.1193 721 94 719.881 94 718.5C94 717.12 95.1193 716 96.5 716C97.8807 716 99 717.12 99 718.5C99 719.881 97.8807 721 96.5 721Z" fill="#E9F5FB"/>
<path d="M85.5 721C84.1193 721 83 719.881 83 718.5C83 717.12 84.1193 716 85.5 716C86.8807 716 88 717.12 88 718.5C88 719.881 86.8807 721 85.5 721Z" fill="#E9F5FB"/>
<path d="M73.5 721C72.1193 721 71 719.881 71 718.5C71 717.12 72.1193 716 73.5 716C74.8807 716 76 717.12 76 718.5C76 719.881 74.8807 721 73.5 721Z" fill="#E9F5FB"/>
<path d="M62.5 721C61.1193 721 60 719.881 60 718.5C60 717.12 61.1193 716 62.5 716C63.8807 716 65 717.12 65 718.5C65 719.881 63.8807 721 62.5 721Z" fill="#E9F5FB"/>
<path d="M51.5 721C50.1193 721 49 719.881 49 718.5C49 717.12 50.1193 716 51.5 716C52.8807 716 54 717.12 54 718.5C54 719.881 52.8807 721 51.5 721Z" fill="#E9F5FB"/>
<path d="M39.5 721C38.1193 721 37 719.881 37 718.5C37 717.12 38.1193 716 39.5 716C40.8807 716 42 717.12 42 718.5C42 719.881 40.8807 721 39.5 721Z" fill="#E9F5FB"/>
<path d="M28.5 721C27.1193 721 26 719.881 26 718.5C26 717.12 27.1193 716 28.5 716C29.8807 716 31 717.12 31 718.5C31 719.881 29.8807 721 28.5 721Z" fill="#E9F5FB"/>
<path d="M17.5 721C16.1193 721 15 719.881 15 718.5C15 717.12 16.1193 716 17.5 716C18.8807 716 20 717.12 20 718.5C20 719.881 18.8807 721 17.5 721Z" fill="#E9F5FB"/>
<path d="M5.5 721C4.11929 721 3 719.881 3 718.5C3 717.12 4.11929 716 5.5 716C6.88071 716 8 717.12 8 718.5C8 719.881 6.88071 721 5.5 721Z" fill="#E9F5FB"/>
<path d="M107.5 732C106.119 732 105 730.881 105 729.5C105 728.12 106.119 727 107.5 727C108.881 727 110 728.12 110 729.5C110 730.881 108.881 732 107.5 732Z" fill="#E9F5FB"/>
<path d="M96.5 732C95.1193 732 94 730.881 94 729.5C94 728.12 95.1193 727 96.5 727C97.8807 727 99 728.12 99 729.5C99 730.881 97.8807 732 96.5 732Z" fill="#E9F5FB"/>
<path d="M85.5 732C84.1193 732 83 730.881 83 729.5C83 728.12 84.1193 727 85.5 727C86.8807 727 88 728.12 88 729.5C88 730.881 86.8807 732 85.5 732Z" fill="#E9F5FB"/>
<path d="M73.5 732C72.1193 732 71 730.881 71 729.5C71 728.12 72.1193 727 73.5 727C74.8807 727 76 728.12 76 729.5C76 730.881 74.8807 732 73.5 732Z" fill="#E9F5FB"/>
<path d="M62.5 732C61.1193 732 60 730.881 60 729.5C60 728.12 61.1193 727 62.5 727C63.8807 727 65 728.12 65 729.5C65 730.881 63.8807 732 62.5 732Z" fill="#E9F5FB"/>
<path d="M51.5 732C50.1193 732 49 730.881 49 729.5C49 728.12 50.1193 727 51.5 727C52.8807 727 54 728.12 54 729.5C54 730.881 52.8807 732 51.5 732Z" fill="#E9F5FB"/>
<path d="M39.5 732C38.1193 732 37 730.881 37 729.5C37 728.12 38.1193 727 39.5 727C40.8807 727 42 728.12 42 729.5C42 730.881 40.8807 732 39.5 732Z" fill="#E9F5FB"/>
<path d="M28.5 732C27.1193 732 26 730.881 26 729.5C26 728.12 27.1193 727 28.5 727C29.8807 727 31 728.12 31 729.5C31 730.881 29.8807 732 28.5 732Z" fill="#E9F5FB"/>
<path d="M17.5 732C16.1193 732 15 730.881 15 729.5C15 728.12 16.1193 727 17.5 727C18.8807 727 20 728.12 20 729.5C20 730.881 18.8807 732 17.5 732Z" fill="#E9F5FB"/>
<path d="M5.5 732C4.11929 732 3 730.881 3 729.5C3 728.12 4.11929 727 5.5 727C6.88071 727 8 728.12 8 729.5C8 730.881 6.88071 732 5.5 732Z" fill="#E9F5FB"/>
<path d="M107.5 743C106.119 743 105 741.881 105 740.5C105 739.12 106.119 738 107.5 738C108.881 738 110 739.12 110 740.5C110 741.881 108.881 743 107.5 743Z" fill="#E9F5FB"/>
<path d="M96.5 743C95.1193 743 94 741.881 94 740.5C94 739.12 95.1193 738 96.5 738C97.8807 738 99 739.12 99 740.5C99 741.881 97.8807 743 96.5 743Z" fill="#E9F5FB"/>
<path d="M85.5 743C84.1193 743 83 741.881 83 740.5C83 739.12 84.1193 738 85.5 738C86.8807 738 88 739.12 88 740.5C88 741.881 86.8807 743 85.5 743Z" fill="#E9F5FB"/>
<path d="M73.5 743C72.1193 743 71 741.881 71 740.5C71 739.12 72.1193 738 73.5 738C74.8807 738 76 739.12 76 740.5C76 741.881 74.8807 743 73.5 743Z" fill="#E9F5FB"/>
<path d="M62.5 743C61.1193 743 60 741.881 60 740.5C60 739.12 61.1193 738 62.5 738C63.8807 738 65 739.12 65 740.5C65 741.881 63.8807 743 62.5 743Z" fill="#E9F5FB"/>
<path d="M51.5 743C50.1193 743 49 741.881 49 740.5C49 739.12 50.1193 738 51.5 738C52.8807 738 54 739.12 54 740.5C54 741.881 52.8807 743 51.5 743Z" fill="#E9F5FB"/>
<path d="M39.5 743C38.1193 743 37 741.881 37 740.5C37 739.12 38.1193 738 39.5 738C40.8807 738 42 739.12 42 740.5C42 741.881 40.8807 743 39.5 743Z" fill="#E9F5FB"/>
<path d="M28.5 743C27.1193 743 26 741.881 26 740.5C26 739.12 27.1193 738 28.5 738C29.8807 738 31 739.12 31 740.5C31 741.881 29.8807 743 28.5 743Z" fill="#E9F5FB"/>
<path d="M17.5 743C16.1193 743 15 741.881 15 740.5C15 739.12 16.1193 738 17.5 738C18.8807 738 20 739.12 20 740.5C20 741.881 18.8807 743 17.5 743Z" fill="#E9F5FB"/>
<path d="M5.5 743C4.11929 743 3 741.881 3 740.5C3 739.12 4.11929 738 5.5 738C6.88071 738 8 739.12 8 740.5C8 741.881 6.88071 743 5.5 743Z" fill="#E9F5FB"/>
<path d="M107.5 754C106.119 754 105 752.881 105 751.5C105 750.12 106.119 749 107.5 749C108.881 749 110 750.12 110 751.5C110 752.881 108.881 754 107.5 754Z" fill="#E9F5FB"/>
<path d="M96.5 754C95.1193 754 94 752.881 94 751.5C94 750.12 95.1193 749 96.5 749C97.8807 749 99 750.12 99 751.5C99 752.881 97.8807 754 96.5 754Z" fill="#E9F5FB"/>
<path d="M85.5 754C84.1193 754 83 752.881 83 751.5C83 750.12 84.1193 749 85.5 749C86.8807 749 88 750.12 88 751.5C88 752.881 86.8807 754 85.5 754Z" fill="#E9F5FB"/>
<path d="M73.5 754C72.1193 754 71 752.881 71 751.5C71 750.12 72.1193 749 73.5 749C74.8807 749 76 750.12 76 751.5C76 752.881 74.8807 754 73.5 754Z" fill="#E9F5FB"/>
<path d="M62.5 754C61.1193 754 60 752.881 60 751.5C60 750.12 61.1193 749 62.5 749C63.8807 749 65 750.12 65 751.5C65 752.881 63.8807 754 62.5 754Z" fill="#E9F5FB"/>
<path d="M51.5 754C50.1193 754 49 752.881 49 751.5C49 750.12 50.1193 749 51.5 749C52.8807 749 54 750.12 54 751.5C54 752.881 52.8807 754 51.5 754Z" fill="#E9F5FB"/>
<path d="M39.5 754C38.1193 754 37 752.881 37 751.5C37 750.12 38.1193 749 39.5 749C40.8807 749 42 750.12 42 751.5C42 752.881 40.8807 754 39.5 754Z" fill="#E9F5FB"/>
<path d="M28.5 754C27.1193 754 26 752.881 26 751.5C26 750.12 27.1193 749 28.5 749C29.8807 749 31 750.12 31 751.5C31 752.881 29.8807 754 28.5 754Z" fill="#E9F5FB"/>
<path d="M17.5 754C16.1193 754 15 752.881 15 751.5C15 750.12 16.1193 749 17.5 749C18.8807 749 20 750.12 20 751.5C20 752.881 18.8807 754 17.5 754Z" fill="#E9F5FB"/>
<path d="M5.5 754C4.11929 754 3 752.881 3 751.5C3 750.12 4.11929 749 5.5 749C6.88071 749 8 750.12 8 751.5C8 752.881 6.88071 754 5.5 754Z" fill="#E9F5FB"/>
<path d="M107.5 765C106.119 765 105 763.881 105 762.5C105 761.12 106.119 760 107.5 760C108.881 760 110 761.12 110 762.5C110 763.881 108.881 765 107.5 765Z" fill="#E9F5FB"/>
<path d="M96.5 765C95.1193 765 94 763.881 94 762.5C94 761.12 95.1193 760 96.5 760C97.8807 760 99 761.12 99 762.5C99 763.881 97.8807 765 96.5 765Z" fill="#E9F5FB"/>
<path d="M85.5 765C84.1193 765 83 763.881 83 762.5C83 761.12 84.1193 760 85.5 760C86.8807 760 88 761.12 88 762.5C88 763.881 86.8807 765 85.5 765Z" fill="#E9F5FB"/>
<path d="M73.5 765C72.1193 765 71 763.881 71 762.5C71 761.12 72.1193 760 73.5 760C74.8807 760 76 761.12 76 762.5C76 763.881 74.8807 765 73.5 765Z" fill="#E9F5FB"/>
<path d="M62.5 765C61.1193 765 60 763.881 60 762.5C60 761.12 61.1193 760 62.5 760C63.8807 760 65 761.12 65 762.5C65 763.881 63.8807 765 62.5 765Z" fill="#E9F5FB"/>
<path d="M51.5 765C50.1193 765 49 763.881 49 762.5C49 761.12 50.1193 760 51.5 760C52.8807 760 54 761.12 54 762.5C54 763.881 52.8807 765 51.5 765Z" fill="#E9F5FB"/>
<path d="M39.5 765C38.1193 765 37 763.881 37 762.5C37 761.12 38.1193 760 39.5 760C40.8807 760 42 761.12 42 762.5C42 763.881 40.8807 765 39.5 765Z" fill="#E9F5FB"/>
<path d="M28.5 765C27.1193 765 26 763.881 26 762.5C26 761.12 27.1193 760 28.5 760C29.8807 760 31 761.12 31 762.5C31 763.881 29.8807 765 28.5 765Z" fill="#E9F5FB"/>
<path d="M17.5 765C16.1193 765 15 763.881 15 762.5C15 761.12 16.1193 760 17.5 760C18.8807 760 20 761.12 20 762.5C20 763.881 18.8807 765 17.5 765Z" fill="#E9F5FB"/>
<path d="M5.5 765C4.11929 765 3 763.881 3 762.5C3 761.12 4.11929 760 5.5 760C6.88071 760 8 761.12 8 762.5C8 763.881 6.88071 765 5.5 765Z" fill="#E9F5FB"/>
<path d="M107.5 776C106.119 776 105 774.881 105 773.5C105 772.12 106.119 771 107.5 771C108.881 771 110 772.12 110 773.5C110 774.881 108.881 776 107.5 776Z" fill="#E9F5FB"/>
<path d="M96.5 776C95.1193 776 94 774.881 94 773.5C94 772.12 95.1193 771 96.5 771C97.8807 771 99 772.12 99 773.5C99 774.881 97.8807 776 96.5 776Z" fill="#E9F5FB"/>
<path d="M85.5 776C84.1193 776 83 774.881 83 773.5C83 772.12 84.1193 771 85.5 771C86.8807 771 88 772.12 88 773.5C88 774.881 86.8807 776 85.5 776Z" fill="#E9F5FB"/>
<path d="M73.5 776C72.1193 776 71 774.881 71 773.5C71 772.12 72.1193 771 73.5 771C74.8807 771 76 772.12 76 773.5C76 774.881 74.8807 776 73.5 776Z" fill="#E9F5FB"/>
<path d="M62.5 776C61.1193 776 60 774.881 60 773.5C60 772.12 61.1193 771 62.5 771C63.8807 771 65 772.12 65 773.5C65 774.881 63.8807 776 62.5 776Z" fill="#E9F5FB"/>
<path d="M51.5 776C50.1193 776 49 774.881 49 773.5C49 772.12 50.1193 771 51.5 771C52.8807 771 54 772.12 54 773.5C54 774.881 52.8807 776 51.5 776Z" fill="#E9F5FB"/>
<path d="M39.5 776C38.1193 776 37 774.881 37 773.5C37 772.12 38.1193 771 39.5 771C40.8807 771 42 772.12 42 773.5C42 774.881 40.8807 776 39.5 776Z" fill="#E9F5FB"/>
<path d="M28.5 776C27.1193 776 26 774.881 26 773.5C26 772.12 27.1193 771 28.5 771C29.8807 771 31 772.12 31 773.5C31 774.881 29.8807 776 28.5 776Z" fill="#E9F5FB"/>
<path d="M17.5 776C16.1193 776 15 774.881 15 773.5C15 772.12 16.1193 771 17.5 771C18.8807 771 20 772.12 20 773.5C20 774.881 18.8807 776 17.5 776Z" fill="#E9F5FB"/>
<path d="M5.5 776C4.11929 776 3 774.881 3 773.5C3 772.12 4.11929 771 5.5 771C6.88071 771 8 772.12 8 773.5C8 774.881 6.88071 776 5.5 776Z" fill="#E9F5FB"/>
<path d="M107.5 787C106.119 787 105 785.881 105 784.5C105 783.12 106.119 782 107.5 782C108.881 782 110 783.12 110 784.5C110 785.881 108.881 787 107.5 787Z" fill="#E9F5FB"/>
<path d="M96.5 787C95.1193 787 94 785.881 94 784.5C94 783.12 95.1193 782 96.5 782C97.8807 782 99 783.12 99 784.5C99 785.881 97.8807 787 96.5 787Z" fill="#E9F5FB"/>
<path d="M85.5 787C84.1193 787 83 785.881 83 784.5C83 783.12 84.1193 782 85.5 782C86.8807 782 88 783.12 88 784.5C88 785.881 86.8807 787 85.5 787Z" fill="#E9F5FB"/>
<path d="M73.5 787C72.1193 787 71 785.881 71 784.5C71 783.12 72.1193 782 73.5 782C74.8807 782 76 783.12 76 784.5C76 785.881 74.8807 787 73.5 787Z" fill="#E9F5FB"/>
<path d="M62.5 787C61.1193 787 60 785.881 60 784.5C60 783.12 61.1193 782 62.5 782C63.8807 782 65 783.12 65 784.5C65 785.881 63.8807 787 62.5 787Z" fill="#E9F5FB"/>
<path d="M51.5 787C50.1193 787 49 785.881 49 784.5C49 783.12 50.1193 782 51.5 782C52.8807 782 54 783.12 54 784.5C54 785.881 52.8807 787 51.5 787Z" fill="#E9F5FB"/>
<path d="M39.5 787C38.1193 787 37 785.881 37 784.5C37 783.12 38.1193 782 39.5 782C40.8807 782 42 783.12 42 784.5C42 785.881 40.8807 787 39.5 787Z" fill="#E9F5FB"/>
<path d="M28.5 787C27.1193 787 26 785.881 26 784.5C26 783.12 27.1193 782 28.5 782C29.8807 782 31 783.12 31 784.5C31 785.881 29.8807 787 28.5 787Z" fill="#E9F5FB"/>
<path d="M17.5 787C16.1193 787 15 785.881 15 784.5C15 783.12 16.1193 782 17.5 782C18.8807 782 20 783.12 20 784.5C20 785.881 18.8807 787 17.5 787Z" fill="#E9F5FB"/>
<path d="M5.5 787C4.11929 787 3 785.881 3 784.5C3 783.12 4.11929 782 5.5 782C6.88071 782 8 783.12 8 784.5C8 785.881 6.88071 787 5.5 787Z" fill="#E9F5FB"/>
</g>
<defs>
<filter id="filter0_d" x="1133.05" y="-148.952" width="338.362" height="340.362" filterUnits="userSpaceOnUse" color-interpolation-filters="sRGB">
<feFlood flood-opacity="0" result="BackgroundImageFix"/>
<feColorMatrix in="SourceAlpha" type="matrix" values="0 0 0 0 0 0 0 0 0 0 0 0 0 0 0 0 0 0 127 0"/>
<feOffset dy="8"/>
<feGaussianBlur stdDeviation="3"/>
<feColorMatrix type="matrix" values="0 0 0 0 0.866667 0 0 0 0 0.898039 0 0 0 0 0.913725 0 0 0 0.25 0"/>
<feBlend mode="normal" in2="BackgroundImageFix" result="effect1_dropShadow"/>
<feBlend mode="normal" in="SourceGraphic" in2="effect1_dropShadow" result="shape"/>
</filter>
<clipPath id="clip0">
<rect width="263.855" height="213.326" fill="white" transform="translate(1088 615)"/>
</clipPath>
<clipPath id="clip1">
<rect width="115" height="169" fill="white" transform="matrix(-1 0 0 1 110 650)"/>
</clipPath>
</defs>
</svg>
