<svg xmlns="http://www.w3.org/2000/svg" width="268" height="32" viewBox="0 0 268 32" fill="none"><g filter="url(#filter0_d)"><path fill-rule="evenodd" clip-rule="evenodd" d="M262.722 1.883L264.78 3.98198C264.78 3.98202 264.78 3.98193 264.78 3.98198C265.921 5.14501 265.917 7.0145 264.783 8.17679L264.774 8.1863L263.865 9.08415L254.863 17.9885C254.493 18.3618 254.038 18.6202 253.556 18.7554L253.547 18.7579L249.275 19.9257C249.275 19.9258 249.275 19.9257 249.275 19.9257C247.673 20.3641 246.323 18.8731 246.717 17.3709L247.866 13.0056C247.996 12.5246 248.246 12.0624 248.616 11.6841L248.625 11.6753L257.651 2.74802L258.536 1.87224C259.692 0.708064 261.569 0.706866 262.722 1.883ZM258.457 4.05999L258.459 4.06247L262.571 8.25522L263.71 7.12884C264.277 6.54778 264.277 5.61077 263.71 5.03264L261.652 2.93352C261.085 2.3554 260.166 2.3554 259.596 2.93352L258.457 4.05999ZM249.687 12.7333C249.508 12.9169 249.38 13.1484 249.312 13.3974L248.167 17.7524C248.051 18.1943 248.446 18.5976 248.88 18.4789L253.151 17.311C253.395 17.2426 253.621 17.1122 253.802 16.9282L261.75 9.06835L257.635 4.87298L249.687 12.7333Z" fill="#6C7C83"></path></g><path fill-rule="evenodd" clip-rule="evenodd" d="M259.595 2.93359C260.165 2.35547 261.084 2.35547 261.652 2.93359L263.709 5.03271C264.277 5.61084 264.277 6.54785 263.709 7.12891L262.571 8.25537L258.456 4.06006L259.595 2.93359ZM257.634 4.87305L249.687 12.7334C249.507 12.917 249.379 13.1484 249.312 13.3975L248.167 17.7524C248.05 18.1943 248.446 18.5977 248.879 18.479L253.151 17.311C253.395 17.2427 253.621 17.1123 253.801 16.9282L261.749 9.06835L257.634 4.87305Z" fill="white"></path><path d="M4 27.1958C73.712 10.0353 189.207 10.5638 238.836 19.8033" stroke="#FFA826" stroke-width="8" stroke-linecap="round" stroke-linejoin="round"></path><defs><filter id="filter0_d" x="244.648" y="0" width="22.9866" height="23.0035" filterUnits="userSpaceOnUse" color-interpolation-filters="sRGB"><feGaussianBlur stdDeviation="1"></feGaussianBlur></filter></defs></svg>